<svg id="calendar" xmlns="http://www.w3.org/2000/svg" width="20" height="20" viewBox="0 0 20 20">
  <g id="Group_2647" data-name="Group 2647">
    <g id="Group_2646" data-name="Group 2646">
      <path id="Path_12040" data-name="Path 12040" d="M19.219,13.75A.781.781,0,0,0,20,12.969V4.688a3.129,3.129,0,0,0-3.125-3.125H15.859V.781a.781.781,0,0,0-1.562,0v.781H10.742V.781a.781.781,0,0,0-1.562,0v.781H5.664V.781A.781.781,0,0,0,4.1.781v.781H3.125A3.129,3.129,0,0,0,0,4.688V16.875A3.129,3.129,0,0,0,3.125,20h13.75A3.129,3.129,0,0,0,20,16.875a.781.781,0,0,0-1.562,0,1.564,1.564,0,0,1-1.562,1.563H3.125a1.564,1.564,0,0,1-1.562-1.562V4.688A1.564,1.564,0,0,1,3.125,3.125H4.1v.781a.781.781,0,1,0,1.563,0V3.125H9.18v.781a.781.781,0,1,0,1.563,0V3.125H14.3v.781a.781.781,0,1,0,1.563,0V3.125h1.016a1.564,1.564,0,0,1,1.563,1.563v8.281A.781.781,0,0,0,19.219,13.75Z" fill="#7dd87d"/>
    </g>
  </g>
  <g id="Group_2649" data-name="Group 2649" transform="translate(3.656 7.473)">
    <g id="Group_2648" data-name="Group 2648" transform="translate(0 0)">
      <circle id="Ellipse_79" data-name="Ellipse 79" cx="1" cy="1" r="1" fill="#7dd87d"/>
    </g>
  </g>
  <g id="Group_2651" data-name="Group 2651" transform="translate(10.528 7.473)">
    <g id="Group_2650" data-name="Group 2650" transform="translate(0 0)">
      <circle id="Ellipse_80" data-name="Ellipse 80" cx="1" cy="1" r="1" fill="#7dd87d"/>
    </g>
  </g>
  <g id="Group_2653" data-name="Group 2653" transform="translate(14.344 7.473)">
    <g id="Group_2652" data-name="Group 2652" transform="translate(0 0)">
      <circle id="Ellipse_81" data-name="Ellipse 81" cx="1" cy="1" r="1" fill="#7dd87d"/>
    </g>
  </g>
  <g id="Group_2655" data-name="Group 2655" transform="translate(3.656 10.527)">
    <g id="Group_2654" data-name="Group 2654" transform="translate(0)">
      <circle id="Ellipse_82" data-name="Ellipse 82" cx="1" cy="1" r="1" fill="#7dd87d"/>
    </g>
  </g>
  <g id="Group_2657" data-name="Group 2657" transform="translate(3.656 13.394)">
    <g id="Group_2656" data-name="Group 2656" transform="translate(0 0)">
      <ellipse id="Ellipse_83" data-name="Ellipse 83" cx="1" cy="1.5" rx="1" ry="1.5" fill="#7dd87d"/>
    </g>
  </g>
  <g id="Group_2659" data-name="Group 2659" transform="translate(7.473 7.473)">
    <g id="Group_2658" data-name="Group 2658" transform="translate(0 0)">
      <circle id="Ellipse_84" data-name="Ellipse 84" cx="1" cy="1" r="1" fill="#7dd87d"/>
    </g>
  </g>
  <g id="Group_2661" data-name="Group 2661" transform="translate(7.473 10.527)">
    <g id="Group_2660" data-name="Group 2660" transform="translate(0)">
      <circle id="Ellipse_85" data-name="Ellipse 85" cx="1" cy="1" r="1" fill="#7dd87d"/>
    </g>
  </g>
  <g id="Group_2663" data-name="Group 2663" transform="translate(7.473 13.394)">
    <g id="Group_2662" data-name="Group 2662" transform="translate(0 0)">
      <ellipse id="Ellipse_86" data-name="Ellipse 86" cx="1" cy="1.5" rx="1" ry="1.5" fill="#7dd87d"/>
    </g>
  </g>
  <g id="Group_2665" data-name="Group 2665" transform="translate(10.528 10.527)">
    <g id="Group_2664" data-name="Group 2664" transform="translate(0)">
      <circle id="Ellipse_87" data-name="Ellipse 87" cx="1" cy="1" r="1" fill="#7dd87d"/>
    </g>
  </g>
  <g id="Group_2667" data-name="Group 2667" transform="translate(14.344 10.527)">
    <g id="Group_2666" data-name="Group 2666" transform="translate(0)">
      <circle id="Ellipse_88" data-name="Ellipse 88" cx="1" cy="1" r="1" fill="#7dd87d"/>
    </g>
  </g>
  <g id="Group_2669" data-name="Group 2669" transform="translate(10.528 13.394)">
    <g id="Group_2668" data-name="Group 2668" transform="translate(0 0)">
      <ellipse id="Ellipse_89" data-name="Ellipse 89" cx="1" cy="1.5" rx="1" ry="1.5" fill="#7dd87d"/>
    </g>
  </g>
</svg>
