<svg id="chat" xmlns="http://www.w3.org/2000/svg" width="14.242" height="13.623" viewBox="0 0 14.242 13.623">
  <path id="Path_11404" data-name="Path 11404" d="M9.237,23.96h3.086a.248.248,0,0,0,0-.495H9.237a.248.248,0,0,0,0,.495Z" transform="translate(-6.864 -18.27)" fill="#999fb9"/>
  <path id="Path_11405" data-name="Path 11405" d="M15.409,29.465H9.237a.248.248,0,0,0,0,.495h6.171a.248.248,0,0,0,0-.495Z" transform="translate(-6.864 -22.786)" fill="#999fb9"/>
  <path id="Path_11406" data-name="Path 11406" d="M15.409,35.465H9.237a.248.248,0,0,0,0,.495h6.171a.248.248,0,0,0,0-.495Z" transform="translate(-6.864 -27.302)" fill="#999fb9"/>
  <path id="Path_11407" data-name="Path 11407" d="M12.834,2.482l-8.1-.017A1.44,1.44,0,0,0,3.323,3.932V5.2l-1.915,0A1.44,1.44,0,0,0,0,6.671V11.9a1.439,1.439,0,0,0,1.408,1.467H2.848v2.474A.247.247,0,0,0,3,16.071a.229.229,0,0,0,.085.017.234.234,0,0,0,.176-.081l2.3-2.641,3.946-.017a1.44,1.44,0,0,0,1.408-1.467v-.028l1.249,1.431a.234.234,0,0,0,.176.081.229.229,0,0,0,.085-.017.247.247,0,0,0,.152-.231V10.646h.254a1.44,1.44,0,0,0,1.408-1.467V3.949A1.44,1.44,0,0,0,12.834,2.482Zm-2.391,9.4a.954.954,0,0,1-.934.972l-4.052.017a.233.233,0,0,0-.175.081L3.323,15.2V13.119a.242.242,0,0,0-.237-.247H1.408A.954.954,0,0,1,.475,11.9V6.67A.954.954,0,0,1,1.408,5.7l2.152,0h0l5.95-.013a.954.954,0,0,1,.933.972v5.23Zm3.323-2.7a.954.954,0,0,1-.933.972h-.491a.242.242,0,0,0-.237.247V12.48l-1.187-1.361V6.653A1.44,1.44,0,0,0,9.51,5.186L3.8,5.2V3.932a.954.954,0,0,1,.932-.972l8.1.017h0a.954.954,0,0,1,.933.972v5.23Z" transform="translate(0 -2.465)" fill="#999fb9"/>
</svg>
