<svg xmlns="http://www.w3.org/2000/svg" width="17.934" height="17.934" viewBox="0 0 17.934 17.934">
  <g id="check" transform="translate(-1 -1)">
    <path id="Path_11666" data-name="Path 11666" d="M9.967,1a8.967,8.967,0,1,0,8.967,8.967A8.967,8.967,0,0,0,9.967,1Zm0,16.3A7.337,7.337,0,1,1,17.3,9.967,7.337,7.337,0,0,1,9.967,17.3Z" transform="translate(0 0)" fill="#7dd87d"/>
    <path id="Path_11667" data-name="Path 11667" d="M14.6,8.714l-4.316,3.956L8.392,10.777A.815.815,0,1,0,7.239,11.93l2.446,2.446a.815.815,0,0,0,1.127.024L15.7,9.916a.815.815,0,1,0-1.1-1.2Z" transform="translate(-1.109 -1.386)" fill="#7dd87d"/>
  </g>
</svg>
