<svg xmlns="http://www.w3.org/2000/svg" width="16.387" height="16.387" viewBox="0 0 16.387 16.387">
  <path id="check_1_" data-name="check (1)" d="M16.386,8.694A8.161,8.161,0,0,1,15,13.242a.64.64,0,1,1-1.064-.711,6.9,6.9,0,0,0,.955-5.566.64.64,0,0,1,1.24-.319,8.223,8.223,0,0,1,.258,2.048Zm-4.617,5.918A6.913,6.913,0,1,1,12.118,3a.64.64,0,1,0,.728-1.053A8.194,8.194,0,0,0,2.4,14.487a8.2,8.2,0,0,0,10.033,1.219.64.64,0,1,0-.663-1.095ZM8.255,10.55a.365.365,0,0,1-.27-.1L4.633,7.269a.64.64,0,1,0-.881.929L7.1,11.376a1.635,1.635,0,0,0,1.134.454h.068a1.636,1.636,0,0,0,1.162-.548l.022-.026,6.754-8.4a.64.64,0,0,0-1-.8L8.506,10.437a.366.366,0,0,1-.251.113Zm0,0" transform="translate(0 -0.501)" fill="#7dd87d"/>
</svg>
