<svg id="chicken" xmlns="http://www.w3.org/2000/svg" width="27.118" height="21.342" viewBox="0 0 27.118 21.342">
  <path id="Path_12004" data-name="Path 12004" d="M302.76,56.585a1.373,1.373,0,0,0-1.1-.459.143.143,0,0,1-.15-.15,1.377,1.377,0,1,0-2.348.9l0,0a.207.207,0,0,1,0,.294L296.94,59.4l1.293,1.293,2.229-2.229a.207.207,0,0,1,.294,0l0,0a1.377,1.377,0,0,0,2-1.889Z" transform="translate(-281.212 -54.532)" fill="#ded0cb"/>
  <path id="Path_12005" data-name="Path 12005" d="M309.674,86.171a1.373,1.373,0,0,0-.66-.443,1.375,1.375,0,0,1-2.286,1.381l0,0a.211.211,0,0,0-.3,0L304.2,89.333l.908.908,2.229-2.229a.206.206,0,0,1,.291,0l0,0a1.377,1.377,0,0,0,2.038-1.846Z" transform="translate(-288.091 -84.076)" fill="#b8abab"/>
  <path id="Path_12006" data-name="Path 12006" d="M184.668,147.879a3.349,3.349,0,1,1-4.737-4.737c1.308-1.308,5.064-2.943,6.372-1.635S185.976,146.571,184.668,147.879Z" transform="translate(-169.473 -136.445)" fill="#a95e2c"/>
  <path id="Path_12007" data-name="Path 12007" d="M186.317,144.38a1.472,1.472,0,0,0-.492-.32,8.839,8.839,0,0,1-2.071,4.338,3.349,3.349,0,0,1-4.737,0l-.052-.054a3.349,3.349,0,0,0,5.717,2.409c1.308-1.308,2.943-5.064,1.635-6.372Z" transform="translate(-169.486 -139.318)" fill="#8f4e24"/>
  <path id="Path_12008" data-name="Path 12008" d="M401.4,115.58a1.373,1.373,0,0,0-1.1-.459.143.143,0,0,1-.15-.15,1.377,1.377,0,1,0-2.348.9l0,0a.207.207,0,0,1,0,.294l-2.229,2.229,1.293,1.293,2.229-2.229a.207.207,0,0,1,.294,0l0,0a1.377,1.377,0,0,0,2-1.889Z" transform="translate(-374.626 -110.402)" fill="#ded0cb"/>
  <path id="Path_12009" data-name="Path 12009" d="M408.314,145.166a1.373,1.373,0,0,0-.66-.443,1.375,1.375,0,0,1-2.286,1.381.212.212,0,0,0-.3,0l-2.225,2.225.908.908,2.226-2.226a.21.21,0,0,1,.3,0l0,0a1.377,1.377,0,0,0,2.038-1.846Z" transform="translate(-381.506 -139.946)" fill="#b8abab"/>
  <path id="Path_12010" data-name="Path 12010" d="M74.149,192.375h-4.06a9.27,9.27,0,0,0-9.27,9.27v2.263a1.39,1.39,0,0,0,1.39,1.39h11.94a6.038,6.038,0,0,0,6.038-6.038v-.847A6.038,6.038,0,0,0,74.149,192.375Z" transform="translate(-57.598 -185.074)" fill="#d57e4b"/>
  <path id="Path_12011" data-name="Path 12011" d="M78.011,218.74a6.044,6.044,0,0,1,.21,1.583v.847a6.038,6.038,0,0,1-6.038,6.038H60.819v1.668a1.39,1.39,0,0,0,1.39,1.39h11.94a6.038,6.038,0,0,0,6.038-6.038v-.847A6.025,6.025,0,0,0,78.011,218.74Z" transform="translate(-57.598 -210.043)" fill="#c56e37"/>
  <path id="Path_12012" data-name="Path 12012" d="M283.306,206.874a3.349,3.349,0,0,1-4.737-4.737c1.308-1.308,5.064-2.943,6.372-1.635S284.614,205.566,283.306,206.874Z" transform="translate(-262.886 -192.316)" fill="#a95e2c"/>
  <path id="Path_12013" data-name="Path 12013" d="M284.955,203.374a1.472,1.472,0,0,0-.492-.32,8.839,8.839,0,0,1-2.071,4.338,3.349,3.349,0,0,1-4.737,0l-.052-.054a3.349,3.349,0,0,0,5.717,2.409C284.627,208.438,286.263,204.682,284.955,203.374Z" transform="translate(-262.899 -195.187)" fill="#8f4e24"/>
  <path id="Path_12014" data-name="Path 12014" d="M26.243,426.529H.8a.8.8,0,0,1-.8-.8V425.6a.8.8,0,0,1,.8-.8H26.243a.865.865,0,0,1,.865.865h0A.865.865,0,0,1,26.243,426.529Z" transform="translate(0 -405.188)" fill="#ded0cb"/>
  <path id="Path_12015" data-name="Path 12015" d="M451.307,424.8h-2.47a.836.836,0,0,1,.836.836v.059a.836.836,0,0,1-.836.836h2.47a.865.865,0,0,0,.865-.865h0A.865.865,0,0,0,451.307,424.8Z" transform="translate(-425.064 -405.188)" fill="#c9beb9"/>
  <g id="Group_2542" data-name="Group 2542" transform="translate(6.061 12.415)">
    <circle id="Ellipse_75" data-name="Ellipse 75" cx="0.54" cy="0.54" r="0.54" transform="translate(1.13)" fill="#a95e2c"/>
    <circle id="Ellipse_76" data-name="Ellipse 76" cx="0.54" cy="0.54" r="0.54" transform="translate(3.633 1.57)" fill="#a95e2c"/>
    <circle id="Ellipse_77" data-name="Ellipse 77" cx="0.54" cy="0.54" r="0.54" transform="translate(0 1.57)" fill="#a95e2c"/>
  </g>
</svg>
