<svg id="corn" xmlns="http://www.w3.org/2000/svg" xmlns:xlink="http://www.w3.org/1999/xlink" width="21.001" height="21" viewBox="0 0 21.001 21">
  <defs>
    <linearGradient id="linear-gradient" x1="3.611" y1="2.059" x2="4.16" y2="2.059" gradientUnits="objectBoundingBox">
      <stop offset="0" stop-color="#acc130"/>
      <stop offset="1" stop-color="#97a03b"/>
    </linearGradient>
    <linearGradient id="linear-gradient-2" x1="0.377" y1="0.499" x2="0.765" y2="0.499" gradientUnits="objectBoundingBox">
      <stop offset="0" stop-color="#ffe548"/>
      <stop offset="1" stop-color="#ffb211"/>
    </linearGradient>
    <linearGradient id="linear-gradient-3" x1="1.999" y1="2.985" x2="4.261" y2="2.985" xlink:href="#linear-gradient-2"/>
    <linearGradient id="linear-gradient-4" x1="-2.431" y1="-2.017" x2="-0.169" y2="-2.017" xlink:href="#linear-gradient-2"/>
    <linearGradient id="linear-gradient-5" x1="-9.396" y1="-0.872" x2="-7.551" y2="-0.478" xlink:href="#linear-gradient-2"/>
    <linearGradient id="linear-gradient-6" x1="8.425" y1="1.772" x2="16.923" y2="1.772" xlink:href="#linear-gradient-2"/>
    <linearGradient id="linear-gradient-7" x1="0.909" y1="0.878" x2="8.494" y2="0.878" xlink:href="#linear-gradient-2"/>
    <linearGradient id="linear-gradient-8" x1="-4.135" y1="0.104" x2="3.441" y2="0.104" xlink:href="#linear-gradient-2"/>
    <linearGradient id="linear-gradient-9" x1="2.712" y1="2.82" x2="12.904" y2="2.82" xlink:href="#linear-gradient-2"/>
    <linearGradient id="linear-gradient-10" x1="-4.379" y1="-2.237" x2="-3.593" y2="-1.858" xlink:href="#linear-gradient-2"/>
    <linearGradient id="linear-gradient-11" x1="1.56" y1="2.6" x2="10.496" y2="2.6" xlink:href="#linear-gradient-2"/>
    <linearGradient id="linear-gradient-12" x1="-2.629" y1="-2.049" x2="-1.81" y2="-1.615" xlink:href="#linear-gradient-2"/>
    <linearGradient id="linear-gradient-13" x1="2.753" y1="-0.271" x2="3.097" y2="0.372" xlink:href="#linear-gradient-2"/>
    <linearGradient id="linear-gradient-14" x1="-3.08" y1="0.776" x2="4.711" y2="0.776" xlink:href="#linear-gradient-2"/>
    <linearGradient id="linear-gradient-15" x1="-2.19" y1="1.223" x2="6.105" y2="1.223" xlink:href="#linear-gradient-2"/>
    <linearGradient id="linear-gradient-16" x1="0.733" y1="2.376" x2="9.573" y2="2.376" xlink:href="#linear-gradient-2"/>
    <linearGradient id="linear-gradient-17" x1="-1.439" y1="-1.769" x2="-0.661" y2="-1.348" xlink:href="#linear-gradient-2"/>
    <linearGradient id="linear-gradient-18" x1="1.926" y1="-0.768" x2="2.247" y2="-0.253" xlink:href="#linear-gradient-2"/>
    <linearGradient id="linear-gradient-19" x1="-1.541" y1="1.628" x2="7.888" y2="1.628" xlink:href="#linear-gradient-2"/>
    <linearGradient id="linear-gradient-20" x1="-0.008" y1="2.24" x2="9.597" y2="2.24" xlink:href="#linear-gradient-2"/>
    <linearGradient id="linear-gradient-21" x1="-0.783" y1="-1.899" x2="0.039" y2="-1.275" xlink:href="#linear-gradient-2"/>
    <linearGradient id="linear-gradient-22" x1="1.173" y1="-1.276" x2="1.668" y2="-0.574" xlink:href="#linear-gradient-2"/>
    <linearGradient id="linear-gradient-23" x1="-0.685" y1="1.851" x2="8.625" y2="1.851" xlink:href="#linear-gradient-2"/>
    <linearGradient id="linear-gradient-24" x1="0.382" y1="-1.315" x2="0.837" y2="-0.86" xlink:href="#linear-gradient-2"/>
    <linearGradient id="linear-gradient-25" x1="-7.25" y1="-1.171" x2="-6.399" y2="-0.834" xlink:href="#linear-gradient-2"/>
    <linearGradient id="linear-gradient-26" x1="6.565" y1="2.024" x2="10.829" y2="2.024" xlink:href="#linear-gradient-2"/>
    <linearGradient id="linear-gradient-27" x1="-3.147" y1="-2.309" x2="-2.802" y2="-1.292" xlink:href="#linear-gradient-2"/>
    <linearGradient id="linear-gradient-28" x1="2.849" y1="2.952" x2="4.788" y2="2.952" xlink:href="#linear-gradient-2"/>
    <linearGradient id="linear-gradient-29" x1="-3.737" y1="-1.627" x2="-3.079" y2="-1.22" xlink:href="#linear-gradient-2"/>
    <linearGradient id="linear-gradient-30" x1="-3.237" y1="-0.541" x2="-2.73" y2="0.421" xlink:href="#linear-gradient-2"/>
    <linearGradient id="linear-gradient-31" x1="2.447" y1="1.418" x2="4.728" y2="1.418" xlink:href="#linear-gradient-2"/>
    <linearGradient id="linear-gradient-32" x1="3.849" y1="2.368" x2="6.547" y2="2.368" xlink:href="#linear-gradient-2"/>
    <linearGradient id="linear-gradient-33" x1="-2.356" y1="-1.416" x2="-1.812" y2="-0.966" xlink:href="#linear-gradient-2"/>
    <linearGradient id="linear-gradient-34" x1="-2.348" y1="-0.056" x2="-1.5" y2="1.107" xlink:href="#linear-gradient-2"/>
    <linearGradient id="linear-gradient-35" x1="1.428" y1="0.826" x2="3.582" y2="0.826" xlink:href="#linear-gradient-2"/>
    <linearGradient id="linear-gradient-36" x1="2.352" y1="1.969" x2="3.375" y2="2.863" xlink:href="#linear-gradient-2"/>
    <linearGradient id="linear-gradient-37" x1="1.693" y1="-0.106" x2="1.995" y2="0.468" xlink:href="#linear-gradient-2"/>
    <linearGradient id="linear-gradient-38" x1="1.399" y1="1.666" x2="2.565" y2="2.627" xlink:href="#linear-gradient-2"/>
    <linearGradient id="linear-gradient-39" x1="-1.502" y1="0.43" x2="-0.437" y2="1.758" xlink:href="#linear-gradient-2"/>
    <linearGradient id="linear-gradient-40" x1="-1.314" y1="-1.063" x2="-0.699" y2="-0.566" xlink:href="#linear-gradient-2"/>
    <linearGradient id="linear-gradient-41" x1="-0.818" y1="0.854" x2="0.266" y2="1.891" xlink:href="#linear-gradient-2"/>
    <linearGradient id="linear-gradient-42" x1="0.994" y1="-0.285" x2="1.492" y2="0.264" xlink:href="#linear-gradient-2"/>
    <linearGradient id="linear-gradient-43" x1="-0.722" y1="-0.95" x2="-0.127" y2="-0.495" xlink:href="#linear-gradient-2"/>
    <linearGradient id="linear-gradient-44" x1="0.719" y1="1.507" x2="1.855" y2="2.528" xlink:href="#linear-gradient-2"/>
    <linearGradient id="linear-gradient-45" x1="-0.05" y1="1.131" x2="1.304" y2="2.133" xlink:href="#linear-gradient-2"/>
    <linearGradient id="linear-gradient-46" x1="0.171" y1="-0.474" x2="0.539" y2="-0.218" xlink:href="#linear-gradient-2"/>
    <linearGradient id="linear-gradient-47" x1="-4.537" y1="-1.618" x2="-4.037" y2="-1.188" xlink:href="#linear-gradient-2"/>
    <linearGradient id="linear-gradient-48" x1="4.366" y1="2.398" x2="5.464" y2="2.398" xlink:href="#linear-gradient-2"/>
    <linearGradient id="linear-gradient-49" x1="3.016" y1="1.737" x2="3.952" y2="1.737" xlink:href="#linear-gradient-2"/>
    <linearGradient id="linear-gradient-50" x1="-3.151" y1="-1.108" x2="-2.486" y2="-0.544" xlink:href="#linear-gradient-2"/>
    <linearGradient id="linear-gradient-51" x1="2.063" y1="1.309" x2="2.876" y2="1.309" xlink:href="#linear-gradient-2"/>
    <linearGradient id="linear-gradient-52" x1="-1.965" y1="-0.505" x2="-1.259" y2="-0.066" xlink:href="#linear-gradient-2"/>
    <linearGradient id="linear-gradient-53" x1="1.344" y1="0.997" x2="2.106" y2="0.997" xlink:href="#linear-gradient-2"/>
    <linearGradient id="linear-gradient-54" x1="-1.287" y1="-0.249" x2="-0.48" y2="0.253" xlink:href="#linear-gradient-2"/>
    <linearGradient id="linear-gradient-55" x1="0.633" y1="0.467" x2="1.351" y2="1.126" xlink:href="#linear-gradient-2"/>
    <linearGradient id="linear-gradient-56" x1="-0.666" y1="-0.062" x2="0.087" y2="0.561" xlink:href="#linear-gradient-2"/>
    <linearGradient id="linear-gradient-57" x1="0.07" y1="0.291" x2="0.652" y2="0.744" xlink:href="#linear-gradient-2"/>
    <linearGradient id="linear-gradient-58" x1="4.615" y1="2.254" x2="3.826" y2="1.295" gradientUnits="objectBoundingBox">
      <stop offset="0" stop-color="#97a03b" stop-opacity="0"/>
      <stop offset="1" stop-color="#575c55"/>
    </linearGradient>
    <linearGradient id="linear-gradient-59" x1="1.08" y1="0.631" x2="0.488" y2="0.66" gradientUnits="objectBoundingBox">
      <stop offset="0" stop-color="#ffb211" stop-opacity="0"/>
      <stop offset="0.169" stop-color="#ffac13" stop-opacity="0.169"/>
      <stop offset="0.384" stop-color="#ff9d1a" stop-opacity="0.384"/>
      <stop offset="0.623" stop-color="#ff8326" stop-opacity="0.624"/>
      <stop offset="0.879" stop-color="#ff5f35" stop-opacity="0.878"/>
      <stop offset="1" stop-color="#ff4b3e"/>
    </linearGradient>
    <linearGradient id="linear-gradient-60" x1="0.643" y1="0.318" x2="0.864" y2="0.459" xlink:href="#linear-gradient"/>
    <linearGradient id="linear-gradient-61" x1="0.76" y1="0.31" x2="0.39" y2="0.31" xlink:href="#linear-gradient-58"/>
    <linearGradient id="linear-gradient-62" x1="0.808" y1="0.22" x2="0.334" y2="0.597" xlink:href="#linear-gradient-58"/>
    <linearGradient id="linear-gradient-63" x1="1.758" y1="0.678" x2="2.142" y2="0.759" xlink:href="#linear-gradient"/>
    <linearGradient id="linear-gradient-64" x1="2.024" y1="0.686" x2="1.361" y2="0.686" xlink:href="#linear-gradient-58"/>
    <linearGradient id="linear-gradient-65" x1="2.073" y1="0.627" x2="1.239" y2="0.841" xlink:href="#linear-gradient-58"/>
  </defs>
  <path id="Path_11890" data-name="Path 11890" d="M6.786,444.45l-1.922-1.922-.188.188a.582.582,0,0,0-.17.416v.065a.581.581,0,0,1-.17.417.789.789,0,0,0,0,1.115l.249.249a.789.789,0,0,0,1.116,0,.582.582,0,0,1,.416-.17h.065a.582.582,0,0,0,.416-.17Zm0,0" transform="translate(-3.936 -424.377)" fill="url(#linear-gradient)"/>
  <path id="Path_11891" data-name="Path 11891" d="M30.214,19.206c-5.207,5.207-10.97,7.886-12.871,5.985s.778-7.664,5.985-12.871S34.3,4.433,36.2,6.335,35.421,14,30.214,19.206Zm0,0" transform="translate(-16.045 -5.488)" fill="url(#linear-gradient-2)"/>
  <path id="Path_11892" data-name="Path 11892" d="M31.648,478.532a3.628,3.628,0,0,0,3.084.805.438.438,0,0,0,.218-.782l-.01-.008a.441.441,0,0,0-.431-.064C33.181,479,32.166,479.05,31.648,478.532Zm0,0" transform="translate(-30.35 -458.83)" fill="url(#linear-gradient-3)"/>
  <path id="Path_11893" data-name="Path 11893" d="M410.166.846a3.628,3.628,0,0,0-3.084-.805.438.438,0,0,0-.218.782l.01.008a.441.441,0,0,0,.431.064c1.328-.514,2.344-.565,2.861-.048Zm0,0" transform="translate(-390.012 0)" fill="url(#linear-gradient-4)"/>
  <path id="Path_11894" data-name="Path 11894" d="M489.556,23.933l.008.01a.438.438,0,0,0,.782-.218,3.628,3.628,0,0,0-.805-3.084c.517.517.466,1.533-.048,2.861A.441.441,0,0,0,489.556,23.933Zm0,0" transform="translate(-469.386 -19.794)" fill="url(#linear-gradient-5)"/>
  <path id="Path_11895" data-name="Path 11895" d="M11.838,395.87l-.008-.01a.438.438,0,0,0-.782.218,3.627,3.627,0,0,0,.805,3.084c-.517-.517-.466-1.533.048-2.861a.441.441,0,0,0-.064-.43Zm0,0" transform="translate(-10.556 -379.459)" fill="url(#linear-gradient-6)"/>
  <path id="Path_11896" data-name="Path 11896" d="M121.474,454.353q-.426.245-.828.449a.588.588,0,0,0,.425,1.089q.524-.144,1.078-.355a.588.588,0,0,0,.138-1.023l-.16-.12A.593.593,0,0,0,121.474,454.353Zm0,0" transform="translate(-115.39 -435.641)" fill="url(#linear-gradient-7)"/>
  <path id="Path_11897" data-name="Path 11897" d="M349.922,8.322q.431-.249.838-.455a.581.581,0,0,0,.077-.99l-.01-.007a.583.583,0,0,0-.493-.091q-.531.146-1.093.36a.582.582,0,0,0-.136,1.012l.175.131a.583.583,0,0,0,.643.039Zm0,0" transform="translate(-334.558 -6.482)" fill="url(#linear-gradient-8)"/>
  <path id="Path_11898" data-name="Path 11898" d="M19.305,338.411l-.12-.16a.588.588,0,0,0-1.023.138q-.211.553-.355,1.078a.588.588,0,0,0,1.089.426q.2-.4.449-.829A.593.593,0,0,0,19.305,338.411Zm0,0" transform="translate(-17.058 -324.148)" fill="url(#linear-gradient-9)"/>
  <path id="Path_11899" data-name="Path 11899" d="M465.353,111.017l.131.175a.582.582,0,0,0,1.012-.136q.214-.561.36-1.094a.583.583,0,0,0-.091-.493l-.007-.01a.581.581,0,0,0-.99.077q-.205.407-.455.838A.583.583,0,0,0,465.353,111.017Zm0,0" transform="translate(-446.153 -104.737)" fill="url(#linear-gradient-10)"/>
  <path id="Path_11900" data-name="Path 11900" d="M40.583,283.864q-.225.4-.422.8a.785.785,0,0,0,.058.8l.009.013a.785.785,0,0,0,1.3-.014q.22-.33.459-.669a.785.785,0,0,0-.025-.936l-.069-.089A.785.785,0,0,0,40.583,283.864Zm0,0" transform="translate(-38.435 -271.835)" fill="url(#linear-gradient-11)"/>
  <path id="Path_11901" data-name="Path 11901" d="M434.52,162.18q.225-.4.422-.8a.785.785,0,0,0-.058-.8l-.009-.013a.785.785,0,0,0-1.3.014q-.22.33-.459.669a.785.785,0,0,0,.025.936l.069.089a.785.785,0,0,0,1.308-.1Zm0,0" transform="translate(-415.217 -153.661)" fill="url(#linear-gradient-12)"/>
  <path id="Path_11902" data-name="Path 11902" d="M172.256,422.108q-.339.24-.669.46a.785.785,0,0,0-.014,1.3l.013.009a.784.784,0,0,0,.8.058q.4-.2.8-.422a.785.785,0,0,0,.1-1.308l-.089-.069A.785.785,0,0,0,172.256,422.108Zm0,0" transform="translate(-164.213 -404.658)" fill="url(#linear-gradient-13)"/>
  <path id="Path_11903" data-name="Path 11903" d="M296.487,29.224l-.013-.009a.784.784,0,0,0-.8-.058q-.4.2-.8.422a.785.785,0,0,0-.1,1.308l.089.069a.786.786,0,0,0,.936.025q.339-.24.669-.459A.785.785,0,0,0,296.487,29.224Zm0,0" transform="translate(-282.394 -27.881)" fill="url(#linear-gradient-14)"/>
  <path id="Path_11904" data-name="Path 11904" d="M244.117,61.337l-.015-.011a.918.918,0,0,0-1.06-.027q-.3.2-.595.412a.915.915,0,0,0-.061,1.446l.052.044a.914.914,0,0,0,1.167.009q.266-.217.53-.424a.913.913,0,0,0-.019-1.449Zm0,0" transform="translate(-232.133 -58.635)" fill="url(#linear-gradient-15)"/>
  <path id="Path_11905" data-name="Path 11905" d="M74.207,231.43l-.044-.053a.915.915,0,0,0-1.446.061q-.213.3-.412.595a.918.918,0,0,0,.027,1.06l.011.015a.913.913,0,0,0,1.449.019q.207-.263.424-.53A.914.914,0,0,0,74.207,231.43Zm0,0" transform="translate(-69.19 -221.575)" fill="url(#linear-gradient-16)"/>
  <path id="Path_11906" data-name="Path 11906" d="M395.666,212.929l.044.052a.915.915,0,0,0,1.446-.061q.213-.3.412-.595a.917.917,0,0,0-.027-1.06l-.011-.015a.913.913,0,0,0-1.449-.019q-.207.263-.424.53A.914.914,0,0,0,395.666,212.929Zm0,0" transform="translate(-379.231 -202.234)" fill="url(#linear-gradient-17)"/>
  <path id="Path_11907" data-name="Path 11907" d="M222.255,386.522l.015.011a.918.918,0,0,0,1.06.027q.3-.2.6-.412a.915.915,0,0,0,.061-1.446l-.053-.044a.914.914,0,0,0-1.167-.009q-.266.217-.53.424a.913.913,0,0,0,.019,1.449Zm0,0" transform="translate(-212.787 -368.674)" fill="url(#linear-gradient-18)"/>
  <path id="Path_11908" data-name="Path 11908" d="M198.318,99.5l-.015-.013a.985.985,0,0,0-1.257,0q-.166.138-.331.279a.986.986,0,0,0-.032,1.468l.024.022a.989.989,0,0,0,1.342.009l.3-.267a.987.987,0,0,0-.026-1.5Zm0,0" transform="translate(-188.316 -95.189)" fill="url(#linear-gradient-19)"/>
  <path id="Path_11909" data-name="Path 11909" d="M112.263,185.7l-.022-.024a.986.986,0,0,0-1.468.032q-.142.166-.279.331a.985.985,0,0,0,0,1.257l.013.015a.987.987,0,0,0,1.5.026q.132-.148.267-.3A.989.989,0,0,0,112.263,185.7Zm0,0" transform="translate(-105.745 -177.76)" fill="url(#linear-gradient-20)"/>
  <path id="Path_11910" data-name="Path 11910" d="M357.858,261.415l.022.024a.986.986,0,0,0,1.468-.032q.142-.166.279-.332a.985.985,0,0,0,0-1.257l-.013-.015a.987.987,0,0,0-1.5-.026l-.267.3A.989.989,0,0,0,357.858,261.415Zm0,0" transform="translate(-342.924 -248.804)" fill="url(#linear-gradient-21)"/>
  <path id="Path_11911" data-name="Path 11911" d="M270.809,348.606l.015.013a.985.985,0,0,0,1.257,0q.166-.138.332-.279a.986.986,0,0,0,.032-1.468l-.024-.022a.989.989,0,0,0-1.342-.009l-.3.267A.987.987,0,0,0,270.809,348.606Zm0,0" transform="translate(-259.359 -332.369)" fill="url(#linear-gradient-22)"/>
  <path id="Path_11912" data-name="Path 11912" d="M151.5,140.5l.217-.215a1.01,1.01,0,0,0-.023-1.456l-.015-.014a1.007,1.007,0,0,0-1.391.013l-.231.229-.229.231a1.007,1.007,0,0,0-.013,1.391l.014.015a1.01,1.01,0,0,0,1.456.023Zm0,0" transform="translate(-143.411 -132.858)" fill="url(#linear-gradient-23)"/>
  <path id="Path_11913" data-name="Path 11913" d="M313.683,302.675l-.217.216a1.01,1.01,0,0,0,.023,1.456l.015.014a1.007,1.007,0,0,0,1.391-.013l.231-.229.229-.231a1.007,1.007,0,0,0,.013-1.391l-.014-.015a1.01,1.01,0,0,0-1.456-.023Zm0,0" transform="translate(-300.323 -289.766)" fill="url(#linear-gradient-24)"/>
  <path id="Path_11914" data-name="Path 11914" d="M470.746,23.022l.119.136a.438.438,0,0,0,.749-.152c.343-1.085.323-1.914-.127-2.365.2.2-.1.856-.774,1.845a.437.437,0,0,0,.033.536Zm0,0" transform="translate(-451.333 -19.794)" fill="url(#linear-gradient-25)"/>
  <path id="Path_11915" data-name="Path 11915" d="M23.886,415.573l-.119-.136a.438.438,0,0,0-.749.152c-.343,1.085-.323,1.914.127,2.365-.2-.2.1-.856.774-1.845A.437.437,0,0,0,23.886,415.573Zm0,0" transform="translate(-21.847 -398.252)" fill="url(#linear-gradient-26)"/>
  <path id="Path_11916" data-name="Path 11916" d="M426.445,12.762l.136.119a.437.437,0,0,0,.536.033c.988-.675,1.649-.969,1.845-.774-.451-.451-1.28-.47-2.364-.127a.438.438,0,0,0-.152.749Zm0,0" transform="translate(-408.808 -11.293)" fill="url(#linear-gradient-27)"/>
  <path id="Path_11917" data-name="Path 11917" d="M34.165,459.857l-.136-.119a.438.438,0,0,0-.536-.033c-.988.674-1.649.969-1.845.774.451.451,1.28.47,2.364.127A.438.438,0,0,0,34.165,459.857Zm0,0" transform="translate(-30.35 -440.776)" fill="url(#linear-gradient-28)"/>
  <path id="Path_11918" data-name="Path 11918" d="M441.471,82.8q.268-.494.476-.951a.583.583,0,0,0-.083-.613l-.116-.139a.581.581,0,0,0-.906.028q-.269.357-.583.751a.583.583,0,0,0,.018.747q.12.137.236.275a.582.582,0,0,0,.958-.1Zm0,0" transform="translate(-422.08 -77.57)" fill="url(#linear-gradient-29)"/>
  <path id="Path_11919" data-name="Path 11919" d="M379.194,26.61l-.139-.116a.583.583,0,0,0-.614-.083q-.457.207-.951.476a.582.582,0,0,0-.1.958q.138.117.275.236a.583.583,0,0,0,.747.018q.393-.313.751-.583a.581.581,0,0,0,.028-.906Zm0,0" transform="translate(-361.715 -25.277)" fill="url(#linear-gradient-30)"/>
  <path id="Path_11920" data-name="Path 11920" d="M92.182,430.789l.131.11a.588.588,0,0,0,.619.084q.452-.205.941-.471a.587.587,0,0,0,.1-.963q-.136-.115-.27-.232a.589.589,0,0,0-.755-.018q-.388.309-.741.575a.587.587,0,0,0-.028.915Zm0,0" transform="translate(-88.203 -411.568)" fill="url(#linear-gradient-31)"/>
  <path id="Path_11921" data-name="Path 11921" d="M37.91,366.565q-.265.488-.47.941a.588.588,0,0,0,.084.619l.11.131a.587.587,0,0,0,.915-.028q.266-.353.575-.741a.589.589,0,0,0-.018-.755q-.117-.135-.232-.27a.587.587,0,0,0-.963.1Zm0,0" transform="translate(-35.853 -351.234)" fill="url(#linear-gradient-32)"/>
  <path id="Path_11922" data-name="Path 11922" d="M403.2,126.5l.193.22a.783.783,0,0,0,1.236-.071q.271-.4.514-.779a.786.786,0,0,0-.062-.921l-.116-.14a.785.785,0,0,0-1.2,0q-.273.323-.566.662A.784.784,0,0,0,403.2,126.5Zm0,0" transform="translate(-386.472 -119.417)" fill="url(#linear-gradient-33)"/>
  <path id="Path_11923" data-name="Path 11923" d="M328.986,56q.339-.293.662-.566a.785.785,0,0,0,0-1.2l-.14-.116a.786.786,0,0,0-.921-.062q-.383.243-.779.514a.783.783,0,0,0-.071,1.236l.22.193A.784.784,0,0,0,328.986,56Zm0,0" transform="translate(-314.034 -51.717)" fill="url(#linear-gradient-34)"/>
  <path id="Path_11924" data-name="Path 11924" d="M136.474,392.181q-.339.293-.662.566a.785.785,0,0,0,0,1.2l.14.116a.786.786,0,0,0,.921.061q.383-.243.779-.514a.783.783,0,0,0,.072-1.236l-.221-.194A.783.783,0,0,0,136.474,392.181Zm0,0" transform="translate(-129.974 -375.911)" fill="url(#linear-gradient-35)"/>
  <path id="Path_11925" data-name="Path 11925" d="M67,316.945l-.194-.221a.783.783,0,0,0-1.236.071q-.271.4-.514.779a.786.786,0,0,0,.061.921l.116.14a.785.785,0,0,0,1.2,0q.273-.323.566-.663A.783.783,0,0,0,67,316.945Zm0,0" transform="translate(-62.272 -303.476)" fill="url(#linear-gradient-36)"/>
  <path id="Path_11926" data-name="Path 11926" d="M183.285,350.667q-.289.266-.572.521a.915.915,0,0,0,.018,1.373l.15.129a.915.915,0,0,0,1.151.032q.314-.241.632-.5a.916.916,0,0,0,.04-1.392l-.183-.167A.915.915,0,0,0,183.285,350.667Zm0,0" transform="translate(-174.931 -336.052)" fill="url(#linear-gradient-37)"/>
  <path id="Path_11927" data-name="Path 11927" d="M101.7,266.7q-.255.318-.5.632a.915.915,0,0,0,.032,1.151l.129.15a.915.915,0,0,0,1.373.018q.255-.282.521-.572a.915.915,0,0,0,0-1.237l-.167-.183A.916.916,0,0,0,101.7,266.7Zm0,0" transform="translate(-96.872 -255.43)" fill="url(#linear-gradient-38)"/>
  <path id="Path_11928" data-name="Path 11928" d="M279.639,90.358l-.15-.129a.915.915,0,0,0-1.151-.032q-.314.241-.632.5a.916.916,0,0,0-.04,1.392l.182.166a.915.915,0,0,0,1.238,0q.289-.266.572-.521a.915.915,0,0,0-.018-1.372Zm0,0" transform="translate(-265.987 -86.317)" fill="url(#linear-gradient-39)"/>
  <path id="Path_11929" data-name="Path 11929" d="M363.233,173.656q.255-.318.5-.632a.915.915,0,0,0-.032-1.151l-.129-.15a.915.915,0,0,0-1.372-.018q-.255.282-.521.572a.915.915,0,0,0,0,1.238l.167.182A.916.916,0,0,0,363.233,173.656Zm0,0" transform="translate(-346.609 -164.374)" fill="url(#linear-gradient-40)"/>
  <path id="Path_11930" data-name="Path 11930" d="M234.115,131.747l-.161-.146a.985.985,0,0,0-1.312-.009q-.193.171-.388.346a.987.987,0,0,0-.024,1.443l.161.156a.988.988,0,0,0,1.371,0l.365-.349A.986.986,0,0,0,234.115,131.747Zm0,0" transform="translate(-222.416 -125.958)" fill="url(#linear-gradient-41)"/>
  <path id="Path_11931" data-name="Path 11931" d="M230.295,311.546l.161.146a.985.985,0,0,0,1.312.009q.194-.171.388-.346a.987.987,0,0,0,.024-1.443l-.161-.156a.988.988,0,0,0-1.371,0l-.365.349A.986.986,0,0,0,230.295,311.546Zm0,0" transform="translate(-220.542 -296.785)" fill="url(#linear-gradient-42)"/>
  <path id="Path_11932" data-name="Path 11932" d="M320.765,221.012l.156.161a.987.987,0,0,0,1.443-.024q.175-.194.346-.388a.985.985,0,0,0-.009-1.312l-.146-.161a.986.986,0,0,0-1.442-.013l-.349.365A.988.988,0,0,0,320.765,221.012Zm0,0" transform="translate(-307.342 -209.987)" fill="url(#linear-gradient-43)"/>
  <path id="Path_11933" data-name="Path 11933" d="M144.543,221.386l-.156-.161a.987.987,0,0,0-1.443.024q-.175.194-.346.388a.985.985,0,0,0,.009,1.312l.146.161a.986.986,0,0,0,1.442.013l.349-.365A.988.988,0,0,0,144.543,221.386Zm0,0" transform="translate(-136.514 -211.861)" fill="url(#linear-gradient-44)"/>
  <path id="Path_11934" data-name="Path 11934" d="M185.961,174.955l.255-.255a1.011,1.011,0,0,0-.009-1.444l-.157-.152a1.008,1.008,0,0,0-1.407.006l-.265.263-.262.264a1.008,1.008,0,0,0-.006,1.407l.152.157a1.011,1.011,0,0,0,1.444.009Zm0,0" transform="translate(-176.288 -165.734)" fill="url(#linear-gradient-45)"/>
  <path id="Path_11935" data-name="Path 11935" d="M274.222,263.217l-.255.255a1.011,1.011,0,0,0,.009,1.444l.157.152a1.008,1.008,0,0,0,1.407-.006l.264-.262.262-.264a1.008,1.008,0,0,0,.006-1.407l-.151-.157a1.011,1.011,0,0,0-1.444-.009Zm0,0" transform="translate(-262.442 -251.889)" fill="url(#linear-gradient-46)"/>
  <path id="Path_11936" data-name="Path 11936" d="M445.984,19.909a.438.438,0,0,0-.061.681q.1.1.2.2t.2.2a.438.438,0,0,0,.681-.061c.593-.894.843-1.49.659-1.674s-.78.066-1.674.659Zm0,0" transform="translate(-427.504 -18.404)" fill="url(#linear-gradient-47)"/>
  <path id="Path_11937" data-name="Path 11937" d="M31.932,435.993a.439.439,0,0,0,.061-.681q-.1-.1-.2-.2t-.2-.2a.439.439,0,0,0-.681.061c-.592.893-.842,1.489-.658,1.674s.78-.066,1.674-.658Zm0,0" transform="translate(-28.96 -416.949)" fill="url(#linear-gradient-48)"/>
  <path id="Path_11938" data-name="Path 11938" d="M61.42,394.861q-.152-.152-.3-.306a.588.588,0,0,0-.884.045q-.323.409-.6.778a.587.587,0,0,0,.047.756q.113.117.229.233t.233.229a.586.586,0,0,0,.756.048q.368-.273.778-.6a.588.588,0,0,0,.045-.885Q61.573,395.013,61.42,394.861Zm0,0" transform="translate(-57.081 -378.199)" fill="url(#linear-gradient-49)"/>
  <path id="Path_11939" data-name="Path 11939" d="M405.8,50.368q.155.155.305.311a.583.583,0,0,0,.877-.044q.326-.414.6-.787a.58.58,0,0,0-.047-.748q-.115-.119-.232-.237t-.237-.233a.58.58,0,0,0-.748-.047q-.372.276-.787.6a.582.582,0,0,0-.044.877q.156.151.311.305Zm0,0" transform="translate(-388.69 -46.48)" fill="url(#linear-gradient-50)"/>
  <path id="Path_11940" data-name="Path 11940" d="M94.4,350.361q-.308.358-.593.7a.784.784,0,0,0,.037,1.048q.138.142.278.283t.283.278a.784.784,0,0,0,1.048.038q.34-.285.7-.593a.785.785,0,0,0,.035-1.158q-.159-.154-.317-.312t-.312-.317a.785.785,0,0,0-1.158.035Zm0,0" transform="translate(-89.788 -335.729)" fill="url(#linear-gradient-51)"/>
  <path id="Path_11941" data-name="Path 11941" d="M363.124,85.149q.308-.358.593-.7a.784.784,0,0,0-.037-1.048q-.138-.142-.278-.283t-.283-.278a.784.784,0,0,0-1.048-.037q-.34.284-.7.593a.785.785,0,0,0-.035,1.159q.159.154.316.312t.312.316A.785.785,0,0,0,363.124,85.149Zm0,0" transform="translate(-346.288 -79.232)" fill="url(#linear-gradient-52)"/>
  <path id="Path_11942" data-name="Path 11942" d="M136.863,303.922q-.165-.165-.327-.33a.915.915,0,0,0-1.328.023q-.283.309-.553.609a.914.914,0,0,0,.024,1.247q.156.16.315.319t.319.315a.914.914,0,0,0,1.247.024q.3-.27.609-.553a.915.915,0,0,0,.023-1.328Q137.027,304.087,136.863,303.922Zm0,0" transform="translate(-128.907 -290.877)" fill="url(#linear-gradient-53)"/>
  <path id="Path_11943" data-name="Path 11943" d="M314.933,125.854q.165.165.327.329a.916.916,0,0,0,1.329-.023q.283-.309.553-.609a.913.913,0,0,0-.024-1.247q-.156-.16-.315-.32t-.32-.315a.913.913,0,0,0-1.247-.024q-.3.271-.609.553a.916.916,0,0,0-.023,1.329Zm0,0" transform="translate(-301.436 -118.35)" fill="url(#linear-gradient-54)"/>
  <path id="Path_11944" data-name="Path 11944" d="M181.3,259.882l-.336-.337a.986.986,0,0,0-1.411.011l-.383.4a.985.985,0,0,0,.011,1.369q.166.169.336.339t.339.336a.985.985,0,0,0,1.369.011l.4-.383a.986.986,0,0,0,.011-1.411Zm0,0" transform="translate(-171.565 -248.62)" fill="url(#linear-gradient-55)"/>
  <path id="Path_11945" data-name="Path 11945" d="M272.635,170.622l.382-.4a.985.985,0,0,0-.011-1.369q-.166-.169-.335-.339t-.339-.335a.985.985,0,0,0-1.369-.011l-.4.382a.986.986,0,0,0-.012,1.411l.337.336.336.337A.986.986,0,0,0,272.635,170.622Zm0,0" transform="translate(-259.174 -161.01)" fill="url(#linear-gradient-56)"/>
  <path id="Path_11946" data-name="Path 11946" d="M222.945,213.911a1.009,1.009,0,0,0,1.422,0l.276-.275.275-.276a1.009,1.009,0,0,0,0-1.422l-.341-.342-.342-.341a1.009,1.009,0,0,0-1.422,0l-.276.275-.276.276a1.009,1.009,0,0,0,0,1.422l.341.342Zm0,0" transform="translate(-212.864 -202.308)" fill="url(#linear-gradient-57)"/>
  <path id="Path_11947" data-name="Path 11947" d="M15.283,444.978a.581.581,0,0,1,.416-.17h.065a.582.582,0,0,0,.416-.17l.188-.188-.279-.279-1.364-1.365-.279-.279-.188.188a.581.581,0,0,0-.161.312v1.881l.07.07a.789.789,0,0,0,1.116,0Zm0,0" transform="translate(-13.519 -424.377)" fill="url(#linear-gradient-58)"/>
  <path id="Path_11948" data-name="Path 11948" d="M20.019,85.98l.015.011a.918.918,0,0,0,1.06.027L21.125,86s-.019-14.958-.03-14.951l-.229.161a.917.917,0,0,0-.241,1.242l-.033.027-.037-.033-.015-.013a.985.985,0,0,0-1.257,0q-.166.138-.331.279a.985.985,0,0,0-.155,1.328l-.016.015a1.006,1.006,0,0,0-1.349.049l-.231.229-.229.231a1.006,1.006,0,0,0-.049,1.349l-.015.016a.985.985,0,0,0-1.328.155q-.142.166-.279.331a.985.985,0,0,0,0,1.257l.013.015.033.037-.027.033A.917.917,0,0,0,14.078,78q-.213.3-.412.6a.917.917,0,0,0,.027,1.06l.011.015a.924.924,0,0,0,.109.122l-.047.07a.785.785,0,0,0-1.066.3q-.225.4-.422.8a.785.785,0,0,0,.058.8l.009.013a.784.784,0,0,0,.17.177l-.054.105a.586.586,0,0,0-.8.318c-.14.369-.259.729-.355,1.078a.592.592,0,0,0,.091.5.581.581,0,0,0,.2.173q-.038.121-.073.239a.435.435,0,0,0-.472.386,3.627,3.627,0,0,0,.805,3.084,3.627,3.627,0,0,0,3.084.805.435.435,0,0,0,.386-.472q.118-.034.239-.073a.581.581,0,0,0,.173.2.591.591,0,0,0,.5.091q.524-.144,1.078-.355a.586.586,0,0,0,.318-.8l.105-.054a.791.791,0,0,0,.177.17l.013.009a.785.785,0,0,0,.8.058q.4-.2.8-.422a.785.785,0,0,0,.3-1.066l.07-.047a.923.923,0,0,0,.122.109Zm-8.218,1.8,0,0,0,0Zm.1.1,0,0,0,0Zm0,0" transform="translate(-10.552 -68.133)" fill="url(#linear-gradient-59)"/>
  <path id="Path_11949" data-name="Path 11949" d="M31.559,263.442s6.671-9.273,17.869-9.274a.485.485,0,0,1,.377.793c-2.691,2.981-12.79,13.406-18.247,8.481Zm0,0" transform="translate(-30.264 -243.743)" fill="url(#linear-gradient-60)"/>
  <path id="Path_11950" data-name="Path 11950" d="M49.805,262.7a.448.448,0,0,0,.084-.462c-6.76.582-18.331,8.943-18.331,8.943,5.456,4.925,15.555-5.5,18.247-8.481Zm0,0" transform="translate(-30.264 -251.482)" fill="url(#linear-gradient-61)"/>
  <path id="Path_11951" data-name="Path 11951" d="M49.806,258.433a.47.47,0,0,0-.03-.644l-.266.251c-9.945,9.486-17.951,8.874-17.951,8.874C37.015,271.839,47.114,261.414,49.806,258.433Zm0,0" transform="translate(-30.265 -247.215)" fill="url(#linear-gradient-62)"/>
  <path id="Path_11952" data-name="Path 11952" d="M1.3,51.149s9.273-6.671,9.274-17.869a.485.485,0,0,0-.793-.377C6.8,35.594-3.623,45.693,1.3,51.149Zm0,0" transform="translate(0 -31.443)" fill="url(#linear-gradient-63)"/>
  <path id="Path_11953" data-name="Path 11953" d="M9.785,32.917a.448.448,0,0,1,.462-.085C9.664,39.593,1.3,51.163,1.3,51.163c-4.925-5.456,5.5-15.555,8.481-18.246Zm0,0" transform="translate(-0.002 -31.457)" fill="url(#linear-gradient-64)"/>
  <path id="Path_11954" data-name="Path 11954" d="M9.784,32.912a.47.47,0,0,1,.644.03l-.251.266C.691,43.153,1.3,51.159,1.3,51.159-3.622,45.7,6.8,35.6,9.784,32.912Zm0,0" transform="translate(-0.001 -31.453)" fill="url(#linear-gradient-65)"/>
</svg>
