<svg id="_x39_6_x2C__Beverage_x2C__Drink_x2C__Glass_x2C__Ice_x2C__Straw" xmlns="http://www.w3.org/2000/svg" width="100" height="100" viewBox="0 0 100 100">
  <g id="Group_16" data-name="Group 16" transform="translate(0 0)">
    <ellipse id="Ellipse_2" data-name="Ellipse 2" cx="1.467" cy="1.467" rx="1.467" ry="1.467" transform="translate(69.349 57.87)" fill="#fef1ed"/>
    <path id="Path_14" data-name="Path 14" d="M98.267,348.134a1.467,1.467,0,1,0-1.467-1.467A1.473,1.473,0,0,0,98.267,348.134Z" transform="translate(-87.983 -276.617)" fill="#fef1ed"/>
    <ellipse id="Ellipse_3" data-name="Ellipse 3" cx="1.467" cy="1.467" rx="1.467" ry="1.467" transform="translate(88.266 86.365)" fill="#fef1ed"/>
    <path id="Path_15" data-name="Path 15" d="M0,0H2.934V2.934H0Z" transform="translate(39.338 42.955) rotate(-135)" fill="#fef1ed"/>
    <path id="Path_16" data-name="Path 16" d="M351.9,377.886l2.071,2.071,2.071-2.071-2.071-2.086Z" transform="translate(-279.718 -300.347)" fill="#fef1ed"/>
    <path id="Path_17" data-name="Path 17" d="M0,0H2.934V2.934H0Z" transform="translate(7.954 49.429) rotate(-135)" fill="#fef1ed"/>
    <path id="Path_18" data-name="Path 18" d="M56,398.286l2.071,2.071,2.071-2.071L58.071,396.2Z" transform="translate(-53.052 -316.436)" fill="#fef1ed"/>
    <path id="Path_19" data-name="Path 19" d="M239.6,186.2h2.934v2.934H239.6Z" transform="translate(-193.375 -151.016)" fill="#fef1ed"/>
    <path id="Path_20" data-name="Path 20" d="M229.4,243.2h2.934v2.934H229.4Z" transform="translate(-185.485 -196.043)" fill="#fef1ed"/>
    <path id="Path_21" data-name="Path 21" d="M135.482,35.342A15.576,15.576,0,0,0,130.4,23.425a18.328,18.328,0,0,0-24.567,0,2,2,0,0,0,0,2.984,2.379,2.379,0,0,0,3.207,0c7.6-7.067,20.6-2.8,21.8,7.067h-4.455a2.119,2.119,0,1,0,0,4.228h4.165c-2.227,8.394-13.185,11.938-20.491,6.446l8.2-10.964a2.108,2.108,0,0,0-1.871-3.316H39.153a2.113,2.113,0,0,0-1.871,3.316L75.5,84.254v21.762H62.784c-4.7,0-8,4.352-6.437,8.456H37.772a2.119,2.119,0,1,0,0,4.228H92.318a6.358,6.358,0,1,0,0-12.684H80.045V84.3l27.418-36.642c10.78,7.793,26.905,1.409,27.952-11.544a1.686,1.686,0,0,0,.067-.767ZM94.589,112.358a2.206,2.206,0,0,1-2.272,2.114H62.784a2.119,2.119,0,1,1,0-4.228H92.318A2.192,2.192,0,0,1,94.589,112.358ZM112.051,34.12l-34.278,45.8L55.679,50.41H80.936a2.119,2.119,0,1,0,0-4.228h-28.4l-1.581-2.114H69.6a2.119,2.119,0,1,0,0-4.228H47.772L43.5,34.12Z" transform="translate(-35.5 -18.7)" fill="#fef1ed"/>
  </g>
</svg>
