<svg xmlns="http://www.w3.org/2000/svg" width="100" height="100" viewBox="0 0 100 100">
  <g id="Group_38" data-name="Group 38" transform="translate(-191.989 -2275.178)">
    <ellipse id="Ellipse_6" data-name="Ellipse 6" cx="1.467" cy="1.467" rx="1.467" ry="1.467" transform="translate(253.556 2281.281)" fill="#fef1ed"/>
    <path id="Path_49" data-name="Path 49" d="M98.267,348.134a1.467,1.467,0,1,0-1.467-1.467A1.473,1.473,0,0,0,98.267,348.134Z" transform="translate(178.936 1994.155)" fill="#fef1ed"/>
    <ellipse id="Ellipse_7" data-name="Ellipse 7" cx="1.467" cy="1.467" rx="1.467" ry="1.467" transform="translate(199.75 2363.717)" fill="#fef1ed"/>
    <ellipse id="Ellipse_8" data-name="Ellipse 8" cx="1.467" cy="1.467" rx="1.467" ry="1.467" transform="translate(286.16 2281.442)" fill="#fef1ed"/>
    <path id="Path_50" data-name="Path 50" d="M351.9,377.886l2.071,2.071,2.071-2.071-2.071-2.086Z" transform="translate(-80.925 1925.901)" fill="#fef1ed"/>
    <path id="Path_62" data-name="Path 62" d="M351.9,377.886l2.071,2.071,2.071-2.071-2.071-2.086Z" transform="translate(-120.93 1899.378)" fill="#fef1ed"/>
    <path id="Path_61" data-name="Path 61" d="M351.9,377.886l2.071,2.071,2.071-2.071-2.071-2.086Z" transform="translate(-159.911 1953.406)" fill="#fef1ed"/>
    <path id="Path_45" data-name="Path 45" d="M0,0H2.934V2.934H0Z" transform="translate(203.08 2281.149) rotate(-135)" fill="#fef1ed"/>
    <path id="Path_51" data-name="Path 51" d="M56,398.286l2.071,2.071,2.071-2.071L58.071,396.2Z" transform="translate(205.462 1969.063)" fill="#fef1ed"/>
    <path id="Path_46" data-name="Path 46" d="M72.554,418.1a.954.954,0,1,0,.954.954A.958.958,0,0,0,72.554,418.1Z" transform="translate(153.705 1898.089)" fill="#fef1ed"/>
    <path id="Path_52" data-name="Path 52" d="M439.954,367.1a.954.954,0,1,0,.954.954A.958.958,0,0,0,439.954,367.1Z" transform="translate(-176.017 1941.818)" fill="#fef1ed"/>
    <path id="Path_53" data-name="Path 53" d="M0,0H1.908V1.908H0Z" transform="translate(250.951 2325.173) rotate(-135)" fill="#fef1ed"/>
    <path id="Path_47" data-name="Path 47" d="M104.584,438.6a2.384,2.384,0,1,0,2.384,2.384A2.382,2.382,0,0,0,104.584,438.6Zm0,2.861a.477.477,0,1,1,.477-.477A.479.479,0,0,1,104.584,441.461Z" transform="translate(185.021 1881.144)" fill="#fef1ed"/>
    <path id="Path_54" data-name="Path 54" d="M140.284,35.169a2.384,2.384,0,1,0-2.384-2.384A2.382,2.382,0,0,0,140.284,35.169Zm0-2.861a.477.477,0,1,1-.477.477A.479.479,0,0,1,140.284,32.308Z" transform="translate(139.437 2334.011)" fill="#fef1ed"/>
    <path id="Path_60" data-name="Path 60" d="M140.284,35.169a2.384,2.384,0,1,0-2.384-2.384A2.382,2.382,0,0,0,140.284,35.169Zm0-2.861a.477.477,0,1,1-.477.477A.479.479,0,0,1,140.284,32.308Z" transform="translate(63.027 2308.58)" fill="#fef1ed"/>
    <path id="Path_48" data-name="Path 48" d="M390.761,418.1a2.861,2.861,0,1,0,2.861,2.861A2.861,2.861,0,0,0,390.761,418.1Zm0,3.824a.954.954,0,1,1,.954-.954A.958.958,0,0,1,390.761,421.924Z" transform="translate(-193.834 1877.819)" fill="#fef1ed"/>
    <g id="trophy" transform="translate(202.525 2283.097)">
      <g id="Group_29" data-name="Group 29" transform="translate(45.418 81.089)">
        <g id="Group_28" data-name="Group 28">
          <path id="Path_55" data-name="Path 55" d="M287.832,452a1.832,1.832,0,1,0,1.832,1.832A1.833,1.833,0,0,0,287.832,452Z" transform="translate(-286 -452)" fill="#fef1ed"/>
        </g>
      </g>
      <g id="Group_31" data-name="Group 31" transform="translate(0)">
        <g id="Group_30" data-name="Group 30">
          <path id="Path_56" data-name="Path 56" d="M119.692,8.273h-5.669V5.4A5.543,5.543,0,0,0,108.355,0H63.006a5.543,5.543,0,0,0-5.669,5.4V8.273H51.669A5.543,5.543,0,0,0,46,13.668c0,11.7,5.752,20.3,15.084,22.693A40.223,40.223,0,0,0,75.761,52.877a5.131,5.131,0,0,1,2.362,4.343v9.909a7.613,7.613,0,0,0-3.454,1.881A6.977,6.977,0,0,0,72.454,74.1h-1.89a5.543,5.543,0,0,0-5.669,5.4V90.283a1.846,1.846,0,0,0,1.89,1.8h37.791a1.846,1.846,0,0,0,1.89-1.8V79.492a5.543,5.543,0,0,0-5.669-5.4h-1.89a7.281,7.281,0,0,0-5.669-6.966v-9.9A5.138,5.138,0,0,1,95.6,52.877a40.222,40.222,0,0,0,14.677-16.517c9.33-2.395,15.082-10.993,15.082-22.692A5.543,5.543,0,0,0,119.692,8.273Zm-69.913,5.4a1.848,1.848,0,0,1,1.89-1.8h5.669v8.039a37.757,37.757,0,0,0,1.941,11.98C53.265,29.054,49.779,22.507,49.779,13.668ZM100.8,77.694a1.848,1.848,0,0,1,1.89,1.8v8.992H68.674V79.492a1.848,1.848,0,0,1,1.89-1.8Zm9.448-57.785a34.471,34.471,0,0,1-3.055,14.208,36.531,36.531,0,0,1-13.7,15.777,8.684,8.684,0,0,0-4.032,7.335V68.7a1.846,1.846,0,0,0,1.89,1.8,3.7,3.7,0,0,1,3.779,3.6h-18.9a3.489,3.489,0,0,1,1.107-2.543A3.845,3.845,0,0,1,79.864,70.5q.073.005.148.005A1.852,1.852,0,0,0,81.9,68.7V57.22a8.678,8.678,0,0,0-4.029-7.326,36.532,36.532,0,0,1-13.7-15.778,34.449,34.449,0,0,1-3.056-14.208V5.4a1.848,1.848,0,0,1,1.89-1.8h45.349a1.848,1.848,0,0,1,1.89,1.8Zm1.839,11.98a37.78,37.78,0,0,0,1.94-11.98V11.87h5.669a1.848,1.848,0,0,1,1.89,1.8C121.582,22.507,118.1,29.054,112.084,31.889Z" transform="translate(-46)" fill="#fef1ed"/>
        </g>
      </g>
      <g id="Group_33" data-name="Group 33" transform="translate(24.956 11.066)">
        <g id="Group_32" data-name="Group 32">
          <path id="Path_57" data-name="Path 57" d="M204.87,70.983a1.831,1.831,0,0,0-1.479-1.247l-7.907-1.148-3.537-7.166a1.832,1.832,0,0,0-3.286,0l-3.537,7.166-7.907,1.148a1.832,1.832,0,0,0-1.016,3.125l5.723,5.577-1.351,7.876a1.832,1.832,0,0,0,2.658,1.931l7.072-3.718,7.073,3.718a1.832,1.832,0,0,0,2.658-1.932l-1.352-7.876,5.722-5.577A1.832,1.832,0,0,0,204.87,70.983Zm-9.434,5.5a1.832,1.832,0,0,0-.527,1.622l.887,5.166-4.64-2.439a1.832,1.832,0,0,0-1.705,0l-4.638,2.439.886-5.166a1.832,1.832,0,0,0-.527-1.622l-3.753-3.658,5.185-.753a1.832,1.832,0,0,0,1.38-1l2.32-4.7,2.32,4.7a1.832,1.832,0,0,0,1.38,1l5.185.753Z" transform="translate(-175.649 -60.4)" fill="#fef1ed"/>
        </g>
      </g>
      <g id="Group_35" data-name="Group 35" transform="translate(30.386 81.089)">
        <g id="Group_34" data-name="Group 34">
          <path id="Path_58" data-name="Path 58" d="M215.161,452h-7.329a1.832,1.832,0,0,0,0,3.664h7.329a1.832,1.832,0,0,0,0-3.664Z" transform="translate(-206 -452)" fill="#fef1ed"/>
        </g>
      </g>
      <g id="Group_37" data-name="Group 37" transform="translate(69.102 86.504)">
        <g id="Group_36" data-name="Group 36">
          <path id="Path_59" data-name="Path 59" d="M410.01,481.638h1.021C410.511,481.535,410.161,481.524,410.01,481.638Z" transform="translate(-410.01 -481.557)" fill="#fef1ed"/>
        </g>
      </g>
    </g>
  </g>
</svg>
