<svg xmlns="http://www.w3.org/2000/svg" width="100" height="100" viewBox="0 0 100 100">
  <g id="Group_23" data-name="Group 23" transform="translate(-537.066 -2159.242)">
    <g id="tray" transform="translate(539.527 2184.264)">
      <g id="Group_20" data-name="Group 20" transform="translate(0 0)">
        <g id="Group_19" data-name="Group 19">
          <path id="Path_26" data-name="Path 26" d="M106.51,254.127a1.424,1.424,0,1,0,2.345,1.616l.027-.041a26.735,26.735,0,0,1,22.311-12,1.424,1.424,0,0,0,0-2.848A29.577,29.577,0,0,0,106.51,254.127Z" transform="translate(-85.475 -204.783)" fill="#fef1ed"/>
          <path id="Path_27" data-name="Path 27" d="M96.015,237.394H86.87v-2.188c.035-11.737-3.991-22.975-11.135-31.077a1.36,1.36,0,0,0-2.155-.014,2.061,2.061,0,0,0-.012,2.562q.027.032.055.063c6.543,7.422,10.231,17.716,10.2,28.466v2.188H13.716v-2.188c.02-21.794,14.878-39.455,33.212-39.479H50.61A28.387,28.387,0,0,1,59,196.994a1.5,1.5,0,0,0,1.9-1.216,1.887,1.887,0,0,0-1.023-2.255c-.037-.013-.074-.025-.112-.034a31.014,31.014,0,0,0-6.422-1.252v-5.569a1.687,1.687,0,0,0-1.524-1.812h-6.1a1.687,1.687,0,0,0-1.524,1.812v5.569c-18.9,1.721-33.5,20.437-33.529,42.968v2.188H1.524a1.839,1.839,0,0,0,0,3.623H96.015a1.839,1.839,0,0,0,0-3.623ZM47.245,188.479h3.048V192.1H47.245Z" transform="translate(0 -166.038)" fill="#fef1ed"/>
          <path id="Path_28" data-name="Path 28" d="M323.324,96.884c1.326,1.183,2.372,2.118,2.372,4.024s-1.047,2.841-2.372,4.032A7.789,7.789,0,0,0,320,111.083a1.424,1.424,0,1,0,2.848,0c0-1.907,1.047-2.841,2.372-4.024a7.351,7.351,0,0,0,0-12.3c-1.326-1.183-2.372-2.118-2.372-4.023s1.047-2.838,2.372-4.022a7.786,7.786,0,0,0,3.324-6.146,1.424,1.424,0,1,0-2.848,0c0,1.9-1.047,2.837-2.372,4.02a7.347,7.347,0,0,0,0,12.3Z" transform="translate(-258.625 -79.144)" fill="#fef1ed"/>
          <path id="Path_29" data-name="Path 29" d="M371.324,96.884c1.326,1.183,2.372,2.118,2.372,4.024s-1.047,2.848-2.372,4.026A7.79,7.79,0,0,0,368,111.083a1.424,1.424,0,1,0,2.848,0c0-1.907,1.047-2.841,2.373-4.024a7.351,7.351,0,0,0,0-12.3c-1.326-1.183-2.373-2.118-2.373-4.023s1.047-2.838,2.373-4.022a7.786,7.786,0,0,0,3.324-6.146,1.424,1.424,0,1,0-2.848,0c0,1.9-1.047,2.837-2.372,4.02a7.347,7.347,0,0,0,0,12.3Z" transform="translate(-297.418 -79.144)" fill="#fef1ed"/>
          <path id="Path_30" data-name="Path 30" d="M419.324,96.884c1.326,1.183,2.373,2.118,2.373,4.024s-1.047,2.848-2.373,4.026A7.789,7.789,0,0,0,416,111.083a1.424,1.424,0,0,0,2.848,0c0-1.907,1.047-2.841,2.373-4.024a7.351,7.351,0,0,0,0-12.3c-1.326-1.183-2.373-2.118-2.373-4.023s1.047-2.838,2.373-4.022a7.786,7.786,0,0,0,3.324-6.146,1.424,1.424,0,1,0-2.848,0c0,1.9-1.047,2.837-2.373,4.02a7.347,7.347,0,0,0,0,12.3Z" transform="translate(-335.55 -79.144)" fill="#fef1ed"/>
        </g>
      </g>
    </g>
    <ellipse id="Ellipse_6" data-name="Ellipse 6" cx="1.467" cy="1.467" rx="1.467" ry="1.467" transform="translate(595.027 2163.523)" fill="#fef1ed"/>
    <path id="Path_49" data-name="Path 49" d="M98.267,348.134a1.467,1.467,0,1,0-1.467-1.467A1.473,1.473,0,0,0,98.267,348.134Z" transform="translate(510.526 1877.538)" fill="#fef1ed"/>
    <ellipse id="Ellipse_7" data-name="Ellipse 7" cx="1.467" cy="1.467" rx="1.467" ry="1.467" transform="translate(542.75 2247.684)" fill="#fef1ed"/>
    <path id="Path_50" data-name="Path 50" d="M351.9,377.886l2.071,2.071,2.071-2.071-2.071-2.086Z" transform="translate(260.089 1808.62)" fill="#fef1ed"/>
    <path id="Path_45" data-name="Path 45" d="M0,0H2.934V2.934H0Z" transform="translate(546.08 2163.391) rotate(-135)" fill="#fef1ed"/>
    <path id="Path_51" data-name="Path 51" d="M56,398.286l2.071,2.071,2.071-2.071L58.071,396.2Z" transform="translate(546.715 1853.03)" fill="#fef1ed"/>
    <path id="Path_46" data-name="Path 46" d="M72.554,418.1a.954.954,0,1,0,.954.954A.958.958,0,0,0,72.554,418.1Z" transform="translate(495.887 1781.052)" fill="#fef1ed"/>
    <path id="Path_52" data-name="Path 52" d="M439.954,367.1a.954.954,0,1,0,.954.954A.958.958,0,0,0,439.954,367.1Z" transform="translate(165.238 1824.653)" fill="#fef1ed"/>
    <path id="Path_53" data-name="Path 53" d="M0,0H1.908V1.908H0Z" transform="translate(592.524 2208.254) rotate(-135)" fill="#fef1ed"/>
    <path id="Path_47" data-name="Path 47" d="M104.584,438.6a2.384,2.384,0,1,0,2.384,2.384A2.382,2.382,0,0,0,104.584,438.6Zm0,2.861a.477.477,0,1,1,.477-.477A.479.479,0,0,1,104.584,441.461Z" transform="translate(467.61 1770.193)" fill="#fef1ed"/>
    <path id="Path_54" data-name="Path 54" d="M140.284,35.169a2.384,2.384,0,1,0-2.384-2.384A2.382,2.382,0,0,0,140.284,35.169Zm0-2.861a.477.477,0,1,1-.477.477A.479.479,0,0,1,140.284,32.308Z" transform="translate(471.027 2217.978)" fill="#fef1ed"/>
    <path id="Path_48" data-name="Path 48" d="M390.761,418.1a2.861,2.861,0,1,0,2.861,2.861A2.861,2.861,0,0,0,390.761,418.1Zm0,3.824a.954.954,0,1,1,.954-.954A.958.958,0,0,1,390.761,421.924Z" transform="translate(149.166 1760.441)" fill="#fef1ed"/>
  </g>
</svg>
