<svg id="Group_22" data-name="Group 22" xmlns="http://www.w3.org/2000/svg" width="100" height="100" viewBox="0 0 100 100">
  <g id="chef" transform="translate(5.678 2.017)">
    <g id="Group_18" data-name="Group 18" transform="translate(0 0)">
      <g id="Group_17" data-name="Group 17">
        <path id="Path_22" data-name="Path 22" d="M109.672,214.836a1.5,1.5,0,1,0-3.006,0c0,3.946,4.353,9.365,4.849,9.971a1.5,1.5,0,1,0,2.325-1.908C112.228,220.935,109.672,217.011,109.672,214.836Z" transform="translate(-84.988 -165.577)" fill="#fef1ed"/>
        <path id="Path_23" data-name="Path 23" d="M315.348,213.333a1.5,1.5,0,0,0-1.5,1.5c0,2.168-2.557,6.1-4.168,8.064A1.5,1.5,0,0,0,312,224.807c.5-.606,4.849-6.024,4.849-9.971A1.5,1.5,0,0,0,315.348,213.333Z" transform="translate(-246.47 -165.577)" fill="#fef1ed"/>
        <path id="Path_24" data-name="Path 24" d="M225.5,213.333a1.5,1.5,0,0,0-1.5,1.5v9.017a1.5,1.5,0,0,0,3.006,0v-9.017A1.5,1.5,0,0,0,225.5,213.333Z" transform="translate(-179.473 -165.577)" fill="#fef1ed"/>
        <path id="Path_25" data-name="Path 25" d="M69.044,8.908a20.64,20.64,0,0,0-3.969.451,24.06,24.06,0,0,0-38.092,0,20.66,20.66,0,0,0-3.969-.451C10.324,8.908,0,19.9,0,33.4a24.7,24.7,0,0,0,12.6,21.83l-.041,33.654a9.332,9.332,0,0,0,2.5,6.431,8.226,8.226,0,0,0,6.04,2.666H70.969A8.833,8.833,0,0,0,79.505,88.9V55.2A24.715,24.715,0,0,0,92.059,33.4C92.059,19.9,81.734,8.908,69.044,8.908ZM75.321,88.9a4.505,4.505,0,0,1-4.352,4.632H21.1a4.2,4.2,0,0,1-3.079-1.359,4.757,4.757,0,0,1-1.273-3.279l.011-8.723H75.321Zm1.3-37.164a1.837,1.837,0,0,0-.313.172,2.12,2.12,0,0,0-.642.67,2.357,2.357,0,0,0-.341,1.268V75.714H16.762l.027-21.841a2.439,2.439,0,0,0-.02-.365,2.32,2.32,0,0,0-.331-.922,2.111,2.111,0,0,0-.95-.827A20.121,20.121,0,0,1,4.184,33.4c0-11.052,8.447-20.042,18.83-20.042.406,0,.834.052,1.255.087a27.85,27.85,0,0,0-3.347,13.274,2.1,2.1,0,1,0,4.185,0c0-12.278,9.386-22.269,20.923-22.269s20.922,9.991,20.922,22.269a2.1,2.1,0,1,0,4.185,0,27.851,27.851,0,0,0-3.347-13.274c.42-.035.849-.087,1.255-.087,10.384,0,18.83,8.99,18.83,20.042A20.133,20.133,0,0,1,76.616,51.734Z" transform="translate(0 0)" fill="#fef1ed"/>
      </g>
    </g>
  </g>
  <ellipse id="Ellipse_4" data-name="Ellipse 4" cx="1.467" cy="1.467" rx="1.467" ry="1.467" transform="translate(73.881 4.281)" fill="#fef1ed"/>
  <path id="Path_31" data-name="Path 31" d="M98.267,348.134a1.467,1.467,0,1,0-1.467-1.467A1.473,1.473,0,0,0,98.267,348.134Z" transform="translate(-5.236 -284.639)" fill="#fef1ed"/>
  <ellipse id="Ellipse_5" data-name="Ellipse 5" cx="1.467" cy="1.467" rx="1.467" ry="1.467" transform="translate(5.684 79.742)" fill="#fef1ed"/>
  <path id="Path_32" data-name="Path 32" d="M351.9,377.886l2.071,2.071,2.071-2.071-2.071-2.086Z" transform="translate(-256.042 -351.808)" fill="#fef1ed"/>
  <path id="Path_33" data-name="Path 33" d="M0,0H2.934V2.934H0Z" transform="translate(9.013 4.149) rotate(-135)" fill="#fef1ed"/>
  <path id="Path_34" data-name="Path 34" d="M56,398.286l2.071,2.071,2.071-2.071L58.071,396.2Z" transform="translate(31.202 -309.225)" fill="#fef1ed"/>
  <path id="Path_37" data-name="Path 37" d="M72.554,418.1a.954.954,0,1,0,.954.954A.958.958,0,0,0,72.554,418.1Z" transform="translate(-32.943 -380.006)" fill="#fef1ed"/>
  <path id="Path_38" data-name="Path 38" d="M439.954,367.1a.954.954,0,1,0,.954.954A.958.958,0,0,0,439.954,367.1Z" transform="translate(-350.274 -336.069)" fill="#fef1ed"/>
  <path id="Path_41" data-name="Path 41" d="M0,0H1.908V1.908H0Z" transform="translate(70.271 46.879) rotate(-135)" fill="#fef1ed"/>
  <path id="Path_42" data-name="Path 42" d="M104.584,438.6a2.384,2.384,0,1,0,2.384,2.384A2.382,2.382,0,0,0,104.584,438.6Zm0,2.861a.477.477,0,1,1,.477-.477A.479.479,0,0,1,104.584,441.461Z" transform="translate(-60.224 -391.406)" fill="#fef1ed"/>
  <path id="Path_43" data-name="Path 43" d="M140.284,35.169a2.384,2.384,0,1,0-2.384-2.384A2.382,2.382,0,0,0,140.284,35.169Zm0-2.861a.477.477,0,1,1-.477.477A.479.479,0,0,1,140.284,32.308Z" transform="translate(-44.932 55.722)" fill="#fef1ed"/>
  <path id="Path_44" data-name="Path 44" d="M390.761,418.1a2.861,2.861,0,1,0,2.861,2.861A2.861,2.861,0,0,0,390.761,418.1Zm0,3.824a.954.954,0,1,1,.954-.954A.958.958,0,0,1,390.761,421.924Z" transform="translate(-387.9 -399.733)" fill="#fef1ed"/>
</svg>
