<svg id="egg" xmlns="http://www.w3.org/2000/svg" width="25.222" height="21.531" viewBox="0 0 25.222 21.531">
  <path id="Path_11690" data-name="Path 11690" d="M195.4,50.792a8.2,8.2,0,1,1-16.4,0c0-4.524,3.69-13.329,8.213-13.329S195.4,46.268,195.4,50.792Z" transform="translate(-170.174 -37.463)" fill="#fcd0a3"/>
  <path id="Path_11691" data-name="Path 11691" d="M192.026,72.106a20.757,20.757,0,0,1,1.911,7.721,9.07,9.07,0,0,1-5.8,8.457,1.026,1.026,0,0,1-1.261-1.465,9.686,9.686,0,0,0,1.237-4.749,21.182,21.182,0,0,0-2.581-9.087,17.031,17.031,0,0,0-1.707-2.621c-2.848,2.758-4.836,8.387-4.836,11.708a8.2,8.2,0,1,0,16.4,0A20.151,20.151,0,0,0,192.026,72.106Z" transform="translate(-170.175 -68.741)" fill="#ffb983"/>
  <path id="Path_11692" data-name="Path 11692" d="M16.4,50.792a8.2,8.2,0,1,1-16.4,0c0-4.524,3.69-13.329,8.213-13.329S16.4,46.268,16.4,50.792Z" transform="translate(0 -37.463)" fill="#f1faff"/>
  <path id="Path_11693" data-name="Path 11693" d="M71.431,105.76a20.757,20.757,0,0,1,1.911,7.721,9.054,9.054,0,0,1-11.919,8.6A8.194,8.194,0,0,0,74.8,115.724,20.151,20.151,0,0,0,71.431,105.76Z" transform="translate(-58.397 -102.396)" fill="#c7eefb"/>
  <ellipse id="Ellipse_56" data-name="Ellipse 56" cx="4.614" cy="4.614" rx="4.614" ry="4.614" transform="translate(3.6 8.971)" fill="#fdf3ac"/>
  <path id="Path_11694" data-name="Path 11694" d="M93.049,233.214a4.615,4.615,0,0,1-6.341,6.341,4.614,4.614,0,1,0,6.341-6.341Z" transform="translate(-82.437 -223.571)" fill="#fcee56"/>
</svg>
