<svg id="file" xmlns="http://www.w3.org/2000/svg" width="11.087" height="13.623" viewBox="0 0 11.087 13.623">
  <g id="Group_1888" data-name="Group 1888">
    <g id="Group_1887" data-name="Group 1887">
      <path id="Path_11374" data-name="Path 11374" d="M72.654,0H67.816a.323.323,0,0,0-.132.09l-4.652,4.2a.286.286,0,0,0-.079.138v.036a.27.27,0,0,0,0,.036l-.02,7.88A1.315,1.315,0,0,0,64.3,13.623h8.355a1.315,1.315,0,0,0,1.366-1.242V1.242A1.309,1.309,0,0,0,72.654,0ZM65.837,2.611l1.755-1.584V3.583a.684.684,0,0,1-.713.642H64.061ZM73.36,1.242V12.381a.683.683,0,0,1-.706.642H64.306a.683.683,0,0,1-.713-.642V4.825h3.3a1.315,1.315,0,0,0,1.366-1.242v-3h4.4a.675.675,0,0,1,.7.648S73.36,1.238,73.36,1.242Z" transform="translate(-62.933 0)" fill="#999fb9"/>
    </g>
  </g>
  <g id="Group_1890" data-name="Group 1890" transform="translate(2.189 6.298)">
    <g id="Group_1889" data-name="Group 1889">
      <path id="Path_11375" data-name="Path 11375" d="M132.4,220.8h-.513a.257.257,0,0,0-.257.257v.513a.257.257,0,0,0,.257.257h.513a.257.257,0,0,0,.257-.257v-.513A.257.257,0,0,0,132.4,220.8Z" transform="translate(-131.627 -220.8)" fill="#999fb9"/>
    </g>
  </g>
  <g id="Group_1892" data-name="Group 1892" transform="translate(4.804 6.549)">
    <g id="Group_1891" data-name="Group 1891">
      <rect id="Rectangle_214" data-name="Rectangle 214" width="3.787" height="0.513" fill="#999fb9"/>
    </g>
  </g>
  <g id="Group_1894" data-name="Group 1894" transform="translate(2.189 8.545)">
    <g id="Group_1893" data-name="Group 1893">
      <path id="Path_11376" data-name="Path 11376" d="M132.4,299.52h-.513a.257.257,0,0,0-.257.257v.523a.257.257,0,0,0,.257.257h.513a.257.257,0,0,0,.257-.257v-.523A.257.257,0,0,0,132.4,299.52Z" transform="translate(-131.627 -299.52)" fill="#999fb9"/>
    </g>
  </g>
  <g id="Group_1896" data-name="Group 1896" transform="translate(4.804 8.79)">
    <g id="Group_1895" data-name="Group 1895">
      <rect id="Rectangle_215" data-name="Rectangle 215" width="3.787" height="0.513" fill="#999fb9"/>
    </g>
  </g>
  <g id="Group_1898" data-name="Group 1898" transform="translate(2.189 11.083)">
    <g id="Group_1897" data-name="Group 1897">
      <path id="Path_11377" data-name="Path 11377" d="M132.4,378.667h-.513a.257.257,0,0,0-.257.257v.513a.257.257,0,0,0,.257.257h.513a.257.257,0,0,0,.257-.257v-.513A.257.257,0,0,0,132.4,378.667Z" transform="translate(-131.627 -378.667)" fill="#999fb9"/>
    </g>
  </g>
  <g id="Group_1900" data-name="Group 1900" transform="translate(4.804 11.334)">
    <g id="Group_1899" data-name="Group 1899">
      <rect id="Rectangle_216" data-name="Rectangle 216" width="3.787" height="0.513" fill="#999fb9"/>
    </g>
  </g>
</svg>
