<svg id="star" xmlns="http://www.w3.org/2000/svg" width="16.449" height="15.686" viewBox="0 0 16.449 15.686">
  <path id="Path_6" data-name="Path 6" d="M16.061,17.544l-5.328-.494L8.617,12.135a.427.427,0,0,0-.784,0L5.716,17.049l-5.328.494a.427.427,0,0,0-.242.746l4.02,3.532-1.176,5.22a.427.427,0,0,0,.634.461l4.6-2.732,4.6,2.732a.427.427,0,0,0,.635-.461l-1.176-5.22,4.02-3.532A.427.427,0,0,0,16.061,17.544Z" transform="translate(0 -11.877)" fill="#ffdc64"/>
  <path id="Path_7" data-name="Path 7" d="M8.617,12.135a.427.427,0,0,0-.784,0L5.716,17.049l-5.328.494a.427.427,0,0,0-.242.746l4.02,3.532-1.176,5.22a.427.427,0,0,0,.634.461l1.027-.61A18.831,18.831,0,0,1,9.663,14.565Z" transform="translate(0 -11.877)" fill="#ffc850"/>
</svg>
