<svg id="like_1_" data-name="like (1)" xmlns="http://www.w3.org/2000/svg" width="15" height="15" viewBox="0 0 15 15">
  <g id="Group_2" data-name="Group 2">
    <path id="Path_2" data-name="Path 2" d="M11.016,30a3.3,3.3,0,0,0-2.218.868,5.635,5.635,0,0,0-1.3,1.768,5.635,5.635,0,0,0-1.3-1.768A3.3,3.3,0,0,0,3.984,30C1.713,30,0,32.1,0,34.9c0,3.015,2.137,5.078,5.372,8.2.549.53,1.172,1.131,1.819,1.773a.428.428,0,0,0,.617,0c.647-.641,1.27-1.242,1.82-1.773C12.863,39.973,15,37.91,15,34.9,15,32.1,13.287,30,11.016,30Z" transform="translate(0 -30)" fill="#7dd87d"/>
  </g>
</svg>
