<svg xmlns="http://www.w3.org/2000/svg" width="13.732" height="13.731" viewBox="0 0 13.732 13.731">
  <path id="Icon_awesome-linkedin-in" data-name="Icon awesome-linkedin-in" d="M3.074,13.732H.227V4.564H3.074ZM1.649,3.314A1.657,1.657,0,1,1,3.3,1.649,1.663,1.663,0,0,1,1.649,3.314Zm12.08,10.418H10.888V9.269c0-1.064-.021-2.428-1.48-2.428C7.928,6.842,7.7,8,7.7,9.193v4.539H4.857V4.564h2.73V5.815h.04a2.991,2.991,0,0,1,2.694-1.48c2.881,0,3.411,1.9,3.411,4.362v5.036Z" transform="translate(0 0)" fill="#0077b5"/>
</svg>
