<svg id="pasta" xmlns="http://www.w3.org/2000/svg" width="21.27" height="21.269" viewBox="0 0 21.27 21.269">
  <path id="Path_11988" data-name="Path 11988" d="M4.427.014A.665.665,0,0,0,3.74.337L3,1.609.639,1.7a.665.665,0,0,0-.624.805A3.167,3.167,0,0,0,3.055,4.974l3.084.063a.665.665,0,0,0,.633-.424A4.514,4.514,0,0,0,7.06,3.471,3.173,3.173,0,0,0,4.427.014Z" transform="translate(0 -0.004)" fill="#f9e8a2"/>
  <path id="Path_11989" data-name="Path 11989" d="M48.012,87.047l-2.935-.06a.663.663,0,0,0-.578.314,3.1,3.1,0,0,0,2.612,4.751l3.1.063a.665.665,0,0,0,.62-.424A3.224,3.224,0,0,0,48.012,87.047Z" transform="translate(-42.179 -83.373)" fill="#fee67b"/>
  <path id="Path_11990" data-name="Path 11990" d="M93.248,176.327l-2.935-.06a.665.665,0,0,0-.578.314,3.1,3.1,0,0,0,2.612,4.751l3.084.063a.665.665,0,0,0,.633-.424A3.224,3.224,0,0,0,93.248,176.327Z" transform="translate(-85.536 -168.945)" fill="#eed572"/>
  <path id="Path_11991" data-name="Path 11991" d="M141.366,267.885a3.176,3.176,0,0,0-3-2.276l-2.935-.06a.664.664,0,0,0-.578.314,3.028,3.028,0,0,0,1.774,4.586.665.665,0,0,0,.571-.324l.828-1.387h2.7A.665.665,0,0,0,141.366,267.885Z" transform="translate(-128.779 -254.518)" fill="#fee67b"/>
  <path id="Path_11992" data-name="Path 11992" d="M142.684,306.264a14.461,14.461,0,0,1-3.308,1.079,3.142,3.142,0,0,0,1.827,1.8.665.665,0,0,0,.806-.281l.828-1.387h2.7a.665.665,0,0,0,.637-.853,3.2,3.2,0,0,0-.209-.526,6.077,6.077,0,0,0-3.28.17Z" transform="translate(-133.586 -293.254)" fill="#f9e8a2"/>
  <path id="Path_11993" data-name="Path 11993" d="M96.091,178.392a3.193,3.193,0,0,0-2.923-2.065l-2.948-.06a.665.665,0,0,0-.565.314,3.034,3.034,0,0,0-.481,1.934,6.508,6.508,0,0,0,1.946-.639A5.23,5.23,0,0,1,96.091,178.392Z" transform="translate(-85.455 -168.944)" fill="#feeb95"/>
  <path id="Path_11994" data-name="Path 11994" d="M51.056,89.936a3.184,3.184,0,0,0-3.11-2.89l-2.935-.06a.663.663,0,0,0-.578.314,3.021,3.021,0,0,0-.469,2.038A4.994,4.994,0,0,0,47,89.183C48.028,88.786,49.631,89.29,51.056,89.936Z" transform="translate(-42.112 -83.373)" fill="#eed572"/>
  <path id="Path_11995" data-name="Path 11995" d="M6.67,1.587A3.186,3.186,0,0,0,4.427.014.665.665,0,0,0,3.74.337L3,1.609.639,1.7a.665.665,0,0,0-.624.805,3.075,3.075,0,0,0,.258.727,2.235,2.235,0,0,0,2.514-.177C4.867,1.528,3.894.046,6.394,1.44c.095.053.187.1.276.148Z" transform="translate(0 -0.004)" fill="#fee67b"/>
  <path id="Path_11996" data-name="Path 11996" d="M306.846,21.567l-3.214-.123-1.02-1.766a.665.665,0,0,0-.686-.323,3.952,3.952,0,0,0-3.281,4.306,5.71,5.71,0,0,0,.365,1.444.665.665,0,0,0,.633.424l4.042-.082a3.945,3.945,0,0,0,3.786-3.073A.665.665,0,0,0,306.846,21.567Z" transform="translate(-286.216 -18.542)" fill="#eed572"/>
  <g id="Group_2541" data-name="Group 2541" transform="translate(5.151 5.539)">
    <path id="Path_11997" data-name="Path 11997" d="M247.67,133.654a.666.666,0,0,0-.578-.314l-3.846.078a3.96,3.96,0,0,0-3.869,4.362,5.713,5.713,0,0,0,.365,1.444.665.665,0,0,0,.62.424l4.056-.082A3.853,3.853,0,0,0,247.67,133.654Z" transform="translate(-234.562 -133.34)" fill="#fee67b"/>
    <path id="Path_11998" data-name="Path 11998" d="M188.407,250.663a.667.667,0,0,0-.578-.314l-3.846.078a3.96,3.96,0,0,0-3.869,4.362,5.713,5.713,0,0,0,.365,1.444.665.665,0,0,0,.62.424l4.056-.082A3.851,3.851,0,0,0,188.407,250.663Z" transform="translate(-177.761 -245.489)" fill="#fee67b"/>
    <path id="Path_11999" data-name="Path 11999" d="M132.185,367.669a.664.664,0,0,0-.578-.314l-3.846.078a3.978,3.978,0,0,0-3.732,2.835.665.665,0,0,0,.637.853h3.654l1.145,1.918a.665.665,0,0,0,.806.281A3.809,3.809,0,0,0,132.185,367.669Z" transform="translate(-124.001 -357.634)" fill="#fee67b"/>
  </g>
  <path id="Path_12000" data-name="Path 12000" d="M252.906,135.714c2.18.44,4.017,1.676,5.542,1.788a3.718,3.718,0,0,0-.156-3.849.666.666,0,0,0-.578-.314l-3.846.078a3.985,3.985,0,0,0-3.431,2.105A8.2,8.2,0,0,1,252.906,135.714Z" transform="translate(-240.033 -127.801)" fill="#feeb95"/>
  <path id="Path_12001" data-name="Path 12001" d="M190.807,250.35l-3.846.078a3.974,3.974,0,0,0-3.763,2.953,4.808,4.808,0,0,0,4.23-.171,4.917,4.917,0,0,1,4.559-.156,3.781,3.781,0,0,0-.6-2.39A.667.667,0,0,0,190.807,250.35Z" transform="translate(-175.588 -239.95)" fill="#eed572"/>
  <path id="Path_12002" data-name="Path 12002" d="M136.576,367.356l-3.846.078a3.976,3.976,0,0,0-3.544,2.335,18.7,18.7,0,0,0,1.9-.4c2.618-.687,5.041.7,6.435,1.69a3.714,3.714,0,0,0-.369-3.388A.664.664,0,0,0,136.576,367.356Z" transform="translate(-123.819 -352.096)" fill="#eed572"/>
  <path id="Path_12003" data-name="Path 12003" d="M311.493,21.567l-3.214-.123-1.02-1.766a.665.665,0,0,0-.686-.323,3.97,3.97,0,0,0-3.1,2.649c1.6-.22,4.8-.474,5.856.816.5.608.936,1.269,1.315,1.835a3.886,3.886,0,0,0,1.478-2.282A.665.665,0,0,0,311.493,21.567Z" transform="translate(-290.863 -18.542)" fill="#fee67b"/>
</svg>
