<svg xmlns="http://www.w3.org/2000/svg" width="11.77" height="15.298" viewBox="0 0 11.77 15.298">
  <path id="Icon_awesome-pinterest-p" data-name="Icon awesome-pinterest-p" d="M6.253.457C3.108.457,0,2.554,0,5.947,0,8.1,1.214,9.33,1.949,9.33c.3,0,.478-.846.478-1.085,0-.285-.726-.892-.726-2.078A4.142,4.142,0,0,1,6,1.956c2.087,0,3.632,1.186,3.632,3.365,0,1.628-.653,4.68-2.768,4.68A1.361,1.361,0,0,1,5.453,8.659c0-1.159.809-2.28.809-3.476,0-2.029-2.878-1.661-2.878.791a3.6,3.6,0,0,0,.294,1.554c-.423,1.821-1.287,4.533-1.287,6.409,0,.579.083,1.149.138,1.729.1.116.052.1.211.046,1.545-2.115,1.49-2.529,2.188-5.3a2.486,2.486,0,0,0,2.124,1.1c3.255,0,4.717-3.172,4.717-6.032C11.77,2.443,9.14.457,6.253.457Z" transform="translate(0 -0.457)" fill="#e00018"/>
</svg>
