<svg id="right-quotation-mark" xmlns="http://www.w3.org/2000/svg" width="35.116" height="29.714" viewBox="0 0 35.116 29.714">
  <g id="Group_2125" data-name="Group 2125">
    <path id="Path_11414" data-name="Path 11414" d="M4.052,66.261h8.1a4.035,4.035,0,0,0,4.052-4.052v-8.1a4.035,4.035,0,0,0-4.052-4.052H7.428A2.017,2.017,0,0,1,5.4,48.027v-.675a5.205,5.205,0,0,1,1.583-3.82,5.206,5.206,0,0,1,3.82-1.582h1.35A1.37,1.37,0,0,0,13.506,40.6V37.9a1.37,1.37,0,0,0-1.351-1.351H10.805a10.529,10.529,0,0,0-4.189.855A10.7,10.7,0,0,0,.855,43.163,10.526,10.526,0,0,0,0,47.352V62.209a3.907,3.907,0,0,0,1.182,2.87A3.908,3.908,0,0,0,4.052,66.261Z" transform="translate(18.909 -36.547)" fill="#d6d8e4"/>
    <path id="Path_11415" data-name="Path 11415" d="M257,65.079a3.907,3.907,0,0,0,2.87,1.182h8.1a4.034,4.034,0,0,0,4.052-4.052v-8.1a4.034,4.034,0,0,0-4.052-4.052h-4.727a2.017,2.017,0,0,1-2.026-2.026v-.675a5.4,5.4,0,0,1,5.4-5.4h1.351a1.37,1.37,0,0,0,1.351-1.351V37.9a1.37,1.37,0,0,0-1.351-1.351h-1.351a10.53,10.53,0,0,0-4.189.855,10.7,10.7,0,0,0-5.761,5.761,10.526,10.526,0,0,0-.855,4.189V62.209A3.906,3.906,0,0,0,257,65.079Z" transform="translate(-255.817 -36.547)" fill="#d6d8e4"/>
  </g>
</svg>
