<svg xmlns="http://www.w3.org/2000/svg" width="54" height="54" viewBox="0 0 54 54">
  <g id="send-mail" transform="translate(0 0)">
    <path id="Path_11663" data-name="Path 11663" d="M119.925,39V55.636a1.607,1.607,0,0,0,2.884.948l8.232-10.834,2.509-1.269L160.722,6.553l.505-2.949-4.415,2.409-36.9,31.621Z" transform="translate(-107.799 -3.219)" fill="#fe9923"/>
    <path id="Path_11664" data-name="Path 11664" d="M51.8.128C51.732.157.942,25.988.873,26.023a1.614,1.614,0,0,0-.122,2.8l11.9,7.42L53.427.389h0A1.516,1.516,0,0,0,51.8.128Z" transform="translate(0 0)" fill="#fedb41"/>
    <path id="Path_11665" data-name="Path 11665" d="M254.3,3.682c-.023-.022-.031-.057-.055-.078l-.314.439L224.062,45.751,242.55,56.983a1.607,1.607,0,0,0,2.415-1.055l9.83-50.83A1.562,1.562,0,0,0,254.3,3.682Z" transform="translate(-200.82 -3.219)" fill="#fc3"/>
  </g>
</svg>
