<svg xmlns="http://www.w3.org/2000/svg" xmlns:xlink="http://www.w3.org/1999/xlink" width="120" height="100" viewBox="0 0 120 100">
  <defs>
    <clipPath id="clip-path">
      <rect id="Rectangle_1112" data-name="Rectangle 1112" width="120" height="100" transform="translate(186 882)" fill="#fff"/>
    </clipPath>
  </defs>
  <g id="Mask_Group_19" data-name="Mask Group 19" transform="translate(-186 -882)" clip-path="url(#clip-path)">
    <g id="Flat" transform="translate(213 897.046)">
      <g id="Stroke_copy_2" data-name="Stroke copy 2" transform="translate(0 0)">
        <g id="Group_5309" data-name="Group 5309">
          <g id="Group_5304" data-name="Group 5304" transform="translate(3.828)">
            <path id="Path_14711" data-name="Path 14711" d="M27.1,22.985H22V12.778a2.552,2.552,0,0,1,1.136-2.123L34.62,3l2.83,4.246L27.1,14.143Z" transform="translate(-5.414 -3)" fill="#f9e109"/>
            <path id="Path_14712" data-name="Path 14712" d="M37.451,6.829,27.1,13.719v8.842H22V12.354a2.544,2.544,0,0,1,1.136-2.118l1.289-.868a6.826,6.826,0,0,0,6.15-.957L35.92,4.52Z" transform="translate(-5.414 -2.581)" fill="#fcbc04"/>
            <path id="Path_14713" data-name="Path 14713" d="M42.173,70.655H14.1L9,26H47.276Z" transform="translate(-9 3.345)" fill="#f8664f"/>
            <path id="Path_14714" data-name="Path 14714" d="M11.552,22H44.724a2.552,2.552,0,0,1,2.552,2.552V27.1H9V24.552A2.552,2.552,0,0,1,11.552,22Z" transform="translate(-9 2.242)" fill="#84d2f4"/>
            <path id="Path_14715" data-name="Path 14715" d="M16.552,18H36.966a2.552,2.552,0,0,1,2.552,2.552V23.1H14V20.552A2.552,2.552,0,0,1,16.552,18Z" transform="translate(-7.621 1.138)" fill="#84d2f4"/>
            <path id="Path_14716" data-name="Path 14716" d="M46.842,29.828H17.931A43.567,43.567,0,0,0,45.4,42.459l-3.228,28.2H14.1L9,26H47.276Z" transform="translate(-9 3.345)" fill="#cc5144"/>
            <g id="Group_5303" data-name="Group 5303" transform="translate(0 19.138)">
              <path id="Path_14717" data-name="Path 14717" d="M47.276,24.552V27.1H9V24.552A2.559,2.559,0,0,1,11.552,22,2.559,2.559,0,0,0,14.1,24.552Z" transform="translate(-9 -16.897)" fill="#57b7eb"/>
              <path id="Path_14718" data-name="Path 14718" d="M39.517,20.552V23.1H14V20.552A2.559,2.559,0,0,1,16.552,18,2.559,2.559,0,0,0,19.1,20.552Z" transform="translate(-7.621 -18)" fill="#57b7eb"/>
            </g>
          </g>
          <g id="Group_5305" data-name="Group 5305" transform="translate(26.793 24.752)">
            <path id="Path_14719" data-name="Path 14719" d="M45.828,23.166l-2.552,31.9L42,69.1l6.379,1.276,3.828-45.931L48.379,22.4Z" transform="translate(-22.862 -22.4)" fill="#e59730"/>
            <path id="Path_14720" data-name="Path 14720" d="M39,29.1l2.552,30.621h7.655l-2.552-31.9L42.828,24Z" transform="translate(-23.69 -21.959)" fill="#fcbc04"/>
            <path id="Path_14721" data-name="Path 14721" d="M49.207,59.054H41.552L39,28.433l1.506-2,2.322,18.589H44.1L45.494,36.9l1.161-.817.778.778Z" transform="translate(-23.69 -21.288)" fill="#e59730"/>
            <path id="Path_14722" data-name="Path 14722" d="M38.1,31.281l-3.78-1.3L33,33.833l6.379,20.414,5.954-2.552Z" transform="translate(-25.345 -20.308)" fill="#f9e109"/>
            <path id="Path_14723" data-name="Path 14723" d="M45.338,51.676l-5.958,2.552L33,33.814l1.3-3.764,2.335,7.017A22.625,22.625,0,0,0,43.858,47.5Z" transform="translate(-25.345 -20.29)" fill="#fcbc04"/>
            <path id="Path_14724" data-name="Path 14724" d="M56.125,24l-5.2,24.242h5.2l3.828-17.862Z" transform="translate(-20.401 -21.959)" fill="#f9e109"/>
            <path id="Path_14725" data-name="Path 14725" d="M55.931,35.9l2.041-8.826L56.125,24l-5.2,24.242h5.2l1.739-8.113A3.828,3.828,0,0,1,55.931,35.9Z" transform="translate(-20.401 -21.959)" fill="#fcbc04"/>
            <path id="Path_14726" data-name="Path 14726" d="M27,30l8.931,24.242,5.1-1.276L32.1,30Z" transform="translate(-27 -20.303)" fill="#f9e109"/>
            <path id="Path_14727" data-name="Path 14727" d="M27,30l8.931,24.242,2.552-.638L29.371,30Z" transform="translate(-27 -20.303)" fill="#fcbc04"/>
            <path id="Path_14728" data-name="Path 14728" d="M49.828,27,46,57.621l5.1-1.276,5.1-26.793Z" transform="translate(-21.758 -21.131)" fill="#f9e109"/>
            <path id="Path_14729" data-name="Path 14729" d="M53.3,44.824,51.1,56.345,46,57.621,49.828,27,52.3,28,51.282,42.323a2.368,2.368,0,0,0,2.016,2.5Z" transform="translate(-21.758 -21.131)" fill="#fcbc04"/>
            <path id="Path_14730" data-name="Path 14730" d="M49.1,56.966H44L45.276,34l5.1,1.276Z" transform="translate(-22.31 -19.2)" fill="#f9e109"/>
            <path id="Path_14731" data-name="Path 14731" d="M47.486,44.93l.288-10.305L45.276,34,44,56.966h5.1l.5-8.515a3.828,3.828,0,0,1-2.119-3.52Z" transform="translate(-22.31 -19.2)" fill="#fcbc04"/>
            <path id="Path_14732" data-name="Path 14732" d="M59.345,39c0,4.933-5.14,8.931-11.483,8.931s-11.483-4-11.483-8.931H30l3.828,28.069H61.9L65.724,39Z" transform="translate(-26.172 -17.821)" fill="#84d2f4"/>
            <path id="Path_14733" data-name="Path 14733" d="M62.6,61.966l-.7,5.1H33.828L30,39h6.379a7.8,7.8,0,0,0,2.641,5.69A20.4,20.4,0,0,0,59.192,61.966Z" transform="translate(-26.172 -17.821)" fill="#57b7eb"/>
            <ellipse id="Ellipse_91" data-name="Ellipse 91" cx="4.07" cy="3.663" rx="4.07" ry="3.663" transform="translate(17.775 36.667)" fill="#f9e109"/>
            <path id="Path_14734" data-name="Path 14734" d="M48,56.6a3.828,3.828,0,0,1-7-2.131,3.76,3.76,0,0,1,.689-2.182A20.352,20.352,0,0,0,48,56.6Z" transform="translate(-23.138 -14.154)" fill="#fcbc04"/>
          </g>
          <g id="Group_5308" data-name="Group 5308" transform="translate(0 38.276)">
            <path id="Path_14735" data-name="Path 14735" d="M36.069,53.207H13.1A5.1,5.1,0,0,1,13.1,43H36.069a5.1,5.1,0,0,1,0,10.207Z" transform="translate(-5.448 -30.241)" fill="#f89c8d"/>
            <path id="Path_14736" data-name="Path 14736" d="M38.622,50.655a5.015,5.015,0,0,0,2.092-.459,4.931,4.931,0,0,1-1.033,1.518,5.135,5.135,0,0,1-3.611,1.493H13.1a5.1,5.1,0,0,1-3.611-8.714,4.931,4.931,0,0,1,1.518-1.033A5.015,5.015,0,0,1,13.1,43H36.07a5.1,5.1,0,0,1,3.368,1.276,4.89,4.89,0,0,1,1.4,2.041,2.7,2.7,0,0,1-2.36,1.391,2.759,2.759,0,0,1-1.212-.28,2.649,2.649,0,0,0-2.4,0l-2.7,1.352a2.649,2.649,0,0,1-2.4,0l-2.7-1.352a2.649,2.649,0,0,0-2.4,0l-2.7,1.352a2.649,2.649,0,0,1-2.4,0l-2.7-1.352a2.649,2.649,0,0,0-2.4,0L12.4,48.461a3.955,3.955,0,0,1-.74.268,5.083,5.083,0,0,0,3.993,1.927Z" transform="translate(-5.449 -30.241)" fill="#f8664f"/>
            <path id="Path_14737" data-name="Path 14737" d="M6,55H44.276v2.552a5.1,5.1,0,0,1-5.1,5.1H11.1a5.1,5.1,0,0,1-5.1-5.1Z" transform="translate(-6 -26.931)" fill="#fcbc04"/>
            <path id="Path_14738" data-name="Path 14738" d="M24.241,55l-1.021,1.276L22.2,55Z" transform="translate(-1.531 -26.931)" fill="#e59730"/>
            <path id="Path_14739" data-name="Path 14739" d="M24.241,55l-1.021,1.276L22.2,55Z" transform="translate(-1.531 -26.931)" fill="#e59730"/>
            <path id="Path_14740" data-name="Path 14740" d="M38.621,56.1H10.552a2.552,2.552,0,0,1,0-5.1H38.621a2.552,2.552,0,1,1,0,5.1Z" transform="translate(-5.448 -28.034)" fill="#cc5144"/>
            <path id="Path_14741" data-name="Path 14741" d="M25.1,57.379,20,51H30.207Z" transform="translate(-2.138 -28.034)" fill="#f7f754"/>
            <path id="Path_14742" data-name="Path 14742" d="M24.666,52.368,23.572,51H20l5.1,6.379,2.89-3.612a3.794,3.794,0,0,1-3.327-1.4Z" transform="translate(-2.138 -28.034)" fill="#f9e109"/>
            <path id="Path_14743" data-name="Path 14743" d="M7,43a4.127,4.127,0,0,0,2.283,3.693l.974.487a4.124,4.124,0,0,0,3.692,0L16,46.159a2.7,2.7,0,0,1,2.409,0l2.695,1.347a2.7,2.7,0,0,0,2.409,0l2.695-1.347a2.7,2.7,0,0,1,2.409,0l2.695,1.347a2.7,2.7,0,0,0,2.409,0l2.695-1.347a2.7,2.7,0,0,1,2.409,0,2.695,2.695,0,0,0,3.9-2.414V43Z" transform="translate(-5.724 -30.241)" fill="#c4f236"/>
            <path id="Path_14744" data-name="Path 14744" d="M31.517,33H18.759A12.759,12.759,0,0,0,6,45.759H44.276A12.759,12.759,0,0,0,31.517,33Z" transform="translate(-6 -33)" fill="#fcbc04"/>
            <path id="Path_14745" data-name="Path 14745" d="M44.276,45.657H6A12.759,12.759,0,0,1,15.339,33.37a11.483,11.483,0,0,0,11.075,8.459H43.689a12.641,12.641,0,0,1,.587,3.828Z" transform="translate(-6 -32.898)" fill="#e59730"/>
            <path id="Path_14746" data-name="Path 14746" d="M44.276,57.552a5.1,5.1,0,0,1-5.1,5.1H11.1a5.1,5.1,0,0,1-5.1-5.1V55H8.718a5.093,5.093,0,0,0,4.938,3.828H40.448A6.3,6.3,0,0,0,44.276,57.552Z" transform="translate(-6 -26.931)" fill="#e59730"/>
            <path id="Path_14747" data-name="Path 14747" d="M42.724,43v.74a1.817,1.817,0,0,1-.064.536H9.169a3.9,3.9,0,0,0,1.391,1.136l.97.5a4.19,4.19,0,0,0,3.7,0l2.054-1.033a2.649,2.649,0,0,1,2.4,0l2.7,1.352a2.649,2.649,0,0,0,2.4,0l2.7-1.352a2.649,2.649,0,0,1,2.4,0l2.7,1.352a2.649,2.649,0,0,0,2.4,0l2.7-1.352a2.649,2.649,0,0,1,2.4,0,2.679,2.679,0,0,0,2.373.013,2.7,2.7,0,0,1-2.437,1.544,2.759,2.759,0,0,1-1.212-.28,2.649,2.649,0,0,0-2.4,0l-2.7,1.352a2.649,2.649,0,0,1-2.4,0l-2.7-1.352a2.649,2.649,0,0,0-2.4,0L23.51,47.5a2.649,2.649,0,0,1-2.4,0l-2.7-1.352a2.649,2.649,0,0,0-2.4,0l-2.054,1.033a4.19,4.19,0,0,1-3.7,0l-.97-.5A4.1,4.1,0,0,1,7,43Z" transform="translate(-5.724 -30.241)" fill="#a1d51c"/>
            <g id="Group_5307" data-name="Group 5307" transform="translate(6.312 2.794)">
              <g id="Group_5306" data-name="Group 5306" transform="translate(5.698 0)">
                <ellipse id="Ellipse_92" data-name="Ellipse 92" cx="1.221" cy="1.221" rx="1.221" ry="1.221" transform="translate(8.14 0.814)" fill="#f9e109"/>
                <ellipse id="Ellipse_93" data-name="Ellipse 93" cx="1.221" cy="1.221" rx="1.221" ry="1.221" transform="translate(3.256 0)" fill="#f9e109"/>
                <ellipse id="Ellipse_94" data-name="Ellipse 94" cx="0.814" cy="1.221" rx="0.814" ry="1.221" transform="translate(0 2.442)" fill="#f9e109"/>
                <ellipse id="Ellipse_95" data-name="Ellipse 95" cx="1.221" cy="1.221" rx="1.221" ry="1.221" transform="translate(18.721 2.442)" fill="#f9e109"/>
              </g>
              <ellipse id="Ellipse_96" data-name="Ellipse 96" cx="1.221" cy="1.221" rx="1.221" ry="1.221" transform="translate(0 0.814)" fill="#fcbc04"/>
              <ellipse id="Ellipse_97" data-name="Ellipse 97" cx="1.221" cy="1.221" rx="1.221" ry="1.221" transform="translate(19.535 0)" fill="#f9e109"/>
            </g>
            <path id="Path_14748" data-name="Path 14748" d="M17.437,38.765A1.276,1.276,0,0,1,15,38.229a1.3,1.3,0,0,1,.561-1.059h.013a11.091,11.091,0,0,0,1.863,1.595Z" transform="translate(-3.517 -31.85)" fill="#fcbc04"/>
          </g>
        </g>
      </g>
    </g>
  </g>
</svg>
