<svg xmlns="http://www.w3.org/2000/svg" xmlns:xlink="http://www.w3.org/1999/xlink" width="120" height="100" viewBox="0 0 120 100">
  <defs>
    <clipPath id="clip-path">
      <rect id="Rectangle_1115" data-name="Rectangle 1115" width="120" height="100" transform="translate(768 882)" fill="#fff"/>
    </clipPath>
  </defs>
  <g id="Mask_Group_21" data-name="Mask Group 21" transform="translate(-768 -882)" clip-path="url(#clip-path)">
    <g id="fried-chicken" transform="translate(796 897.046)">
      <path id="Path_11639" data-name="Path 11639" d="M330.016,129.64l.015.025a.571.571,0,0,1-.165.771l-10.108,6.848,2.556,3.773,10.108-6.848a.572.572,0,0,1,.777.132l.017.023a2.689,2.689,0,0,0,4.356-3.149,2.429,2.429,0,0,0-2.309-1.124.549.549,0,0,1-.539-.786,2.435,2.435,0,0,0-.168-2.542,2.689,2.689,0,0,0-4.539,2.878Zm0,0" transform="translate(-273.614 -107.432)" fill="#dfede7"/>
      <path id="Path_11640" data-name="Path 11640" d="M205.391,110.422l2.5,2.5a3.222,3.222,0,0,0,3.754.6,29.624,29.624,0,0,1,7.97-2.753,10.289,10.289,0,1,0-12.068-12.058,29.489,29.489,0,0,1-2.749,7.962,3.223,3.223,0,0,0,.595,3.755Zm0,0" transform="translate(-174.964 -77.324)" fill="#efa335"/>
      <path id="Path_11641" data-name="Path 11641" d="M224.83,96.438a10.177,10.177,0,0,0-3.88-2.364,10.289,10.289,0,0,1-7.784,13.383,29.616,29.616,0,0,0-7.97,2.753,3.164,3.164,0,0,1-.631.243,3.232,3.232,0,0,0,.838,3.123l2.5,2.5a3.222,3.222,0,0,0,3.754.6,29.609,29.609,0,0,1,7.97-2.753,10.29,10.29,0,0,0,5.2-17.479Zm0,0" transform="translate(-174.976 -80.478)" fill="#fd8f31"/>
      <path id="Path_11642" data-name="Path 11642" d="M4.595,73.293l.02-.018a.525.525,0,0,1,.724.023L13.21,81.31,16.2,78.373,8.33,70.36a.525.525,0,0,1-.009-.725l.018-.019a2.473,2.473,0,0,0-3.57-3.42,2.233,2.233,0,0,0-.635,2.275.505.505,0,0,1-.622.618,2.24,2.24,0,0,0-2.272.573,2.473,2.473,0,0,0,3.355,3.631Zm0,0" transform="translate(-0.5 -56.022)" fill="#dfede7"/>
      <path id="Path_11643" data-name="Path 11643" d="M79.765,143.337l-2.794,2.744a3.573,3.573,0,0,0-.7,4.154,32.817,32.817,0,0,1,2.972,8.86,11.4,11.4,0,1,0,13.483-13.255,32.662,32.662,0,0,1-8.8-3.126,3.571,3.571,0,0,0-4.167.622Zm0,0" transform="translate(-64.998 -121.738)" fill="#efa335"/>
      <path id="Path_11644" data-name="Path 11644" d="M101.461,148.968a11.341,11.341,0,0,0-5.808-3.127,32.659,32.659,0,0,1-8.8-3.126,3.572,3.572,0,0,0-4.167.622l-2.794,2.744a3.571,3.571,0,0,0-.582.75,32.441,32.441,0,0,0,10.554,4.13c4.081.825,7.793,3.9,9.15,9.2a8.009,8.009,0,0,1-.007,4.05,14.3,14.3,0,0,1-1.375,3.392,11.407,11.407,0,0,0,3.826-18.632Zm0,0" transform="translate(-67.922 -121.738)" fill="#fd8f31"/>
      <path id="Path_11645" data-name="Path 11645" d="M151.562,20.089s2.865-2.808,6.348-6.74S161.916.822,160.942.079s-2.771,3.888-6.441,8.757a13.388,13.388,0,0,1-4.373,3.329.5.5,0,0,1-.738-.473c.037-.639-.052-1.352-.653-1.273-.737.1-2.616,2.674-3.706,4.258a14.354,14.354,0,0,1-1.588,1.914c-1.549,1.575-2.031,3.425-1.3,6.923,2.022,9.662,10.935,10.335,18.649,10.785s11.613-.556,11.613-.556c0-12.37-20.844-13.655-20.844-13.655Zm0,0" transform="translate(-121.385 -0.001)" fill="#fccf3f"/>
      <path id="Path_11646" data-name="Path 11646" d="M178.825,21.832s2.865-2.808,6.348-6.74c3.274-3.7,3.933-11.513,3.192-13.054-1.186,4.092-5.771,13.194-12.317,16.648l-.139.074a4.259,4.259,0,0,0,.968,7.869c5.173,1.319,11.531,4.029,13.232,9.5a38.093,38.093,0,0,0,9.561-.646c0-12.37-20.844-13.655-20.844-13.655Zm0,0" transform="translate(-148.648 -1.744)" fill="#efc03c"/>
      <path id="Path_11647" data-name="Path 11647" d="M59.012,211.8l6.348,41.434a2.3,2.3,0,0,0,2.277,1.955h32.415a2.3,2.3,0,0,0,2.278-1.955l6.348-41.434Zm0,0" transform="translate(-50.555 -181.186)" fill="#fc4e51"/>
      <path id="Path_11648" data-name="Path 11648" d="M290.813,211.8l-6.348,41.434a2.3,2.3,0,0,1-2.278,1.955h8.784a2.3,2.3,0,0,0,2.277-1.955L299.6,211.8Zm0,0" transform="translate(-241.474 -181.186)" fill="#ea3942"/>
      <g id="Group_2166" data-name="Group 2166" transform="translate(15.492 30.892)">
        <path id="Path_11649" data-name="Path 11649" d="M212.4,256.846h-5.29l-.915-43.108h7.119Zm0,0" transform="translate(-191.961 -213.738)" fill="#f3e8d7"/>
        <path id="Path_11650" data-name="Path 11650" d="M117.548,256.846h-5.29l-4.575-43.108H114.8Zm0,0" transform="translate(-107.684 -213.738)" fill="#f3e8d7"/>
        <path id="Path_11651" data-name="Path 11651" d="M291.011,256.846h-5.289l2.745-43.108h7.119Zm0,0" transform="translate(-259.99 -213.738)" fill="#f3e8d7"/>
      </g>
      <path id="Path_11652" data-name="Path 11652" d="M290.813,211.8l-6.348,41.434a2.3,2.3,0,0,1-2.278,1.955h8.784a2.3,2.3,0,0,0,2.277-1.955L299.6,211.8Zm0,0" transform="translate(-241.474 -181.186)" fill="#ea3942"/>
      <path id="Path_11653" data-name="Path 11653" d="M291.012,256.846l4.574-43.108h-1.792l-6.305,41.153a2.3,2.3,0,0,1-1.763,1.895l0,.06Zm0,0" transform="translate(-244.498 -182.846)" fill="#e5d8c6"/>
      <path id="Path_11654" data-name="Path 11654" d="M90.769,212.909H40.288a2.687,2.687,0,1,1,0-5.374H90.769a2.687,2.687,0,1,1,0,5.374Zm0,0" transform="translate(-32.239 -177.54)" fill="#fc4e51"/>
      <path id="Path_11655" data-name="Path 11655" d="M368.766,207.531h-6.2v5.374h6.2a2.687,2.687,0,0,0,0-5.374Zm0,0" transform="translate(-310.236 -177.536)" fill="#ea3942"/>
      <path id="Path_11656" data-name="Path 11656" d="M122.652,340.094H78.668l1.1,7.183h41.783Zm0,0" transform="translate(-67.37 -290.94)" fill="#f3e8d7"/>
      <path id="Path_11657" data-name="Path 11657" d="M314.6,347.277h8.784l1.1-7.183H315.7Zm0,0" transform="translate(-269.201 -290.939)" fill="#e5d8c6"/>
      <path id="Path_11658" data-name="Path 11658" d="M182.1,307.782a9.907,9.907,0,1,1-9.907-9.907A9.907,9.907,0,0,1,182.1,307.782Zm0,0" transform="translate(-138.898 -254.823)" fill="#efa335"/>
      <path id="Path_11659" data-name="Path 11659" d="M178.227,301.313a9.908,9.908,0,0,1-12.508,12.509,9.907,9.907,0,1,0,12.508-12.509Zm0,0" transform="translate(-141.839 -257.764)" fill="#fd8f31"/>
    </g>
  </g>
</svg>
