<svg xmlns="http://www.w3.org/2000/svg" xmlns:xlink="http://www.w3.org/1999/xlink" width="120" height="100" viewBox="0 0 120 100">
  <defs>
    <clipPath id="clip-path">
      <rect id="Rectangle_1119" data-name="Rectangle 1119" width="120" height="100" transform="translate(768 1162)" fill="#fff"/>
    </clipPath>
  </defs>
  <g id="Mask_Group_25" data-name="Mask Group 25" transform="translate(-768 -1162)" clip-path="url(#clip-path)">
    <g id="burger_1_" data-name="burger (1)" transform="translate(788 1176.953)">
      <path id="Path_11627" data-name="Path 11627" d="M93.844,295.887H30.554a3.937,3.937,0,0,0-3.937,3.937v3.449a1.55,1.55,0,0,0,1.55,1.549H96.231a1.55,1.55,0,0,0,1.55-1.549v-3.449A3.937,3.937,0,0,0,93.844,295.887Zm0,0" transform="translate(-22.49 -250.008)" fill="#912c2c"/>
      <path id="Path_11628" data-name="Path 11628" d="M431.276,295.887h-5.3v8.935h7.69a1.55,1.55,0,0,0,1.55-1.55v-3.448A3.937,3.937,0,0,0,431.276,295.887Zm0,0" transform="translate(-359.923 -250.008)" fill="#7c1e1e"/>
      <path id="Path_11629" data-name="Path 11629" d="M82.6,265.559a3.824,3.824,0,0,1,3.779,3.839c0,3.052-3.477,4.667-7.519,4.075-3.775-.552-3.823-2.289-7.646-2.289s-3.823,2.289-7.646,2.289-3.823-2.289-7.646-2.289-3.823,2.289-7.646,2.289-3.823-2.289-7.646-2.289-3.823,2.289-7.645,2.289-3.823-2.289-7.646-2.289-3.87,1.736-7.646,2.289c-4.042.592-7.521-1.023-7.518-4.075a3.824,3.824,0,0,1,3.779-3.839Zm0,0" transform="translate(-8.598 -224.382)" fill="#a0e557"/>
      <path id="Path_11630" data-name="Path 11630" d="M449.77,269.4a3.824,3.824,0,0,0-3.779-3.839h-5.737v7.421a9.713,9.713,0,0,0,2,.494C446.293,274.065,449.772,272.45,449.77,269.4Zm0,0" transform="translate(-371.99 -224.382)" fill="#93cc4a"/>
      <path id="Path_11631" data-name="Path 11631" d="M76.166,348.395H3.223A3.223,3.223,0,0,0,0,351.618a16.756,16.756,0,0,0,16.756,16.756H62.633a16.756,16.756,0,0,0,16.756-16.755,3.223,3.223,0,0,0-3.223-3.223Zm0,0" transform="translate(0 -294.374)" fill="#efa335"/>
      <path id="Path_11632" data-name="Path 11632" d="M384.772,348.394h-6v6.446a13.533,13.533,0,0,1-13.533,13.533h6a16.757,16.757,0,0,0,16.756-16.756,3.223,3.223,0,0,0-3.223-3.224Zm0,0" transform="translate(-308.606 -294.373)" fill="#fd8f31"/>
      <path id="Path_11633" data-name="Path 11633" d="M93.754,190.408H30.464a3.937,3.937,0,0,1-3.936-3.936v-3.449a1.55,1.55,0,0,1,1.549-1.55H96.141a1.55,1.55,0,0,1,1.549,1.55v3.449A3.937,3.937,0,0,1,93.754,190.408Zm0,0" transform="translate(-22.414 -153.334)" fill="#fc4e51"/>
      <path id="Path_11634" data-name="Path 11634" d="M420.72,181.477h-7.662v6.548a2.387,2.387,0,0,1-2.387,2.387h7.662a3.937,3.937,0,0,0,3.936-3.936v-3.449a1.549,1.549,0,0,0-1.549-1.549Zm0,0" transform="translate(-346.994 -153.338)" fill="#ea3942"/>
      <path id="Path_11635" data-name="Path 11635" d="M85.011,234.273H15.147a2.887,2.887,0,0,0-2.9,2.88,2.827,2.827,0,0,0,2.826,2.773H59.463a3.02,3.02,0,0,1,1.966.727l6.3,5.4a4.608,4.608,0,0,0,6.285-.27l4.864-4.951a3.02,3.02,0,0,1,2.155-.9h3.9a2.887,2.887,0,0,0,2.9-2.881,2.826,2.826,0,0,0-2.826-2.772Zm0,0" transform="translate(-10.348 -197.947)" fill="#fccf3f"/>
      <path id="Path_11636" data-name="Path 11636" d="M39.695,0C2.736.014,0,24.394,0,27.847A3.224,3.224,0,0,0,3.223,31.07H76.166a3.224,3.224,0,0,0,3.223-3.223C79.389,24.394,76.653.014,39.695,0Zm0,0" transform="translate(0 0)" fill="#efa335"/>
      <path id="Path_11637" data-name="Path 11637" d="M79.388,27.755c0-.01,0-.021,0-.031s0-.047,0-.071,0-.024,0-.035,0-.051,0-.078,0-.024,0-.036c0-.028,0-.058,0-.088,0-.011,0-.021,0-.032,0-.036,0-.072-.006-.11,0-.006,0-.013,0-.019-.014-.234-.036-.505-.069-.809h0C78.622,20.215,73.337.013,39.694,0q-2.4,0-4.612.136C57.473,1.477,65.658,12.5,68.588,20.342a5.057,5.057,0,0,1-4.753,6.808H3.223A3.223,3.223,0,0,1,.262,25.2,16.946,16.946,0,0,0,0,27.847,3.224,3.224,0,0,0,3.223,31.07H76.166a3.224,3.224,0,0,0,3.223-3.223c0-.029,0-.059,0-.091Zm0,0" transform="translate(0 0)" fill="#fd8f31"/>
      <path id="Path_11638" data-name="Path 11638" d="M446.653,234.273h-6.4V241.1l.265-.271a3.021,3.021,0,0,1,2.156-.9h3.9a2.887,2.887,0,0,0,2.9-2.881A2.826,2.826,0,0,0,446.653,234.273Zm0,0" transform="translate(-371.989 -197.947)" fill="#efc03c"/>
    </g>
  </g>
</svg>
