<svg xmlns="http://www.w3.org/2000/svg" xmlns:xlink="http://www.w3.org/1999/xlink" width="120" height="100" viewBox="0 0 120 100">
  <defs>
    <clipPath id="clip-path">
      <rect id="Rectangle_1117" data-name="Rectangle 1117" width="120" height="100" transform="translate(186 1162)" fill="#fff"/>
    </clipPath>
  </defs>
  <g id="Mask_Group_23" data-name="Mask Group 23" transform="translate(-186 -1162)" clip-path="url(#clip-path)">
    <g id="milkshake" transform="translate(225 1176.953)">
      <path id="Path_11483" data-name="Path 11483" d="M49.612,198.307l-4.66-1.922a3.139,3.139,0,0,1-2.009-2.87v-1.309l.9-2.59c6.182-10.619,8.541-34.073,9.078-40.394a1.472,1.472,0,0,0-1.467-1.6H27.931a1.471,1.471,0,0,0-1.467,1.6c.537,6.321,2.9,29.775,9.078,40.394l.9,2.59v1.309a3.139,3.139,0,0,1-2.009,2.87l-4.66,1.922a1.206,1.206,0,0,0-.772,1.1.64.64,0,0,0,.662.615H49.722a.639.639,0,0,0,.662-.615,1.205,1.205,0,0,0-.772-1.1Zm0,0" transform="translate(-22.726 -126.396)" fill="#dfede7"/>
      <path id="Path_11484" data-name="Path 11484" d="M100.558,189.614c6.182-10.619,8.541-34.073,9.078-40.394a1.472,1.472,0,0,0-1.467-1.6h-5.777c-.625,7.1-3.222,31.642-9.246,41.99l-.443,1.28.454,1.311v1.309a2.967,2.967,0,0,1-.454,1.568,3.3,3.3,0,0,0,1.555,1.3l4.66,1.922a1.206,1.206,0,0,1,.772,1.1.64.64,0,0,1-.662.615h7.412a.639.639,0,0,0,.662-.615,1.205,1.205,0,0,0-.772-1.1l-4.66-1.922a3.14,3.14,0,0,1-2.009-2.87V192.2Zm0,0" transform="translate(-79.444 -126.395)" fill="#d7e0dc"/>
      <path id="Path_11485" data-name="Path 11485" d="M30.256,45.269a3.814,3.814,0,0,0-6.467-3.423,3.8,3.8,0,0,0-3.436-.654,3.816,3.816,0,1,0-7.277-2.221A3.814,3.814,0,0,0,7.42,42.313c0,.022,0,.044,0,.067a3.827,3.827,0,0,0-3,2.853l-.108,0a3.816,3.816,0,0,0,0,7.632h25.4a3.816,3.816,0,0,0,.543-7.593Zm0,0" transform="translate(-0.5 -30.806)" fill="#f3e8d7"/>
      <path id="Path_11486" data-name="Path 11486" d="M98.494,45.271A3.815,3.815,0,0,0,95.2,40.724a3.807,3.807,0,0,0-3.173,1.124,3.8,3.8,0,0,0-3.437-.654,3.815,3.815,0,1,0-7.276-2.221,3.773,3.773,0,0,0-1.115-.4,2.724,2.724,0,0,0,.908,1.932,3.725,3.725,0,0,0,3.623.538c1.825-.517,3.832,1.121,5,3.4a2.134,2.134,0,0,0,1.125,1.041A3.816,3.816,0,0,1,89.5,52.865H97.87a3.888,3.888,0,0,0,3.9-3.857,3.821,3.821,0,0,0-3.273-3.736Zm0,0" transform="translate(-68.738 -30.809)" fill="#e5d8c6"/>
      <path id="Path_11487" data-name="Path 11487" d="M29.367,188.566c.988,9.288,3.484,27.2,8.665,36.1l.6,1.748a1.626,1.626,0,0,1,.329-.034H45.4a1.636,1.636,0,0,1,.33.034l.6-1.748c5.181-8.9,7.677-26.815,8.665-36.1Zm0,0" transform="translate(-25.216 -161.449)" fill="#ef50ab"/>
      <g id="Group_2141" data-name="Group 2141" transform="translate(29.587 27.117)">
        <path id="Path_11488" data-name="Path 11488" d="M207.073,191.027c-.013.126-.028.254-.042.383Q207.052,191.216,207.073,191.027Zm0,0" transform="translate(-206.918 -190.673)" fill="#e5d8c6"/>
        <path id="Path_11489" data-name="Path 11489" d="M207.328,190.5c0,.025-.005.05-.008.075C207.323,190.554,207.326,190.529,207.328,190.5Zm0,0" transform="translate(-207.166 -190.225)" fill="#e5d8c6"/>
        <path id="Path_11490" data-name="Path 11490" d="M207.4,188.574s0-.005,0-.007h0c-.01.092-.02.185-.03.279C207.385,188.754,207.395,188.663,207.4,188.574Zm0,0" transform="translate(-207.213 -188.566)" fill="#e5d8c6"/>
        <path id="Path_11491" data-name="Path 11491" d="M206.984,193.688c0,.024-.005.047-.008.07C206.979,193.735,206.981,193.712,206.984,193.688Zm0,0" transform="translate(-206.871 -192.951)" fill="#e5d8c6"/>
        <path id="Path_11492" data-name="Path 11492" d="M206.246,197.905c.018-.158.036-.313.053-.467Q206.273,197.669,206.246,197.905Zm0,0" transform="translate(-206.246 -196.162)" fill="#e5d8c6"/>
        <path id="Path_11493" data-name="Path 11493" d="M206.74,194.176c-.013.117-.026.237-.04.357C206.714,194.413,206.727,194.293,206.74,194.176Zm0,0" transform="translate(-206.634 -193.369)" fill="#e5d8c6"/>
        <path id="Path_11494" data-name="Path 11494" d="M206.625,196.656c0,.038-.008.075-.012.112C206.618,196.731,206.621,196.694,206.625,196.656Zm0,0" transform="translate(-206.56 -195.493)" fill="#e5d8c6"/>
      </g>
      <path id="Path_11495" data-name="Path 11495" d="M101.792,188.566c-1.166,10.219-3.794,27.767-8.647,36.1l-.443,1.28.132.381.03.087a1.637,1.637,0,0,1,.33-.034h6.429a1.627,1.627,0,0,1,.329.034l.605-1.748c.09-.154.179-.311.267-.47l.084-.156c.06-.11.12-.22.179-.333l.1-.185c.056-.107.111-.215.165-.325.031-.063.063-.126.094-.19q.086-.174.17-.352c.027-.057.054-.113.081-.171q.111-.236.22-.477l.026-.057q.122-.272.242-.551l.067-.159c.057-.134.114-.269.171-.406l.082-.2c.052-.127.1-.254.154-.383l.082-.208q.078-.2.155-.4l.072-.189c.063-.168.126-.338.188-.509.011-.03.022-.061.033-.091.075-.205.148-.412.221-.621l.046-.132c.056-.163.112-.327.168-.492l.067-.2c.048-.146.1-.293.145-.441l.069-.212c.048-.151.1-.3.144-.454l.061-.194q.085-.273.168-.549c.01-.034.02-.068.031-.1q.1-.337.2-.677l.023-.079q.084-.293.168-.589l.052-.186q.069-.248.137-.5c.019-.069.038-.137.056-.206l.133-.5.049-.189q.076-.289.149-.58c.01-.035.019-.071.028-.106q.178-.7.348-1.414c.013-.056.026-.111.039-.167q.064-.268.126-.538c.016-.067.031-.134.047-.2q.06-.262.119-.524c.015-.063.029-.126.043-.189q.066-.293.13-.586l.026-.119q.157-.722.306-1.446c.01-.047.019-.095.029-.142q.058-.285.115-.57l.039-.192q.053-.266.1-.533c.013-.064.025-.128.038-.192.037-.189.073-.379.109-.568l.027-.14q.136-.72.264-1.437c.008-.042.015-.084.022-.126q.051-.288.1-.576l.034-.19c.029-.172.059-.343.088-.514.012-.068.023-.136.035-.2.03-.176.059-.352.088-.527.009-.056.019-.112.028-.168q.056-.343.112-.684h0q.056-.35.111-.7c.008-.05.015-.1.023-.149.028-.175.055-.35.081-.524.011-.072.022-.143.033-.215.023-.152.046-.3.069-.454.012-.078.024-.156.035-.234.022-.148.044-.3.066-.443l.032-.22c.025-.169.049-.336.072-.5.007-.048.015-.1.021-.146.03-.211.06-.422.089-.63.01-.069.019-.136.028-.2.02-.141.039-.282.058-.422l.035-.26c.016-.12.032-.24.048-.358.012-.092.024-.183.036-.274.015-.112.03-.224.044-.335.012-.093.025-.187.037-.28s.027-.208.04-.311.025-.192.037-.287.024-.192.037-.288q.036-.291.071-.576c.009-.076.019-.153.028-.229.013-.112.026-.222.04-.332.008-.072.017-.144.026-.216.013-.113.026-.225.039-.336l.022-.188c.014-.118.028-.236.041-.352.005-.042.01-.084.014-.125.07-.607.134-1.187.192-1.737,0,0,0-.005,0-.007Zm0,0" transform="translate(-79.444 -161.449)" fill="#dd3ca7"/>
      <path id="Path_11496" data-name="Path 11496" d="M92.948,455.165H86.519a1.613,1.613,0,0,1-1.613-1.613v-.4a1.613,1.613,0,0,1,1.613-1.613h6.429a1.613,1.613,0,0,1,1.613,1.613v.4A1.613,1.613,0,0,1,92.948,455.165Zm0,0" transform="translate(-72.768 -386.602)" fill="#dfede7"/>
      <path id="Path_11497" data-name="Path 11497" d="M110.832,223.467v14.352a1.1,1.1,0,0,0,2.2,0V223.467a1.1,1.1,0,0,0-2.2,0Zm0,0" transform="translate(-94.966 -190.39)" fill="#dd3ca7"/>
      <path id="Path_11498" data-name="Path 11498" d="M149.913,222.367a1.1,1.1,0,0,0-1.1,1.1,91.563,91.563,0,0,1-1.573,14.159,1.1,1.1,0,1,0,2.164.386,91.226,91.226,0,0,0,1.608-14.545,1.1,1.1,0,0,0-1.1-1.1Zm0,0" transform="translate(-126.124 -190.389)" fill="#ef50ab"/>
      <path id="Path_11499" data-name="Path 11499" d="M64.478,222.367a1.1,1.1,0,0,1,1.1,1.1,91.556,91.556,0,0,0,1.573,14.159,1.1,1.1,0,1,1-2.164.386,91.228,91.228,0,0,1-1.608-14.545,1.1,1.1,0,0,1,1.1-1.1Zm0,0" transform="translate(-54.337 -190.389)" fill="#dd3ca7"/>
      <path id="Path_11500" data-name="Path 11500" d="M153.522.961a1.1,1.1,0,0,0-1.23-.951L142.079,1.316a1.1,1.1,0,0,0-.861.635L129.769,27.118h2.415l10.78-23.7,9.606-1.229a1.1,1.1,0,0,0,.95-1.23Zm0,0" transform="translate(-111.18 -0.001)" fill="#fccf3f"/>
      <path id="Path_11501" data-name="Path 11501" d="M132.448,147.625l-2.678,5.888h2.415l2.678-5.888Zm0,0" transform="translate(-111.18 -126.396)" fill="#efc03c"/>
    </g>
  </g>
</svg>
