<svg xmlns="http://www.w3.org/2000/svg" xmlns:xlink="http://www.w3.org/1999/xlink" width="120" height="100" viewBox="0 0 120 100">
  <defs>
    <clipPath id="clip-path">
      <rect id="Rectangle_1118" data-name="Rectangle 1118" width="120" height="100" transform="translate(477 1162)" fill="#fff"/>
    </clipPath>
    <linearGradient id="linear-gradient" x1="0.444" y1="0.531" x2="0.5" y2="0.687" gradientUnits="objectBoundingBox">
      <stop offset="0" stop-color="#faa68e"/>
      <stop offset="0.206" stop-color="#fba682"/>
      <stop offset="0.581" stop-color="#fda861"/>
      <stop offset="1" stop-color="#ffa936"/>
    </linearGradient>
    <linearGradient id="linear-gradient-2" x1="0.503" y1="0.506" x2="0.455" y2="0.222" gradientUnits="objectBoundingBox">
      <stop offset="0" stop-color="#f82814" stop-opacity="0"/>
      <stop offset="0.245" stop-color="#f12817" stop-opacity="0.243"/>
      <stop offset="0.605" stop-color="#dd2820" stop-opacity="0.604"/>
      <stop offset="1" stop-color="#c0272d"/>
    </linearGradient>
    <linearGradient id="linear-gradient-3" x1="0.295" y1="0.357" x2="0.538" y2="0.735" gradientUnits="objectBoundingBox">
      <stop offset="0" stop-color="#ffd945"/>
      <stop offset="0.304" stop-color="#ffcd3e"/>
      <stop offset="0.856" stop-color="#ffad2b"/>
      <stop offset="1" stop-color="#ffa325"/>
    </linearGradient>
    <linearGradient id="linear-gradient-4" x1="0.481" y1="0.424" x2="0.603" y2="0.224" gradientUnits="objectBoundingBox">
      <stop offset="0" stop-color="#f82814" stop-opacity="0"/>
      <stop offset="1" stop-color="#c0272d"/>
    </linearGradient>
    <linearGradient id="linear-gradient-5" x1="0.528" y1="0.448" x2="-0.226" y2="-0.64" xlink:href="#linear-gradient-4"/>
    <linearGradient id="linear-gradient-6" x1="0.475" y1="0.467" x2="0.055" y2="-0.508" xlink:href="#linear-gradient-4"/>
    <linearGradient id="linear-gradient-7" x1="0.551" y1="0.508" x2="0.169" y2="-0.353" xlink:href="#linear-gradient-4"/>
    <linearGradient id="linear-gradient-8" x1="0.615" y1="0.608" x2="0.258" y2="-0.125" xlink:href="#linear-gradient-4"/>
    <linearGradient id="linear-gradient-9" x1="0.393" y1="0.133" x2="0.607" y2="0.869" gradientUnits="objectBoundingBox">
      <stop offset="0" stop-color="#bada00"/>
      <stop offset="0.227" stop-color="#b0ce00"/>
      <stop offset="0.638" stop-color="#95ae00"/>
      <stop offset="1" stop-color="#798c00"/>
    </linearGradient>
    <linearGradient id="linear-gradient-10" x1="256.866" y1="-388.341" x2="258.251" y2="-386.422" gradientUnits="objectBoundingBox">
      <stop offset="0" stop-color="#798c00" stop-opacity="0"/>
      <stop offset="0.654" stop-color="#556100" stop-opacity="0.655"/>
      <stop offset="1" stop-color="#464f00"/>
    </linearGradient>
    <linearGradient id="linear-gradient-11" x1="327.674" y1="-495.304" x2="329.058" y2="-493.384" xlink:href="#linear-gradient-10"/>
    <linearGradient id="linear-gradient-12" x1="536.196" y1="-822.649" x2="537.579" y2="-820.73" xlink:href="#linear-gradient-10"/>
    <linearGradient id="linear-gradient-14" x1="282.146" y1="-411.488" x2="283.53" y2="-409.568" xlink:href="#linear-gradient-10"/>
    <linearGradient id="linear-gradient-15" x1="359.702" y1="-524.63" x2="361.085" y2="-522.71" xlink:href="#linear-gradient-10"/>
    <linearGradient id="linear-gradient-16" x1="589.319" y1="-871.288" x2="590.702" y2="-869.369" xlink:href="#linear-gradient-10"/>
    <linearGradient id="linear-gradient-18" x1="249.729" y1="-417.048" x2="251.113" y2="-415.13" xlink:href="#linear-gradient-10"/>
    <linearGradient id="linear-gradient-19" x1="318.631" y1="-531.677" x2="320.016" y2="-529.757" xlink:href="#linear-gradient-10"/>
    <linearGradient id="linear-gradient-20" x1="521.198" y1="-882.976" x2="522.581" y2="-881.058" xlink:href="#linear-gradient-10"/>
    <linearGradient id="linear-gradient-22" x1="204.013" y1="-401.193" x2="205.397" y2="-399.274" xlink:href="#linear-gradient-10"/>
    <linearGradient id="linear-gradient-23" x1="260.715" y1="-511.587" x2="262.099" y2="-509.667" xlink:href="#linear-gradient-10"/>
    <linearGradient id="linear-gradient-24" x1="425.132" y1="-849.656" x2="426.518" y2="-847.738" xlink:href="#linear-gradient-10"/>
    <linearGradient id="linear-gradient-26" x1="257.253" y1="-362.129" x2="258.638" y2="-360.211" xlink:href="#linear-gradient-10"/>
    <linearGradient id="linear-gradient-27" x1="328.163" y1="-462.097" x2="329.548" y2="-460.177" xlink:href="#linear-gradient-10"/>
    <linearGradient id="linear-gradient-28" x1="537.009" y1="-767.571" x2="538.392" y2="-765.652" xlink:href="#linear-gradient-10"/>
    <linearGradient id="linear-gradient-29" x1="7.69" y1="1.614" x2="7.902" y2="2.188" gradientUnits="objectBoundingBox">
      <stop offset="0" stop-color="#ffdecf"/>
      <stop offset="0.379" stop-color="#fdc4b0"/>
      <stop offset="0.766" stop-color="#fbae97"/>
      <stop offset="1" stop-color="#faa68e"/>
    </linearGradient>
    <linearGradient id="linear-gradient-30" x1="3.563" y1="-35.47" x2="3.769" y2="-34.893" xlink:href="#linear-gradient-29"/>
    <linearGradient id="linear-gradient-31" x1="0.415" y1="0.279" x2="0.884" y2="1.274" gradientUnits="objectBoundingBox">
      <stop offset="0" stop-color="#a57c52"/>
      <stop offset="0.134" stop-color="#a26c4a"/>
      <stop offset="0.516" stop-color="#994336"/>
      <stop offset="0.817" stop-color="#942a2a"/>
      <stop offset="1" stop-color="#922125"/>
    </linearGradient>
    <linearGradient id="linear-gradient-32" x1="10.738" y1="2.411" x2="10.95" y2="2.984" xlink:href="#linear-gradient-29"/>
    <linearGradient id="linear-gradient-33" x1="5.276" y1="-48.72" x2="5.481" y2="-48.143" xlink:href="#linear-gradient-29"/>
    <linearGradient id="linear-gradient-34" x1="0.343" y1="0.204" x2="0.965" y2="1.545" xlink:href="#linear-gradient-31"/>
    <linearGradient id="linear-gradient-35" x1="0.393" y1="0.133" x2="0.607" y2="0.869" gradientUnits="objectBoundingBox">
      <stop offset="0" stop-color="#ff6359"/>
      <stop offset="0.224" stop-color="#fe5b50"/>
      <stop offset="0.595" stop-color="#fc4637"/>
      <stop offset="1" stop-color="#f82814"/>
    </linearGradient>
    <linearGradient id="linear-gradient-36" x1="120.151" y1="-208.275" x2="121.536" y2="-206.355" xlink:href="#linear-gradient-2"/>
    <linearGradient id="linear-gradient-37" x1="154.428" y1="-267.106" x2="155.812" y2="-265.187" xlink:href="#linear-gradient-2"/>
    <linearGradient id="linear-gradient-38" x1="248.869" y1="-444.196" x2="250.254" y2="-442.276" xlink:href="#linear-gradient-2"/>
    <linearGradient id="linear-gradient-40" x1="146.216" y1="-220.633" x2="147.601" y2="-218.714" xlink:href="#linear-gradient-2"/>
    <linearGradient id="linear-gradient-41" x1="187.442" y1="-282.76" x2="188.827" y2="-280.84" xlink:href="#linear-gradient-2"/>
    <linearGradient id="linear-gradient-42" x1="303.634" y1="-470.162" x2="305.018" y2="-468.242" xlink:href="#linear-gradient-2"/>
    <linearGradient id="linear-gradient-44" x1="0.869" y1="1.246" x2="-0.143" y2="-1.284" xlink:href="#linear-gradient-10"/>
    <linearGradient id="linear-gradient-45" x1="9.684" y1="1.018" x2="9.895" y2="1.592" xlink:href="#linear-gradient-29"/>
    <linearGradient id="linear-gradient-46" x1="2.229" y1="-44.51" x2="2.434" y2="-43.933" xlink:href="#linear-gradient-29"/>
    <linearGradient id="linear-gradient-47" x1="0.297" y1="-0.07" x2="0.529" y2="0.58" gradientUnits="objectBoundingBox">
      <stop offset="0" stop-color="#8a7889"/>
      <stop offset="0.334" stop-color="#867385"/>
      <stop offset="0.704" stop-color="#7b667b"/>
      <stop offset="1" stop-color="#6e566e"/>
    </linearGradient>
    <linearGradient id="linear-gradient-49" x1="0.297" y1="-0.07" x2="0.529" y2="0.58" xlink:href="#linear-gradient-47"/>
    <linearGradient id="linear-gradient-52" x1="145.974" y1="-205.322" x2="147.358" y2="-203.402" xlink:href="#linear-gradient-2"/>
    <linearGradient id="linear-gradient-53" x1="187.135" y1="-263.366" x2="188.52" y2="-261.446" xlink:href="#linear-gradient-2"/>
    <linearGradient id="linear-gradient-54" x1="303.125" y1="-437.991" x2="304.509" y2="-436.071" xlink:href="#linear-gradient-2"/>
    <linearGradient id="linear-gradient-56" x1="0.566" y1="0.371" x2="0.448" y2="0.6" xlink:href="#linear-gradient"/>
  </defs>
  <g id="Mask_Group_24" data-name="Mask Group 24" transform="translate(-477 -1162)" clip-path="url(#clip-path)">
    <g id="pizza" transform="translate(495 1177.347)">
      <path id="Path_11531" data-name="Path 11531" d="M46.265,97.9s-25.5,15.6-34.931,58a3.483,3.483,0,0,0,5.488,3.543A158.949,158.949,0,0,1,85.412,130.3a5.336,5.336,0,0,0,3.642-8.139c-5.023-7.9-16.784-20.049-42.789-24.259Z" transform="translate(-9.394 -87.363)" fill="url(#linear-gradient)"/>
      <path id="Path_11532" data-name="Path 11532" d="M88.986,244.7A158.706,158.706,0,0,0,14.06,274.749a3.429,3.429,0,0,1-2,.709c-.252,1.014-.5,2.04-.73,3.087a3.482,3.482,0,0,0,5.49,3.538,158.946,158.946,0,0,1,68.606-29.149,5.327,5.327,0,0,0,3.643-8.107Z" transform="translate(-9.389 -210)" fill="url(#linear-gradient-2)"/>
      <path id="Path_11533" data-name="Path 11533" d="M81,114.821S74.358,90.979,34.613,85.469c0,0-25.385,15.385-34.53,56.2-.681,3.039,2.939,5.209,5.509,3.3.981-.728,2.059-1.506,3.231-2.325a2.215,2.215,0,0,1,3.482,1.816v.127a3.425,3.425,0,1,0,6.851,0v-3.588a8.511,8.511,0,0,1,4.436-7.474,166.4,166.4,0,0,1,23.67-10.6,2.216,2.216,0,0,1,2.959,2.087,3.425,3.425,0,1,0,6.851,0v-4.409a1.107,1.107,0,0,1,.807-1.066l.022-.006a1.113,1.113,0,0,1,1.415,1.072v11.162a3.425,3.425,0,1,0,6.851,0v-9.526a5.907,5.907,0,0,1,4.769-5.8q4.893-.949,10.064-1.622Z" transform="translate(0.001 -76.977)" fill="url(#linear-gradient-3)"/>
      <path id="Path_11534" data-name="Path 11534" d="M154.12,85.47a58.3,58.3,0,0,0-11.068,9.651l32.419,32.418a3.412,3.412,0,0,0,1.108-2.517v-4.409a1.107,1.107,0,0,1,.807-1.066l.022-.006a1.113,1.113,0,0,1,1.415,1.072v10.279l4.214,4.214a3.424,3.424,0,0,0,2.637-3.331v-9.526a5.907,5.907,0,0,1,4.769-5.8q4.893-.95,10.064-1.622S193.864,90.98,154.12,85.47Z" transform="translate(-119.506 -76.978)" fill="url(#linear-gradient-4)"/>
      <path id="Path_11535" data-name="Path 11535" d="M174.1,118.2a7.918,7.918,0,0,0-1.172-1.078,11.554,11.554,0,0,0-13.153,0c-3.443,2.6-3.62,6.721-.535,9.477l26.464,26.464a3.424,3.424,0,0,0,2.57-3.314v-4.409a1.107,1.107,0,0,1,.807-1.066l.022-.006a1.113,1.113,0,0,1,1.415,1.072V156.5a3.411,3.411,0,0,0,.768,2.161,7.979,7.979,0,0,0,.771.7,3.424,3.424,0,0,0,5.312-2.858v-9.526A5.921,5.921,0,0,1,198.9,143Z" transform="translate(-131.203 -101.701)" fill="url(#linear-gradient-5)"/>
      <path id="Path_11536" data-name="Path 11536" d="M115.222,188.648a8.152,8.152,0,0,0-6.132-2.429c-3.963,0-7.176,2.264-7.176,5.056a4.224,4.224,0,0,0,1.566,3.151l17.281,17.335c3.643-1.62,7.525-3.191,11.641-4.66a2.191,2.191,0,0,1,1.121-.1Z" transform="translate(-85.139 -161.144)" fill="url(#linear-gradient-6)"/>
      <path id="Path_11537" data-name="Path 11537" d="M231.132,214.081a8.221,8.221,0,0,0-6.045-2.333c-3.963,0-7.176,2.264-7.176,5.056,0,.114.007.227.018.339a9.952,9.952,0,0,0-10.163.671c-2.913,2.2-3.088,5.675-.528,8.027l5.088,5.088q3.175-1.287,6.562-2.5a2.216,2.216,0,0,1,2.959,2.087,3.425,3.425,0,0,0,6.851,0v-4.409a1.107,1.107,0,0,1,.807-1.066l.022-.006a1.113,1.113,0,0,1,1.415,1.072v11.162a3.425,3.425,0,0,0,6.851,0v-9.526a5.922,5.922,0,0,1,2.307-4.692Z" transform="translate(-171.626 -182.471)" fill="url(#linear-gradient-7)"/>
      <path id="Path_11538" data-name="Path 11538" d="M62.157,301.039l-5.887-5.887a8.221,8.221,0,0,0-6.045-2.333c-3.109,0-5.755,1.393-6.752,3.341a9.924,9.924,0,0,0-8.785,1.255c-2.913,2.2-3.088,5.675-.528,8.027l12.032,12.032v-3.247a8.511,8.511,0,0,1,4.436-7.474c3.508-1.913,7.359-3.844,11.528-5.714Z" transform="translate(-27.036 -250.198)" fill="url(#linear-gradient-8)"/>
      <g id="Group_2146" data-name="Group 2146" transform="translate(1.579 17.021)">
        <g id="Group_2142" data-name="Group 2142" transform="translate(11.806 16.821)">
          <path id="Path_11539" data-name="Path 11539" d="M91.949,251.32a.61.61,0,1,0-.825.253A.61.61,0,0,0,91.949,251.32Z" transform="translate(-89.239 -248.623)" fill="#ffeaa2"/>
          <path id="Path_11540" data-name="Path 11540" d="M82.024,257.076a.481.481,0,1,0,.2.651A.481.481,0,0,0,82.024,257.076Z" transform="translate(-81.316 -254.132)" fill="#ffeaa2"/>
          <path id="Path_11541" data-name="Path 11541" d="M86.664,272.44a.29.29,0,1,0,.12.392A.29.29,0,0,0,86.664,272.44Z" transform="translate(-85.428 -266.987)" fill="#ffeaa2"/>
          <path id="Path_11542" data-name="Path 11542" d="M110.934,277.482a.61.61,0,1,0,.592.627A.61.61,0,0,0,110.934,277.482Z" transform="translate(-105.535 -271.226)" fill="#ffeaa2"/>
          <path id="Path_11543" data-name="Path 11543" d="M130.883,251.271a.481.481,0,1,0,.468.495A.481.481,0,0,0,130.883,251.271Z" transform="translate(-122.311 -249.33)" fill="#ffeaa2"/>
          <path id="Path_11544" data-name="Path 11544" d="M104.7,252.382a.29.29,0,1,0,.282.3A.29.29,0,0,0,104.7,252.382Z" transform="translate(-100.605 -250.258)" fill="#ffeaa2"/>
          <path id="Path_11545" data-name="Path 11545" d="M98.621,267.518a.451.451,0,1,0,.54.339A.451.451,0,0,0,98.621,267.518Z" transform="translate(-95.48 -262.893)" fill="#ffeaa2"/>
          <path id="Path_11546" data-name="Path 11546" d="M102.061,259.886a.356.356,0,1,0,.426.268A.356.356,0,0,0,102.061,259.886Z" transform="translate(-98.415 -256.519)" fill="#ffeaa2"/>
          <path id="Path_11547" data-name="Path 11547" d="M93.347,262.01a.214.214,0,1,0-.257-.161A.214.214,0,0,0,93.347,262.01Z" transform="translate(-91.148 -257.947)" fill="#ffeaa2"/>
          <path id="Path_11548" data-name="Path 11548" d="M160.642,240.375a.61.61,0,1,0-.825.253A.61.61,0,0,0,160.642,240.375Z" transform="translate(-146.626 -239.479)" fill="#ffeaa2"/>
          <path id="Path_11549" data-name="Path 11549" d="M144.945,276.5a.481.481,0,1,0,.2.651A.482.482,0,0,0,144.945,276.5Z" transform="translate(-133.881 -270.362)" fill="#ffeaa2"/>
          <path id="Path_11550" data-name="Path 11550" d="M141.743,260.522a.29.29,0,1,0,.12.392A.29.29,0,0,0,141.743,260.522Z" transform="translate(-131.441 -257.03)" fill="#ffeaa2"/>
          <path id="Path_11551" data-name="Path 11551" d="M183.471,249.92a.61.61,0,1,0,.592.627A.61.61,0,0,0,183.471,249.92Z" transform="translate(-166.132 -248.201)" fill="#ffeaa2"/>
          <path id="Path_11552" data-name="Path 11552" d="M181.357,242.463a.481.481,0,1,0-.495.468.481.481,0,0,0,.495-.468Z" transform="translate(-164.086 -241.558)" fill="#ffeaa2"/>
          <path id="Path_11553" data-name="Path 11553" d="M173.4,241.436a.29.29,0,1,0,.282.3A.29.29,0,0,0,173.4,241.436Z" transform="translate(-157.992 -241.114)" fill="#ffeaa2"/>
          <path id="Path_11554" data-name="Path 11554" d="M157.155,266.975a.451.451,0,1,0,.54.339A.451.451,0,0,0,157.155,266.975Z" transform="translate(-144.379 -262.44)" fill="#ffeaa2"/>
          <path id="Path_11555" data-name="Path 11555" d="M170.754,248.94a.356.356,0,1,0,.426.268A.356.356,0,0,0,170.754,248.94Z" transform="translate(-155.801 -247.375)" fill="#ffeaa2"/>
          <path id="Path_11556" data-name="Path 11556" d="M162.041,251.065a.214.214,0,1,0-.257-.161A.214.214,0,0,0,162.041,251.065Z" transform="translate(-148.535 -248.804)" fill="#ffeaa2"/>
        </g>
        <g id="Group_2143" data-name="Group 2143" transform="translate(29.436)">
          <path id="Path_11557" data-name="Path 11557" d="M199.061,299.823a.61.61,0,1,0-.825.253A.61.61,0,0,0,199.061,299.823Z" transform="translate(-196.351 -272.321)" fill="#ffeaa2"/>
          <path id="Path_11558" data-name="Path 11558" d="M189.136,305.579a.481.481,0,1,0,.2.651A.481.481,0,0,0,189.136,305.579Z" transform="translate(-188.428 -277.831)" fill="#ffeaa2"/>
          <path id="Path_11559" data-name="Path 11559" d="M193.777,320.943a.29.29,0,1,0,.12.392A.29.29,0,0,0,193.777,320.943Z" transform="translate(-192.541 -290.685)" fill="#ffeaa2"/>
          <path id="Path_11560" data-name="Path 11560" d="M218.047,325.985a.61.61,0,1,0,.592.627A.61.61,0,0,0,218.047,325.985Z" transform="translate(-212.648 -294.925)" fill="#ffeaa2"/>
          <path id="Path_11561" data-name="Path 11561" d="M382.261,241.067a.482.482,0,1,0-.229.641A.482.482,0,0,0,382.261,241.067Z" transform="translate(-349.591 -223.754)" fill="#ffeaa2"/>
          <path id="Path_11562" data-name="Path 11562" d="M211.817,300.885a.29.29,0,1,0,.282.3A.29.29,0,0,0,211.817,300.885Z" transform="translate(-207.718 -273.957)" fill="#ffeaa2"/>
          <path id="Path_11563" data-name="Path 11563" d="M205.733,316.021a.451.451,0,1,0,.54.339A.451.451,0,0,0,205.733,316.021Z" transform="translate(-202.592 -286.591)" fill="#ffeaa2"/>
          <path id="Path_11564" data-name="Path 11564" d="M209.173,308.388a.356.356,0,1,0,.426.268A.356.356,0,0,0,209.173,308.388Z" transform="translate(-205.527 -280.217)" fill="#ffeaa2"/>
          <path id="Path_11565" data-name="Path 11565" d="M200.459,310.513a.214.214,0,1,0-.257-.161A.214.214,0,0,0,200.459,310.513Z" transform="translate(-198.26 -281.646)" fill="#ffeaa2"/>
          <path id="Path_11566" data-name="Path 11566" d="M199.32,138.178a.61.61,0,1,0-.825.253A.61.61,0,0,0,199.32,138.178Z" transform="translate(-196.568 -137.282)" fill="#ffeaa2"/>
          <path id="Path_11567" data-name="Path 11567" d="M366.146,265.04a.481.481,0,1,0-.49.473A.481.481,0,0,0,366.146,265.04Z" transform="translate(-336.09 -243.603)" fill="#ffeaa2"/>
          <path id="Path_11568" data-name="Path 11568" d="M380.333,254.607a.29.29,0,1,0-.3.285A.29.29,0,0,0,380.333,254.607Z" transform="translate(-348.261 -235.049)" fill="#ffeaa2"/>
          <path id="Path_11569" data-name="Path 11569" d="M222.149,147.723a.61.61,0,1,0,.592.627A.61.61,0,0,0,222.149,147.723Z" transform="translate(-216.074 -146.004)" fill="#ffeaa2"/>
          <path id="Path_11570" data-name="Path 11570" d="M220.035,140.266a.481.481,0,1,0-.495.468.481.481,0,0,0,.495-.468Z" transform="translate(-214.028 -139.361)" fill="#ffeaa2"/>
          <path id="Path_11571" data-name="Path 11571" d="M212.075,139.24a.29.29,0,1,0,.282.3A.29.29,0,0,0,212.075,139.24Z" transform="translate(-207.933 -138.918)" fill="#ffeaa2"/>
          <path id="Path_11572" data-name="Path 11572" d="M380.4,271.552a.451.451,0,1,0-.058.635A.451.451,0,0,0,380.4,271.552Z" transform="translate(-348.135 -249.316)" fill="#ffeaa2"/>
          <path id="Path_11573" data-name="Path 11573" d="M209.432,146.744a.356.356,0,1,0,.426.268A.356.356,0,0,0,209.432,146.744Z" transform="translate(-205.743 -145.179)" fill="#ffeaa2"/>
          <path id="Path_11574" data-name="Path 11574" d="M200.718,148.868a.214.214,0,1,0-.257-.161A.214.214,0,0,0,200.718,148.868Z" transform="translate(-198.476 -146.607)" fill="#ffeaa2"/>
        </g>
        <g id="Group_2144" data-name="Group 2144" transform="translate(33.618 8.575)">
          <path id="Path_11575" data-name="Path 11575" d="M305.769,218.056a.61.61,0,1,0,.841-.193A.61.61,0,0,0,305.769,218.056Z" transform="translate(-290.559 -213.097)" fill="#ffeaa2"/>
          <path id="Path_11576" data-name="Path 11576" d="M317.338,214.38a.481.481,0,1,0-.152-.664A.481.481,0,0,0,317.338,214.38Z" transform="translate(-300.113 -209.522)" fill="#ffeaa2"/>
          <path id="Path_11577" data-name="Path 11577" d="M315.686,200.729a.29.29,0,1,0-.092-.4A.29.29,0,0,0,315.686,200.729Z" transform="translate(-298.808 -198.412)" fill="#ffeaa2"/>
          <path id="Path_11578" data-name="Path 11578" d="M288.721,190.595a.61.61,0,1,0-.546-.668A.61.61,0,0,0,288.721,190.595Z" transform="translate(-275.937 -189.378)" fill="#ffeaa2"/>
          <path id="Path_11579" data-name="Path 11579" d="M268.188,216.648a.481.481,0,1,0-.431-.527A.482.482,0,0,0,268.188,216.648Z" transform="translate(-258.88 -211.357)" fill="#ffeaa2"/>
          <path id="Path_11580" data-name="Path 11580" d="M296.247,219.435a.29.29,0,1,0-.26-.318A.29.29,0,0,0,296.247,219.435Z" transform="translate(-282.464 -214.004)" fill="#ffeaa2"/>
          <path id="Path_11581" data-name="Path 11581" d="M301.838,203.091a.451.451,0,1,0-.514-.377A.451.451,0,0,0,301.838,203.091Z" transform="translate(-286.92 -200.086)" fill="#ffeaa2"/>
          <path id="Path_11582" data-name="Path 11582" d="M298.784,211.453a.356.356,0,1,0-.405-.3A.356.356,0,0,0,298.784,211.453Z" transform="translate(-284.46 -207.229)" fill="#ffeaa2"/>
          <path id="Path_11583" data-name="Path 11583" d="M309.009,211.446a.214.214,0,1,0,.244.18A.215.215,0,0,0,309.009,211.446Z" transform="translate(-293.192 -207.812)" fill="#ffeaa2"/>
          <path id="Path_11584" data-name="Path 11584" d="M236.466,224.02a.61.61,0,1,0,.841-.193A.61.61,0,0,0,236.466,224.02Z" transform="translate(-232.663 -218.079)" fill="#ffeaa2"/>
          <path id="Path_11585" data-name="Path 11585" d="M255.982,190.467a.481.481,0,1,0-.152-.664A.481.481,0,0,0,255.982,190.467Z" transform="translate(-248.856 -189.545)" fill="#ffeaa2"/>
          <path id="Path_11586" data-name="Path 11586" d="M259.891,208.645a.29.29,0,1,0-.092-.4A.29.29,0,0,0,259.891,208.645Z" transform="translate(-252.197 -205.026)" fill="#ffeaa2"/>
          <path id="Path_11587" data-name="Path 11587" d="M214.386,212.856a.61.61,0,1,0-.546-.668A.61.61,0,0,0,214.386,212.856Z" transform="translate(-213.837 -207.975)" fill="#ffeaa2"/>
          <path id="Path_11588" data-name="Path 11588" d="M217.211,221.794a.481.481,0,1,0,.527-.431A.481.481,0,0,0,217.211,221.794Z" transform="translate(-216.653 -216.096)" fill="#ffeaa2"/>
          <path id="Path_11589" data-name="Path 11589" d="M226.943,225.4a.29.29,0,1,0-.26-.318A.29.29,0,0,0,226.943,225.4Z" transform="translate(-224.568 -218.986)" fill="#ffeaa2"/>
          <path id="Path_11590" data-name="Path 11590" d="M243.417,199.412a.451.451,0,1,0-.514-.377A.451.451,0,0,0,243.417,199.412Z" transform="translate(-238.115 -197.012)" fill="#ffeaa2"/>
          <path id="Path_11591" data-name="Path 11591" d="M229.48,217.418a.356.356,0,1,0-.405-.3A.356.356,0,0,0,229.48,217.418Z" transform="translate(-226.563 -212.212)" fill="#ffeaa2"/>
          <path id="Path_11592" data-name="Path 11592" d="M239.7,217.411a.214.214,0,1,0,.244.18A.214.214,0,0,0,239.7,217.411Z" transform="translate(-235.295 -212.795)" fill="#ffeaa2"/>
        </g>
        <g id="Group_2145" data-name="Group 2145" transform="translate(0 38.782)">
          <path id="Path_11593" data-name="Path 11593" d="M96.027,392.538a.61.61,0,1,0,.69-.517A.61.61,0,0,0,96.027,392.538Z" transform="translate(-81.795 -388.868)" fill="#ffeaa2"/>
          <path id="Path_11594" data-name="Path 11594" d="M104.9,384.807a.481.481,0,1,0-.408-.545A.482.482,0,0,0,104.9,384.807Z" transform="translate(-88.868 -382.047)" fill="#ffeaa2"/>
          <path id="Path_11595" data-name="Path 11595" d="M97.542,373.477a.29.29,0,1,0-.246-.328A.29.29,0,0,0,97.542,373.477Z" transform="translate(-82.857 -372.899)" fill="#ffeaa2"/>
          <path id="Path_11596" data-name="Path 11596" d="M69.3,374.355a.61.61,0,1,0-.77-.389A.61.61,0,0,0,69.3,374.355Z" transform="translate(-58.805 -373.122)" fill="#ffeaa2"/>
          <path id="Path_11597" data-name="Path 11597" d="M60.9,406.819a.481.481,0,1,0-.608-.307A.481.481,0,0,0,60.9,406.819Z" transform="translate(-51.925 -400.452)" fill="#ffeaa2"/>
          <path id="Path_11598" data-name="Path 11598" d="M87.363,398.46a.29.29,0,1,0-.366-.185A.29.29,0,0,0,87.363,398.46Z" transform="translate(-74.244 -393.779)" fill="#ffeaa2"/>
          <path id="Path_11599" data-name="Path 11599" d="M86.1,380.854a.451.451,0,1,0-.623-.137A.451.451,0,0,0,86.1,380.854Z" transform="translate(-72.93 -378.851)" fill="#ffeaa2"/>
          <path id="Path_11600" data-name="Path 11600" d="M86.551,389.972a.356.356,0,1,0-.491-.108A.356.356,0,0,0,86.551,389.972Z" transform="translate(-73.426 -386.614)" fill="#ffeaa2"/>
          <path id="Path_11601" data-name="Path 11601" d="M95.664,386.17a.214.214,0,1,0,.3.065A.215.215,0,0,0,95.664,386.17Z" transform="translate(-81.414 -383.957)" fill="#ffeaa2"/>
          <path id="Path_11602" data-name="Path 11602" d="M35.1,426.107a.61.61,0,1,0,.69-.517A.61.61,0,0,0,35.1,426.107Z" transform="translate(-30.898 -416.911)" fill="#ffeaa2"/>
          <path id="Path_11603" data-name="Path 11603" d="M39.119,387.842a.481.481,0,1,0-.408-.545A.481.481,0,0,0,39.119,387.842Z" transform="translate(-33.914 -384.582)" fill="#ffeaa2"/>
          <path id="Path_11604" data-name="Path 11604" d="M49.758,403.348a.29.29,0,1,0-.246-.328A.29.29,0,0,0,49.758,403.348Z" transform="translate(-42.938 -397.853)" fill="#ffeaa2"/>
          <path id="Path_11605" data-name="Path 11605" d="M10.39,424.859a.61.61,0,1,0-.77-.389A.61.61,0,0,0,10.39,424.859Z" transform="translate(-9.59 -415.313)" fill="#ffeaa2"/>
          <path id="Path_11606" data-name="Path 11606" d="M16.391,432.2a.481.481,0,1,0,.307-.608A.481.481,0,0,0,16.391,432.2Z" transform="translate(-15.252 -421.916)" fill="#ffeaa2"/>
          <path id="Path_11607" data-name="Path 11607" d="M26.439,432.029a.29.29,0,1,0-.366-.185A.29.29,0,0,0,26.439,432.029Z" transform="translate(-23.348 -421.823)" fill="#ffeaa2"/>
          <path id="Path_11608" data-name="Path 11608" d="M31.214,401.193a.451.451,0,1,0-.623-.136A.451.451,0,0,0,31.214,401.193Z" transform="translate(-27.075 -395.843)" fill="#ffeaa2"/>
          <path id="Path_11609" data-name="Path 11609" d="M25.627,423.54a.356.356,0,1,0-.491-.108A.356.356,0,0,0,25.627,423.54Z" transform="translate(-22.53 -414.658)" fill="#ffeaa2"/>
          <path id="Path_11610" data-name="Path 11610" d="M34.74,419.739a.214.214,0,1,0,.3.065A.215.215,0,0,0,34.74,419.739Z" transform="translate(-30.518 -412.001)" fill="#ffeaa2"/>
        </g>
      </g>
      <g id="Group_2148" data-name="Group 2148" transform="translate(32.028 25.56)">
        <ellipse id="Ellipse_20" data-name="Ellipse 20" cx="3.779" cy="2.663" rx="3.779" ry="2.663" transform="translate(0 0)" fill="url(#linear-gradient-9)"/>
        <g id="Group_2147" data-name="Group 2147" transform="translate(1.78 0.45)">
          <circle id="Ellipse_21" data-name="Ellipse 21" cx="0.604" cy="0.604" r="0.604" transform="translate(0.994)" fill="url(#linear-gradient-10)"/>
          <ellipse id="Ellipse_22" data-name="Ellipse 22" cx="0.477" cy="0.477" rx="0.477" ry="0.477" transform="translate(0 1.689)" fill="url(#linear-gradient-11)"/>
          <ellipse id="Ellipse_23" data-name="Ellipse 23" cx="0.287" cy="0.287" rx="0.287" ry="0.287" transform="translate(2.267 2.278)" fill="url(#linear-gradient-12)"/>
        </g>
      </g>
      <g id="Group_2150" data-name="Group 2150" transform="translate(16.376 39.117)">
        <ellipse id="Ellipse_24" data-name="Ellipse 24" cx="3.779" cy="2.663" rx="3.779" ry="2.663" transform="translate(0 0)" fill="url(#linear-gradient-9)"/>
        <g id="Group_2149" data-name="Group 2149" transform="translate(1.78 0.45)">
          <circle id="Ellipse_25" data-name="Ellipse 25" cx="0.604" cy="0.604" r="0.604" transform="translate(0.994)" fill="url(#linear-gradient-14)"/>
          <ellipse id="Ellipse_26" data-name="Ellipse 26" cx="0.477" cy="0.477" rx="0.477" ry="0.477" transform="translate(0 1.689)" fill="url(#linear-gradient-15)"/>
          <ellipse id="Ellipse_27" data-name="Ellipse 27" cx="0.287" cy="0.287" rx="0.287" ry="0.287" transform="translate(2.267 2.278)" fill="url(#linear-gradient-16)"/>
        </g>
      </g>
      <g id="Group_2152" data-name="Group 2152" transform="translate(35.86 43.016)">
        <ellipse id="Ellipse_28" data-name="Ellipse 28" cx="3.779" cy="2.663" rx="3.779" ry="2.663" fill="url(#linear-gradient-9)"/>
        <g id="Group_2151" data-name="Group 2151" transform="translate(1.78 0.45)">
          <circle id="Ellipse_29" data-name="Ellipse 29" cx="0.604" cy="0.604" r="0.604" transform="translate(0.994)" fill="url(#linear-gradient-18)"/>
          <ellipse id="Ellipse_30" data-name="Ellipse 30" cx="0.477" cy="0.477" rx="0.477" ry="0.477" transform="translate(0 1.689)" fill="url(#linear-gradient-19)"/>
          <ellipse id="Ellipse_31" data-name="Ellipse 31" cx="0.287" cy="0.287" rx="0.287" ry="0.287" transform="translate(2.267 2.278)" fill="url(#linear-gradient-20)"/>
        </g>
      </g>
      <g id="Group_2154" data-name="Group 2154" transform="translate(63.732 34.201)">
        <ellipse id="Ellipse_32" data-name="Ellipse 32" cx="3.779" cy="2.663" rx="3.779" ry="2.663" fill="url(#linear-gradient-9)"/>
        <g id="Group_2153" data-name="Group 2153" transform="translate(1.78 0.45)">
          <circle id="Ellipse_33" data-name="Ellipse 33" cx="0.604" cy="0.604" r="0.604" transform="translate(0.994)" fill="url(#linear-gradient-22)"/>
          <ellipse id="Ellipse_34" data-name="Ellipse 34" cx="0.477" cy="0.477" rx="0.477" ry="0.477" transform="translate(0 1.689)" fill="url(#linear-gradient-23)"/>
          <ellipse id="Ellipse_35" data-name="Ellipse 35" cx="0.287" cy="0.287" rx="0.287" ry="0.287" transform="translate(2.267 2.278)" fill="url(#linear-gradient-24)"/>
        </g>
      </g>
      <g id="Group_2156" data-name="Group 2156" transform="translate(32.23 9.724)">
        <ellipse id="Ellipse_36" data-name="Ellipse 36" cx="3.779" cy="2.663" rx="3.779" ry="2.663" transform="translate(0 0)" fill="url(#linear-gradient-9)"/>
        <g id="Group_2155" data-name="Group 2155" transform="translate(1.78 0.45)">
          <circle id="Ellipse_37" data-name="Ellipse 37" cx="0.604" cy="0.604" r="0.604" transform="translate(0.994)" fill="url(#linear-gradient-26)"/>
          <ellipse id="Ellipse_38" data-name="Ellipse 38" cx="0.477" cy="0.477" rx="0.477" ry="0.477" transform="translate(0 1.689)" fill="url(#linear-gradient-27)"/>
          <ellipse id="Ellipse_39" data-name="Ellipse 39" cx="0.287" cy="0.287" rx="0.287" ry="0.287" transform="translate(2.267 2.278)" fill="url(#linear-gradient-28)"/>
        </g>
      </g>
      <g id="Group_2157" data-name="Group 2157" transform="translate(25.85 13.364)">
        <path id="Path_11611" data-name="Path 11611" d="M172.924,117.119a11.554,11.554,0,0,0-13.153,0c-3.632,2.739-3.632,7.18,0,9.918a11.554,11.554,0,0,0,13.153,0C176.556,124.3,176.556,119.858,172.924,117.119Zm-10.753,6.742c-2.306-1.519-2.306-3.983,0-5.5a8.222,8.222,0,0,1,8.351,0c2.306,1.519,2.307,3.982,0,5.5A8.224,8.224,0,0,1,162.172,123.862Z" transform="translate(-157.048 -115.065)" fill="url(#linear-gradient-29)"/>
        <path id="Path_11612" data-name="Path 11612" d="M168.815,129.677a9.909,9.909,0,0,0,10.941,0c3.022-2.2,3.021-5.757,0-7.953a9.906,9.906,0,0,0-10.941,0C165.794,123.92,165.793,127.481,168.815,129.677Zm9.647-7.13c2.306,1.519,2.306,3.983,0,5.5a8.222,8.222,0,0,1-8.351,0c-2.306-1.519-2.307-3.982,0-5.5A8.225,8.225,0,0,1,178.462,122.547Z" transform="translate(-164.985 -119.252)" fill="url(#linear-gradient-30)"/>
      </g>
      <path id="Path_11613" data-name="Path 11613" d="M24.69,363.778a3.543,3.543,0,0,0,3.875-.869c.153-.2.085-.43-.128-.668a.525.525,0,0,1,.173-.823l.055-.036c.419-.274.323-.757-.187-.94l-2.029-.727c-.51-.183-1.123.047-1.192.446a.84.84,0,0,1-.851.564,1,1,0,0,0-.768.282C22.859,362.012,23.33,363.253,24.69,363.778Z" transform="translate(-19.433 -306.029)" fill="url(#linear-gradient-31)"/>
      <g id="Group_2158" data-name="Group 2158" transform="translate(5.327 45.464)">
        <path id="Path_11614" data-name="Path 11614" d="M45.914,311.843a9.862,9.862,0,0,0-11.227,0c-3.1,2.338-3.1,6.128,0,8.466a9.862,9.862,0,0,0,11.227,0C49.014,317.971,49.014,314.181,45.914,311.843ZM36.735,317.6c-1.968-1.3-1.968-3.4,0-4.7a7.018,7.018,0,0,1,7.128,0c1.968,1.3,1.969,3.4,0,4.7A7.02,7.02,0,0,1,36.735,317.6Z" transform="translate(-32.362 -310.09)" fill="url(#linear-gradient-32)"/>
        <path id="Path_11615" data-name="Path 11615" d="M42.406,322.561a8.458,8.458,0,0,0,9.339,0c2.579-1.875,2.578-4.914,0-6.788a8.456,8.456,0,0,0-9.339,0C39.828,317.647,39.827,320.686,42.406,322.561Zm8.234-6.086c1.968,1.3,1.968,3.4,0,4.7a7.018,7.018,0,0,1-7.128,0c-1.968-1.3-1.969-3.4,0-4.7A7.02,7.02,0,0,1,50.64,316.475Z" transform="translate(-39.137 -313.663)" fill="url(#linear-gradient-33)"/>
      </g>
      <path id="Path_11616" data-name="Path 11616" d="M318.236,268.586a3.543,3.543,0,0,0-3.875.869c-.153.2-.085.43.128.668a.525.525,0,0,1-.173.823l-.055.036c-.419.274-.323.758.187.94l2.029.727c.51.183,1.123-.047,1.192-.446a.84.84,0,0,1,.851-.564,1,1,0,0,0,.768-.282C320.067,270.352,319.6,269.111,318.236,268.586Z" transform="translate(-262.315 -229.758)" fill="url(#linear-gradient-34)"/>
      <g id="Group_2160" data-name="Group 2160" transform="translate(46.286 29.277)">
        <ellipse id="Ellipse_40" data-name="Ellipse 40" cx="7.176" cy="5.056" rx="7.176" ry="5.056" transform="translate(0 0)" fill="url(#linear-gradient-35)"/>
        <g id="Group_2159" data-name="Group 2159" transform="translate(3.38 0.854)">
          <circle id="Ellipse_41" data-name="Ellipse 41" cx="1.146" cy="1.146" r="1.146" transform="translate(1.887)" fill="url(#linear-gradient-36)"/>
          <circle id="Ellipse_42" data-name="Ellipse 42" cx="0.905" cy="0.905" r="0.905" transform="translate(0 3.206)" fill="url(#linear-gradient-37)"/>
          <circle id="Ellipse_43" data-name="Ellipse 43" cx="0.546" cy="0.546" r="0.546" transform="translate(4.305 4.325)" fill="url(#linear-gradient-38)"/>
        </g>
      </g>
      <g id="Group_2162" data-name="Group 2162" transform="translate(16.013 42.621)">
        <ellipse id="Ellipse_44" data-name="Ellipse 44" cx="7.176" cy="5.056" rx="7.176" ry="5.056" transform="translate(0 0)" fill="url(#linear-gradient-35)"/>
        <g id="Group_2161" data-name="Group 2161" transform="translate(3.38 0.854)">
          <circle id="Ellipse_45" data-name="Ellipse 45" cx="1.146" cy="1.146" r="1.146" transform="translate(1.887)" fill="url(#linear-gradient-40)"/>
          <circle id="Ellipse_46" data-name="Ellipse 46" cx="0.905" cy="0.905" r="0.905" transform="translate(0 3.206)" fill="url(#linear-gradient-41)"/>
          <circle id="Ellipse_47" data-name="Ellipse 47" cx="0.546" cy="0.546" r="0.546" transform="translate(4.305 4.325)" fill="url(#linear-gradient-42)"/>
        </g>
      </g>
      <path id="Path_11617" data-name="Path 11617" d="M212.253,229.45a3.544,3.544,0,0,0-3.875.869c-.153.2-.085.43.128.668a.525.525,0,0,1-.173.823l-.055.036c-.419.274-.323.758.187.94l2.029.727c.51.183,1.123-.047,1.191-.446a.84.84,0,0,1,.851-.564,1,1,0,0,0,.768-.282C214.084,231.216,213.613,229.975,212.253,229.45Z" transform="translate(-173.776 -197.064)" fill="url(#linear-gradient-34)"/>
      <path id="Path_11618" data-name="Path 11618" d="M225.62,300.466c1.667-.277,2.909-1.33,2.909-2.589,0-1.471-1.692-2.663-3.779-2.663a4.339,4.339,0,0,0-3.168,1.213Z" transform="translate(-185.109 -252.198)" fill="url(#linear-gradient-44)"/>
      <g id="Group_2163" data-name="Group 2163" transform="translate(33.815 33.59)">
        <path id="Path_11619" data-name="Path 11619" d="M218.992,239.7a9.862,9.862,0,0,0-11.227,0c-3.1,2.338-3.1,6.128,0,8.466a9.862,9.862,0,0,0,11.227,0C222.092,245.831,222.092,242.041,218.992,239.7Zm-9.178,5.755c-1.968-1.3-1.968-3.4,0-4.7a7.018,7.018,0,0,1,7.128,0c1.968,1.3,1.969,3.4,0,4.7A7.02,7.02,0,0,1,209.814,245.458Z" transform="translate(-205.44 -237.95)" fill="url(#linear-gradient-45)"/>
        <path id="Path_11620" data-name="Path 11620" d="M215.485,250.421a8.458,8.458,0,0,0,9.339,0c2.579-1.875,2.578-4.914,0-6.788a8.456,8.456,0,0,0-9.339,0C212.907,245.507,212.906,248.546,215.485,250.421Zm8.234-6.086c1.968,1.3,1.968,3.4,0,4.7a7.018,7.018,0,0,1-7.128,0c-1.968-1.3-1.969-3.4,0-4.7A7.019,7.019,0,0,1,223.719,244.335Z" transform="translate(-212.216 -241.523)" fill="url(#linear-gradient-46)"/>
      </g>
      <path id="Path_11621" data-name="Path 11621" d="M59.469,278.646c-1.809,0-3.275,1.044-3.275,2.333s1.466,2.333,3.275,2.333,3.275-1.044,3.275-2.333S61.278,278.646,59.469,278.646Zm0,3.323c-.768,0-1.39-.443-1.39-.99s.622-.99,1.39-.99,1.39.443,1.39.99S60.237,281.969,59.469,281.969Z" transform="translate(-46.944 -238.357)" fill="url(#linear-gradient-47)"/>
      <path id="Path_11622" data-name="Path 11622" d="M160.322,251.023c-1.809,0-3.275,1.044-3.275,2.333s1.466,2.333,3.275,2.333,3.275-1.044,3.275-2.333S162.131,251.023,160.322,251.023Zm0,3.323c-.768,0-1.39-.443-1.39-.99s.622-.99,1.39-.99,1.39.443,1.39.99S161.09,254.346,160.322,254.346Z" transform="translate(-131.197 -215.281)" fill="url(#linear-gradient-47)"/>
      <path id="Path_11623" data-name="Path 11623" d="M288.76,179.706c-1.809,0-3.275,1.044-3.275,2.333s1.466,2.333,3.275,2.333,3.275-1.044,3.275-2.333S290.569,179.706,288.76,179.706Zm0,3.323c-.768,0-1.39-.443-1.39-.99s.622-.99,1.39-.99,1.39.443,1.39.99S289.528,183.029,288.76,183.029Z" transform="translate(-238.495 -155.703)" fill="url(#linear-gradient-49)"/>
      <path id="Path_11624" data-name="Path 11624" d="M20.1,388.757c-1.809,0-3.275,1.044-3.275,2.333s1.466,2.333,3.275,2.333,3.275-1.044,3.275-2.333S21.912,388.757,20.1,388.757Zm0,3.323c-.768,0-1.39-.443-1.39-.99s.622-.99,1.39-.99,1.39.443,1.39.99S20.871,392.08,20.1,392.08Z" transform="translate(-14.058 -330.344)" fill="url(#linear-gradient-47)"/>
      <g id="Group_2165" data-name="Group 2165" transform="translate(16.775 25.075)">
        <ellipse id="Ellipse_48" data-name="Ellipse 48" cx="7.176" cy="5.056" rx="7.176" ry="5.056" transform="translate(0 0)" fill="url(#linear-gradient-35)"/>
        <g id="Group_2164" data-name="Group 2164" transform="translate(3.38 0.854)">
          <circle id="Ellipse_49" data-name="Ellipse 49" cx="1.146" cy="1.146" r="1.146" transform="translate(1.887)" fill="url(#linear-gradient-52)"/>
          <circle id="Ellipse_50" data-name="Ellipse 50" cx="0.905" cy="0.905" r="0.905" transform="translate(0 3.206)" fill="url(#linear-gradient-53)"/>
          <circle id="Ellipse_51" data-name="Ellipse 51" cx="0.546" cy="0.546" r="0.546" transform="translate(4.305 4.325)" fill="url(#linear-gradient-54)"/>
        </g>
      </g>
      <path id="Path_11625" data-name="Path 11625" d="M278.9,136.734a3.543,3.543,0,0,0-3.875.869c-.153.2-.085.43.128.668a.525.525,0,0,1-.173.823l-.055.036c-.419.274-.323.757.187.94l2.029.727c.51.183,1.122-.047,1.191-.446a.84.84,0,0,1,.851-.564,1,1,0,0,0,.768-.282C280.735,138.5,280.264,137.259,278.9,136.734Z" transform="translate(-229.457 -119.608)" fill="url(#linear-gradient-34)"/>
      <path id="Path_11626" data-name="Path 11626" d="M197.3,45.47c6.156,2.34,11.978,5.815,19.436,11.292s13.2,13.679,17.452,18.988c2.287,2.851,8.583,2.333,10.662-.916,1.388-2.17,1.393-6.553-.022-8.559-4.174-5.921-11.2-12.876-19.887-19.254s-17.273-10.9-23.932-12.933a5.445,5.445,0,0,0-6.12,2.492c-2.079,3.249-.895,7.632,2.412,8.889Z" transform="translate(-161.948 -33.875)" fill="url(#linear-gradient-56)"/>
    </g>
  </g>
</svg>
