<svg xmlns="http://www.w3.org/2000/svg" xmlns:xlink="http://www.w3.org/1999/xlink" width="120" height="100" viewBox="0 0 120 100">
  <defs>
    <clipPath id="clip-path">
      <rect id="Rectangle_1116" data-name="Rectangle 1116" width="120" height="100" transform="translate(1059 882)" fill="#fff"/>
    </clipPath>
  </defs>
  <g id="Mask_Group_22" data-name="Mask Group 22" transform="translate(-1059 -882)" clip-path="url(#clip-path)">
    <g id="serving-dish" transform="translate(1079 897.046)">
      <path id="Path_11523" data-name="Path 11523" d="M235.521,1.957a4.722,4.722,0,1,1-9.443,0c0-2.607,9.443-2.607,9.443,0Zm0,0" transform="translate(-190.403 -0.002)" fill="#d8d8d8"/>
      <path id="Path_11524" data-name="Path 11524" d="M74.387,38.2A34.028,34.028,0,0,0,40.359,72.227h68.056A34.028,34.028,0,0,0,74.387,38.2Zm0,0" transform="translate(-33.99 -32.172)" fill="#efefef"/>
      <path id="Path_11525" data-name="Path 11525" d="M231.02,38.2a34.27,34.27,0,0,0-4.68.322,34.032,34.032,0,0,1,29.347,33.705h9.361A34.028,34.028,0,0,0,231.02,38.2Zm0,0" transform="translate(-190.624 -32.172)" fill="#e2e2e2"/>
      <path id="Path_11526" data-name="Path 11526" d="M78.459,253.7H2.334A2.334,2.334,0,0,1,0,251.363v-1.486a2.334,2.334,0,0,1,2.334-2.334H78.459a2.334,2.334,0,0,1,2.334,2.334v1.486a2.334,2.334,0,0,1-2.334,2.334Zm0,0" transform="translate(0 -208.481)" fill="#d8d8d8"/>
      <path id="Path_11527" data-name="Path 11527" d="M43.72,312.516l.558-2.387a9.155,9.155,0,0,1,6.78-6.81c3.52-.815,7.574-.305,10.317.149a22.006,22.006,0,0,0,9.4-.507l4.483-1.239A21.867,21.867,0,0,0,83,297.808l7.732-6.848c2.014-1.486.523-6.077-3.161-3.787l-7.611,5.038-7.529,2.178-5.344.116,3.6-1.908a2.919,2.919,0,0,0,1.333-3.768,2.86,2.86,0,0,0-1.01-1.209,3.036,3.036,0,0,0-2.312-.453l-10.559,2.2-8.061-2.175a12.222,12.222,0,0,0-3.457-.661,12.746,12.746,0,0,0-8.2,3.613l-.025.023-9.892,12.012Zm0,0" transform="translate(-24.009 -241.317)" fill="#ffe7cf"/>
      <path id="Path_11528" data-name="Path 11528" d="M122.83,289.027l-8.556,6.219c-2.307,1.815-7.684,5.249-27.506,3.542-2.77-.239-6.8-.965-10.317-.15-2.65.614-7.76,7.109-9.74,9.74l9.184,6.239.558-2.387a9.155,9.155,0,0,1,6.781-6.811c3.52-.815,7.574-.305,10.317.15a22.014,22.014,0,0,0,9.4-.507l4.483-1.239a21.878,21.878,0,0,0,7.74-3.915l7.733-6.848a2.64,2.64,0,0,0-.076-4.034Zm0,0" transform="translate(-56.183 -243.419)" fill="#f4d5ba"/>
      <path id="Path_11529" data-name="Path 11529" d="M30.39,364.489,14.835,353.922a2.146,2.146,0,0,0-2.982.571l-2.273,3.353a2.145,2.145,0,0,0,.57,2.978l15.555,10.567a2.146,2.146,0,0,0,2.982-.571l2.273-3.352A2.146,2.146,0,0,0,30.39,364.489Zm0,0" transform="translate(-7.758 -297.762)" fill="#0d6e9a"/>
      <path id="Path_11530" data-name="Path 11530" d="M86.551,401.2l-5.975-4.06-4.681,6.9,5.972,4.057a2.143,2.143,0,0,0,2.906-.472l2.413-3.558A2.143,2.143,0,0,0,86.551,401.2Zm0,0" transform="translate(-63.919 -334.472)" fill="#09627a"/>
    </g>
  </g>
</svg>
