<svg xmlns="http://www.w3.org/2000/svg" width="15.794" height="13.309" viewBox="0 0 15.794 13.309">
  <path id="shopping-cart_1_" data-name="shopping-cart (1)" d="M15.124,44.769H11.848L10.01,40.56a.463.463,0,1,0-.848.37l1.676,3.838H4.955l1.676-3.838a.463.463,0,1,0-.848-.37L3.946,44.769H.669a.658.658,0,0,0-.653.8l1.725,7.515a.666.666,0,0,0,.653.511h11a.666.666,0,0,0,.653-.511l1.725-7.515A.658.658,0,0,0,15.124,44.769ZM4.033,46.188a.463.463,0,0,1-.424-.648l.348-.8h1.01L4.457,45.91a.463.463,0,0,1-.424.278Zm1.55,4.936a.463.463,0,1,1-.925,0V47.73a.463.463,0,1,1,.925,0Zm2.776,0a.463.463,0,1,1-.925,0V47.73a.463.463,0,1,1,.925,0Zm2.776,0a.463.463,0,1,1-.925,0V47.73a.463.463,0,1,1,.925,0Zm.81-4.974a.462.462,0,0,1-.609-.239l-.509-1.166h1.01l.348.8A.463.463,0,0,1,11.945,46.149Z" transform="translate(0 -40.283)" fill="#7dd87d"/>
</svg>
