<svg id="shrimp" xmlns="http://www.w3.org/2000/svg" width="22.38" height="20.84" viewBox="0 0 22.38 20.84">
  <g id="Group_2496" data-name="Group 2496" transform="translate(15.014 10.416)">
    <path id="Path_11955" data-name="Path 11955" d="M343.838,259.208a.334.334,0,0,1-.324-.255,3.275,3.275,0,0,1,1.106-2.946.333.333,0,0,1,.47.47,2.641,2.641,0,0,0-.929,2.32.333.333,0,0,1-.323.41Z" transform="translate(-343.472 -255.91)" fill="#f1562e"/>
  </g>
  <g id="Group_2497" data-name="Group 2497" transform="translate(15.679 11.249)">
    <path id="Path_11956" data-name="Path 11956" d="M359.034,277.667a.325.325,0,0,1-.05,0,.333.333,0,0,1-.279-.378,3.275,3.275,0,0,1,2.139-2.307.333.333,0,0,1,.257.614,2.642,2.642,0,0,0-1.739,1.793A.333.333,0,0,1,359.034,277.667Z" transform="translate(-358.701 -274.952)" fill="#f1562e"/>
  </g>
  <g id="Group_2498" data-name="Group 2498" transform="translate(13.697 10.343)">
    <path id="Path_11957" data-name="Path 11957" d="M313.8,257.662a.335.335,0,0,1-.309-.206,3.275,3.275,0,0,1,.642-3.08.333.333,0,0,1,.537.393,2.641,2.641,0,0,0-.563,2.435.332.332,0,0,1-.307.459Z" transform="translate(-313.352 -254.239)" fill="#f1562e"/>
  </g>
  <g id="Group_2499" data-name="Group 2499" transform="translate(12.872 6.794)">
    <path id="Path_11958" data-name="Path 11958" d="M294.538,173.048h4.1a5.355,5.355,0,0,1,.98,10.62l-2.086.388-.884-2.3,2.478-1.514a1.251,1.251,0,0,0-.652-2.318h-3.988Z" transform="translate(-294.488 -173.048)" fill="#fd7e42"/>
  </g>
  <g id="Group_2500" data-name="Group 2500">
    <path id="Path_11959" data-name="Path 11959" d="M3.383,29.182A3.35,3.35,0,0,1,.312,27.858c-.6-1.017-.33-2.435.753-3.993A15.034,15.034,0,0,1,5.751,19.75c3.149-1.851,6.443-2.582,8.392-1.864a.333.333,0,0,1-.23.624c-1.743-.642-4.887.087-7.825,1.813-3.8,2.234-6.183,5.53-5.2,7.2.577.982,2.321,1.262,4.55.73a.333.333,0,1,1,.154.647,9.592,9.592,0,0,1-2.207.284Z" transform="translate(0 -17.613)" fill="#fd7e42"/>
  </g>
  <g id="Group_2501" data-name="Group 2501" transform="translate(0.606 2.612)">
    <path id="Path_11960" data-name="Path 11960" d="M18.448,86.026a.332.332,0,0,1-.048,0c-2.607-.38-4.3-1.472-4.519-2.92-.179-1.166.595-2.384,2.178-3.431a15.033,15.033,0,0,1,5.876-2.088c3.61-.554,6.941-.014,8.486,1.375a.333.333,0,0,1-.445.495c-1.381-1.242-4.572-1.729-7.94-1.212a14.363,14.363,0,0,0-5.61,1.986C15.092,81.109,14.4,82.12,14.539,83c.173,1.126,1.689,2.031,3.957,2.362a.333.333,0,0,1-.048.662Z" transform="translate(-13.856 -77.369)" fill="#fd7e42"/>
  </g>
  <g id="Group_2503" data-name="Group 2503" transform="translate(15.591 7.418)">
    <g id="Group_2502" data-name="Group 2502" transform="translate(0 0)">
      <path id="Path_11961" data-name="Path 11961" d="M360.635,187.321a5.355,5.355,0,0,1-2.564,9.279l-1.379.257.327.849,2.086-.388a5.356,5.356,0,0,0,1.53-10Z" transform="translate(-356.691 -187.321)" fill="#fc5327"/>
    </g>
  </g>
  <g id="Group_2504" data-name="Group 2504" transform="translate(17.127 6.805)">
    <path id="Path_11962" data-name="Path 11962" d="M392.2,175.738c.472.163,1.21-.716,1.7-2a5.325,5.325,0,0,0-1.859-.456C391.691,174.525,391.745,175.582,392.2,175.738Z" transform="translate(-391.813 -173.285)" fill="#fc5327"/>
  </g>
  <g id="Group_2505" data-name="Group 2505" transform="translate(19.729 8.983)">
    <path id="Path_11963" data-name="Path 11963" d="M452.972,223.12c-1.138.784-1.827,1.717-1.555,2.139.257.4,1.283.207,2.4-.414A5.333,5.333,0,0,0,452.972,223.12Z" transform="translate(-451.358 -223.12)" fill="#fc5327"/>
  </g>
  <g id="Group_2506" data-name="Group 2506" transform="translate(19.795 13.458)">
    <path id="Path_11964" data-name="Path 11964" d="M455.229,325.73c-1.178-.343-2.173-.3-2.336.129-.153.409.483,1.04,1.491,1.544A5.351,5.351,0,0,0,455.229,325.73Z" transform="translate(-452.87 -325.5)" fill="#fc5327"/>
  </g>
  <g id="Group_2507" data-name="Group 2507" transform="translate(20.908 8.983)">
    <path id="Path_11965" data-name="Path 11965" d="M478.743,225.242a6.334,6.334,0,0,0,.848-.4,5.333,5.333,0,0,0-.84-1.725c-.154.106-.3.215-.436.325A5.327,5.327,0,0,1,478.743,225.242Z" transform="translate(-478.315 -223.119)" fill="#ed4322"/>
  </g>
  <g id="Group_2508" data-name="Group 2508" transform="translate(20.254 13.464)">
    <path id="Path_11966" data-name="Path 11966" d="M464.055,325.642a5.355,5.355,0,0,1-.691,1.209,4.889,4.889,0,0,0,1.055.688,5.352,5.352,0,0,0,.844-1.673A5.611,5.611,0,0,0,464.055,325.642Z" transform="translate(-463.364 -325.642)" fill="#ed4322"/>
  </g>
  <g id="Group_2509" data-name="Group 2509" transform="translate(9.468 14.833)">
    <path id="Path_11967" data-name="Path 11967" d="M221.554,356.983l-4.58.944a.462.462,0,0,0,.108.914l2.24-.07a.1.1,0,0,1,.052.18l-2.063,1.218a.438.438,0,0,0,.3.809l2.359-.414a.1.1,0,0,1,.077.171l-1.749,1.4a.462.462,0,0,0,.511.765l4.1-2.257a1.594,1.594,0,0,0,.726-1.947l-.26-.7A1.594,1.594,0,0,0,221.554,356.983Z" transform="translate(-216.605 -356.95)" fill="#fd7e42"/>
  </g>
  <g id="Group_2510" data-name="Group 2510" transform="translate(10.525 14.835)">
    <path id="Path_11968" data-name="Path 11968" d="M246.749,358.736l-.26-.7a1.594,1.594,0,0,0-1.427-1.041l.033.091a1.594,1.594,0,0,1-.726,1.947l-3.589,1.977,2.307-.4a.1.1,0,0,1,.077.171l-1.749,1.4a.462.462,0,0,0,.511.765l4.1-2.257A1.594,1.594,0,0,0,246.749,358.736Z" transform="translate(-240.78 -356.992)" fill="#fc5327"/>
  </g>
  <g id="Group_2511" data-name="Group 2511" transform="translate(3.083 5.664)">
    <path id="Path_11969" data-name="Path 11969" d="M81.837,150.808c0,2-.205,3.617-2.2,3.617s-9.1-1.62-9.1-3.617,7.1-3.617,9.1-3.617S81.837,148.811,81.837,150.808Z" transform="translate(-70.536 -147.191)" fill="#fd7e42"/>
  </g>
  <g id="Group_2512" data-name="Group 2512" transform="translate(3.214 5.665)">
    <path id="Path_11970" data-name="Path 11970" d="M82.517,147.2a8.086,8.086,0,0,1,.212,2.178c0,2-.205,3.617-2.2,3.617a22.354,22.354,0,0,1-7-1.707c.974,1.775,7.129,3.145,8.967,3.145,2,0,2.2-1.62,2.2-3.617S84.493,147.218,82.517,147.2Z" transform="translate(-73.527 -147.205)" fill="#fc5327"/>
  </g>
  <g id="Group_2513" data-name="Group 2513" transform="translate(6.075 8.055)">
    <circle id="Ellipse_68" data-name="Ellipse 68" cx="0.881" cy="0.881" r="0.881" fill="#554e57"/>
  </g>
  <g id="Group_2514" data-name="Group 2514" transform="translate(6.112 8.092)">
    <path id="Path_11971" data-name="Path 11971" d="M140.913,202.733a.88.88,0,0,1-1.094,1.094.88.88,0,1,0,1.094-1.094Z" transform="translate(-139.819 -202.733)" fill="#453e43"/>
  </g>
</svg>
