<svg id="Flat" xmlns="http://www.w3.org/2000/svg" width="21.96" height="21.96" viewBox="0 0 21.96 21.96">
  <path id="Path_11978" data-name="Path 11978" d="M38.388,133.679a5.68,5.68,0,0,1-5.679,5.679H29.679a5.679,5.679,0,0,1,0-11.359h3.029a5.68,5.68,0,0,1,5.679,5.679Z" transform="translate(-24 -123.078)" fill="#f35244"/>
  <path id="Path_11979" data-name="Path 11979" d="M59.182,188.071l-.674-.345a4.567,4.567,0,0,1,.544-.826l.584.483A3.807,3.807,0,0,0,59.182,188.071Z" transform="translate(-56.875 -179.19)" fill="#fc685b"/>
  <path id="Path_11980" data-name="Path 11980" d="M48.737,225.486a4.542,4.542,0,0,1-.565-3.72l.728.207a3.785,3.785,0,0,0,.47,3.1Z" transform="translate(-46.864 -212.406)" fill="#fc685b"/>
  <path id="Path_11981" data-name="Path 11981" d="M108.165,28.164l2.272-1.136-1.514,2.65,1.893,1.893-2.65-.379-.757,2.272-.757-2.272-2.65.379,1.893-1.893-1.514-2.65,2.272,1.136V27.151A3.322,3.322,0,0,1,108.922,24l.379,1.136a2.551,2.551,0,0,0-1.136,2.122Z" transform="translate(-100.214 -23.999)" fill="#79ad54"/>
  <path id="Path_11982" data-name="Path 11982" d="M184.379,105.515a.379.379,0,0,1-.379-.379v-.757a.379.379,0,1,1,.757,0v.757A.379.379,0,0,1,184.379,105.515Z" transform="translate(-176.428 -100.214)" fill="#6a9c46"/>
  <path id="Path_11983" data-name="Path 11983" d="M152.379,105.515a.379.379,0,0,1-.379-.379v-.757a.379.379,0,0,1,.757,0v.757A.379.379,0,0,1,152.379,105.515Z" transform="translate(-145.942 -100.214)" fill="#6a9c46"/>
  <path id="Path_11984" data-name="Path 11984" d="M54.859,174a5.68,5.68,0,0,1-5.679,5.679H46.151a5.678,5.678,0,0,1-4.861-2.74c5.742-.244,9.788-2.209,12.219-6.616A5.655,5.655,0,0,1,54.859,174Z" transform="translate(-40.472 -163.395)" fill="#e64c3f"/>
  <path id="Path_11985" data-name="Path 11985" d="M198.388,253.679a5.68,5.68,0,0,1-5.679,5.679h-3.029a5.679,5.679,0,1,1,0-11.359h3.029a5.68,5.68,0,0,1,5.679,5.679Z" transform="translate(-176.428 -237.398)" fill="#fc685b"/>
  <g id="Group_2539" data-name="Group 2539" transform="translate(9.087 12.116)">
    <path id="Path_11986" data-name="Path 11986" d="M219.972,281.514a.947.947,0,0,1,.947.947V280.7a.7.7,0,0,0-.7-.7h-.053a4.165,4.165,0,1,0,.053,8.33.7.7,0,0,0,.7-.7V285.49a.947.947,0,1,1-1.7-.568h0a.947.947,0,1,1,0-1.893h0a.945.945,0,0,1,.756-1.514Z" transform="translate(-215.997 -280)" fill="#e04538"/>
    <path id="Path_11987" data-name="Path 11987" d="M352.7,280a.7.7,0,0,0-.7.7v1.757a.947.947,0,1,1,1.7.568h0a.947.947,0,1,1,0,1.893h0a.946.946,0,1,1-1.7.568v2.135a.7.7,0,0,0,.7.7h.053A4.165,4.165,0,1,0,352.7,280Z" transform="translate(-345.563 -280)" fill="#e04538"/>
  </g>
</svg>
