<svg xmlns="http://www.w3.org/2000/svg" width="15.693" height="12.746" viewBox="0 0 15.693 12.746">
  <path id="Icon_awesome-twitter" data-name="Icon awesome-twitter" d="M14.08,6.557c.01.139.01.279.01.418a9.088,9.088,0,0,1-9.151,9.151A9.089,9.089,0,0,1,0,14.683a6.654,6.654,0,0,0,.777.04A6.441,6.441,0,0,0,4.77,13.348a3.222,3.222,0,0,1-3.007-2.231,4.056,4.056,0,0,0,.607.05,3.4,3.4,0,0,0,.846-.11A3.217,3.217,0,0,1,.637,7.9v-.04a3.239,3.239,0,0,0,1.454.408,3.221,3.221,0,0,1-1-4.3A9.142,9.142,0,0,0,7.727,7.334a3.631,3.631,0,0,1-.08-.737,3.219,3.219,0,0,1,5.566-2.2,6.332,6.332,0,0,0,2.041-.777,3.208,3.208,0,0,1-1.414,1.772,6.448,6.448,0,0,0,1.852-.5A6.914,6.914,0,0,1,14.08,6.557Z" transform="translate(0 -3.381)" fill="#1c9deb"/>
</svg>
