<svg id="_24-Vegetables" data-name="24-Vegetables" xmlns="http://www.w3.org/2000/svg" width="24.805" height="20.805" viewBox="0 0 24.805 20.805">
  <ellipse id="Ellipse_57" data-name="Ellipse 57" cx="6.256" cy="5.865" rx="6.256" ry="5.865" transform="translate(6.146 5.709)" fill="#ffa426"/>
  <path id="Path_11695" data-name="Path 11695" d="M18.531,26a6,6,0,0,1,5.2-5.942,6,6,0,1,0,0,11.883A6,6,0,0,1,18.531,26Z" transform="translate(-10.529 -14.397)" fill="#fe8205"/>
  <path id="Path_11696" data-name="Path 11696" d="M30.8,20a6,6,0,0,0-.8.06,5.994,5.994,0,0,1,0,11.883A6,6,0,1,0,30.8,20Z" transform="translate(-18.397 -14.398)" fill="#ffc247"/>
  <path id="Path_11697" data-name="Path 11697" d="M33.7,9.536c.619-.617,1.737-2.737,1.119-3.357s-2.74.5-3.357,1.119A1.582,1.582,0,1,0,33.7,9.536Z" transform="translate(-18.998 -5.998)" fill="#a5e887"/>
  <path id="Path_11698" data-name="Path 11698" d="M33.7,8.71a1.583,1.583,0,0,1-2.583-.52A1.582,1.582,0,0,0,33.7,9.91c.6-.6,1.661-2.6,1.169-3.288A5.976,5.976,0,0,1,33.7,8.71Z" transform="translate(-18.996 -6.372)" fill="#86c983"/>
  <path id="Path_11699" data-name="Path 11699" d="M29.284,8.859l-.566-.566L25.8,11.212A3.779,3.779,0,0,0,23,10.176v.8a3.116,3.116,0,0,1,3.2,3.2v.4H27v-.4a4.957,4.957,0,0,0-.7-2.335Z" transform="translate(-14.198 -7.375)" fill="#98ba5c"/>
  <path id="Path_11700" data-name="Path 11700" d="M25.4,39.4A4.406,4.406,0,0,1,21,35h.8a3.605,3.605,0,0,0,3.6,3.6Z" transform="translate(-12.998 -23.397)" fill="#f5e3a7"/>
  <path id="Path_11701" data-name="Path 11701" d="M21,31h.8v.8H21Z" transform="translate(-12.998 -20.997)" fill="#f5e3a7"/>
  <path id="Path_11702" data-name="Path 11702" d="M38,27h.8v.8H38Z" transform="translate(-23.197 -18.597)" fill="#f5e3a7"/>
  <path id="Path_11703" data-name="Path 11703" d="M42,31h.8v.8H42Z" transform="translate(-25.596 -20.997)" fill="#f5e3a7"/>
  <path id="Path_11704" data-name="Path 11704" d="M38,31h.8v.8H38Z" transform="translate(-23.197 -20.997)" fill="#f5e3a7"/>
  <path id="Path_11705" data-name="Path 11705" d="M8.2,30a7.636,7.636,0,0,1,2,.388c.672.2,1.2.412,1.2.412l-.584.292L9.8,31.6l.8,1.2L8.2,32l-2.4.8.8-1.2-1.016-.508L5,30.8A12.223,12.223,0,0,1,8.081,30C8.121,30,8.161,30,8.2,30Z" transform="translate(-3.4 -20.397)" fill="#a5e887"/>
  <path id="Path_11706" data-name="Path 11706" d="M10.608,36.039a3.59,3.59,0,0,1-.28,1.392l-1.72.208a2,2,0,0,0-2,2h-2A3.6,3.6,0,0,1,3.19,32.73l1.016.508-.8,1.2,2.4-.8,2.4.8-.8-1.2,1.016-.508A3.6,3.6,0,0,1,10.608,36.039Z" transform="translate(-1.006 -22.035)" fill="#ff475a"/>
  <path id="Path_11707" data-name="Path 11707" d="M18.016,33.53a3.594,3.594,0,0,1,2.156,2.937,3.57,3.57,0,0,0-2.156-3.737L17,33.238l.4.6Z" transform="translate(-10.599 -22.035)" fill="#f03049"/>
  <path id="Path_11708" data-name="Path 11708" d="M7,36.6l2.4-.8,2.4.8-.686-1.029L9.4,35l-1.715.572Z" transform="translate(-4.599 -23.397)" fill="#f03049"/>
  <path id="Path_11709" data-name="Path 11709" d="M2.056,34.294a3.584,3.584,0,0,1,1.128-.764l.616.308.4-.6L3.184,32.73a3.582,3.582,0,0,0-2.161,3.709A3.579,3.579,0,0,1,2.056,34.294Z" transform="translate(-1 -22.035)" fill="#f03049"/>
  <path id="Path_11710" data-name="Path 11710" d="M30.2,45.2a3.207,3.207,0,0,1-2.8,3.177,3.305,3.305,0,0,1-.4.024,2.655,2.655,0,0,1-.4-.028,2.469,2.469,0,0,1-.336-.06L24.2,48.065l-.8-.1L19,47.441l-2-.24a2,2,0,0,1,0-4l1.72-.208,1.88-.224.8-.1L25,42.24,27,42a3.2,3.2,0,0,1,2.116.8,2.968,2.968,0,0,1,.364.38,2.915,2.915,0,0,1,.32.476,3.147,3.147,0,0,1,.4,1.544Z" transform="translate(-9.399 -27.596)" fill="#ffc247"/>
  <path id="Path_11711" data-name="Path 11711" d="M55.921,45v1.6h-2.8l1.6.8-.4,1.2-3.121-.78a3.192,3.192,0,0,0,.72-2.02,3.147,3.147,0,0,0-.4-1.544,2.916,2.916,0,0,0-.32-.476l.32-.08,2.8-.7.4,1.2-1.6.8Z" transform="translate(-31.116 -28.196)" fill="#a5e887"/>
  <g id="Group_2374" data-name="Group 2374" transform="translate(8.802 14.548)">
    <path id="Path_11712" data-name="Path 11712" d="M23,52.144V50h.8v2.24Z" transform="translate(-23 -46.943)" fill="#ff9500"/>
    <path id="Path_11713" data-name="Path 11713" d="M29.8,43.68v2.128H29V43.776Z" transform="translate(-26.599 -43.152)" fill="#ff9500"/>
    <path id="Path_11714" data-name="Path 11714" d="M36.8,51v2.465l-.8-.1V51Z" transform="translate(-30.799 -47.543)" fill="#ff9500"/>
    <path id="Path_11715" data-name="Path 11715" d="M40.8,42.36v2.256H40v-2.16Z" transform="translate(-33.199 -42.36)" fill="#ff9500"/>
    <path id="Path_11716" data-name="Path 11716" d="M44,55.572V54h.8v1.576Z" transform="translate(-35.598 -49.343)" fill="#ff9500"/>
    <path id="Path_11717" data-name="Path 11717" d="M29,51h.8v.8H29Z" transform="translate(-26.599 -47.543)" fill="#ff9500"/>
    <path id="Path_11718" data-name="Path 11718" d="M44,50h.8v.8H44Z" transform="translate(-35.598 -46.943)" fill="#ff9500"/>
  </g>
  <path id="Path_11719" data-name="Path 11719" d="M10.976,28.376a6.939,6.939,0,0,0-.113-1.123,2.691,2.691,0,0,0-.57-1.4l.566-.566a3.345,3.345,0,0,1,.792,1.819,7.6,7.6,0,0,1,.126,1.265Z" transform="translate(-6.575 -17.573)" fill="#98ba5c"/>
  <path id="Path_11720" data-name="Path 11720" d="M30.2,49.1a3.207,3.207,0,0,1-2.8,3.177,3.305,3.305,0,0,1-.4.024,2.654,2.654,0,0,1-.4-.028,2.469,2.469,0,0,1-.336-.06L24.2,51.965l-.8-.1L19,51.341l-2-.24a1.979,1.979,0,0,1-1.9-2.6A2,2,0,0,0,17,49.9l2,.24,4.4.528.8.1,2.064.248a2.469,2.469,0,0,0,.336.06,2.653,2.653,0,0,0,.4.028,3.306,3.306,0,0,0,.4-.024,3.181,3.181,0,0,0,2.08-1.156,3.227,3.227,0,0,0,.66-1.408A3.187,3.187,0,0,1,30.2,49.1Z" transform="translate(-9.399 -31.496)" fill="#ffa426"/>
  <path id="Path_11721" data-name="Path 11721" d="M23.8,52.456v1.2l-.8-.1v-1.2Z" transform="translate(-14.198 -33.811)" fill="#fe8205"/>
  <path id="Path_11722" data-name="Path 11722" d="M29.8,43.68v2.128H29V43.776Z" transform="translate(-17.797 -28.604)" fill="#ff9500"/>
  <path id="Path_11723" data-name="Path 11723" d="M36.8,54.016v1.2l-.8-.1v-1.2Z" transform="translate(-21.997 -34.747)" fill="#fe8205"/>
  <path id="Path_11724" data-name="Path 11724" d="M40.8,42.36v2.256H40v-2.16Z" transform="translate(-24.397 -27.812)" fill="#ff9500"/>
  <path id="Path_11725" data-name="Path 11725" d="M44.8,54.934v1.2l-.8,0v-1.2a2.653,2.653,0,0,0,.4.028,3.3,3.3,0,0,0,.4-.024Z" transform="translate(-26.796 -35.353)" fill="#fe8205"/>
  <path id="Path_11726" data-name="Path 11726" d="M29,51h.8v.8H29Z" transform="translate(-17.797 -32.995)" fill="#ff9500"/>
  <path id="Path_11727" data-name="Path 11727" d="M44,50h.8v.8H44Z" transform="translate(-26.796 -32.396)" fill="#ff9500"/>
  <path id="Path_11728" data-name="Path 11728" d="M40.733,35.111a8.686,8.686,0,0,0-1.464.364,4.877,4.877,0,0,0-.9.4l-.972.116-1.864.224L35,35.683l1.148-1.148a6.227,6.227,0,0,0,1.144-2.865,2.437,2.437,0,0,0,.844.548,2,2,0,0,0,.592,1.456,1.975,1.975,0,0,0,.952.532v0a1.949,1.949,0,0,0,.5.056,2.437,2.437,0,0,0,.548.844Z" transform="translate(-21.397 -21.399)" fill="#98ba5c"/>
  <path id="Path_11729" data-name="Path 11729" d="M40.185,38.01a1.949,1.949,0,0,1-.5-.056v0c-.046-.01-.091-.028-.136-.04a8.642,8.642,0,0,0-1.156.31,4.877,4.877,0,0,0-.9.4l-.972.116-.946.114L35,39.426l.536.536,1.864-.224.972-.116a4.877,4.877,0,0,1,.9-.4,8.686,8.686,0,0,1,1.464-.364A2.437,2.437,0,0,1,40.185,38.01Z" transform="translate(-21.397 -25.143)" fill="#7a9e51"/>
  <path id="Path_11730" data-name="Path 11730" d="M47.978,21.462a2.036,2.036,0,0,1,0,2.869,1.978,1.978,0,0,1-.756.468,2.432,2.432,0,0,1-4.669,1.268,1.949,1.949,0,0,1-.5-.056v0a1.975,1.975,0,0,1-.952-.532,2,2,0,0,1-.592-1.456,2.431,2.431,0,0,1-.844-3.989c.02-.02.04-.04.064-.06a2.422,2.422,0,0,1,2.048-.62,1.978,1.978,0,0,1,.468-.756,2.036,2.036,0,0,1,2.869,0c.04.04.068.088.1.128a2.028,2.028,0,0,1,2.637,2.637c.04.036.088.064.128.1Z" transform="translate(-23.764 -13.2)" fill="#a5e887"/>
  <path id="Path_11731" data-name="Path 11731" d="M53.658,21.47c-.04-.04-.088-.068-.128-.1a2.028,2.028,0,0,0-2.637-2.637c-.036-.04-.064-.088-.1-.128a2.03,2.03,0,0,0-2.375-.351,2.01,2.01,0,0,1,.494.351c.04.04.068.088.1.128a2.028,2.028,0,0,1,2.637,2.637c.04.036.088.064.128.1a2.036,2.036,0,0,1,0,2.869,1.978,1.978,0,0,1-.756.468,2.423,2.423,0,0,1-1.459,2.633,2.429,2.429,0,0,0,3.34-2.633,1.978,1.978,0,0,0,.756-.468A2.036,2.036,0,0,0,53.658,21.47Z" transform="translate(-29.445 -13.208)" fill="#86c983"/>
</svg>
