<svg id="wall-clock" xmlns="http://www.w3.org/2000/svg" width="20" height="20" viewBox="0 0 20 20">
  <g id="Group_2671" data-name="Group 2671" transform="translate(0 0)">
    <g id="Group_2670" data-name="Group 2670">
      <path id="Path_12041" data-name="Path 12041" d="M17.071,2.929A10,10,0,0,0,2.929,17.071a10,10,0,0,0,12.245,1.488.781.781,0,1,0-.809-1.336,8.512,8.512,0,1,1,2.642-2.539.781.781,0,0,0,1.3.868A9.975,9.975,0,0,0,17.071,2.929Z" transform="translate(0 0)" fill="#7dd87d"/>
    </g>
  </g>
  <g id="Group_2673" data-name="Group 2673" transform="translate(5.717 3.621)">
    <g id="Group_2672" data-name="Group 2672">
      <path id="Path_12042" data-name="Path 12042" d="M161.53,76a.953.953,0,0,0-.953.953v7.228l-3.494,3.494a.953.953,0,1,0,1.348,1.347l3.773-3.773a.953.953,0,0,0,.279-.674V76.953A.953.953,0,0,0,161.53,76Z" transform="translate(-156.804 -76)" fill="#7dd87d"/>
    </g>
  </g>
</svg>
