<svg xmlns="http://www.w3.org/2000/svg" width="16.297" height="16.296" viewBox="0 0 16.297 16.296">
  <g id="_6_Attention" data-name="6 Attention" transform="translate(0 -0.002)">
    <path id="Path_20775" data-name="Path 20775" d="M13.909,2.39a8.148,8.148,0,1,0-3.417,13.566.8.8,0,1,0-.457-1.524,6.554,6.554,0,1,1,3.6-2.684.8.8,0,1,0,1.33.874A8.15,8.15,0,0,0,13.909,2.39Z" transform="translate(0 0)" fill="#f9d755"/>
    <path id="Path_20776" data-name="Path 20776" d="M231,109.8v5.061a.8.8,0,0,0,1.591,0V109.8a.8.8,0,0,0-1.591,0Z" transform="translate(-223.647 -105.528)" fill="#f9d755"/>
    <path id="Path_20777" data-name="Path 20777" d="M231.8,354.591a.8.8,0,1,1,.8-.8A.8.8,0,0,1,231.8,354.591Z" transform="translate(-223.647 -341.762)" fill="#f9d755"/>
  </g>
</svg>
